<svg height="512" viewBox="0 0 512 512" width="512" xmlns="http://www.w3.org/2000/svg" xmlns:xlink="http://www.w3.org/1999/xlink"><linearGradient id="linear-gradient" gradientUnits="userSpaceOnUse" x1="247.724" x2="247.724" y1="-4.353" y2="508.328"><stop offset="0" stop-color="#2ab793"/><stop offset="1" stop-color="#2c98b5"/></linearGradient><linearGradient id="linear-gradient-2" x1="70.347" x2="70.347" xlink:href="#linear-gradient" y1="-4.353" y2="508.328"/><linearGradient id="linear-gradient-3" x1="297.105" x2="297.105" xlink:href="#linear-gradient" y1="-4.353" y2="508.328"/><linearGradient id="linear-gradient-4" x1="120" x2="120" xlink:href="#linear-gradient" y1="-4.353" y2="508.328"/><linearGradient id="linear-gradient-5" x1="168" x2="168" xlink:href="#linear-gradient" y1="-4.353" y2="508.328"/><linearGradient id="linear-gradient-6" x1="216" x2="216" xlink:href="#linear-gradient" y1="-4.353" y2="508.328"/><linearGradient id="linear-gradient-7" x1="280.001" x2="280.001" xlink:href="#linear-gradient" y1="-4.353" y2="508.328"/><linearGradient id="linear-gradient-8" x1="360.132" x2="360.132" xlink:href="#linear-gradient" y1="-4.353" y2="508.328"/><linearGradient id="linear-gradient-9" gradientTransform="matrix(.433 .901 -.901 .433 554.616 -56.195)" x1="322.003" x2="322.003" xlink:href="#linear-gradient" y1="-4.305" y2="508.376"/><linearGradient id="linear-gradient-10" x1="355.719" x2="355.719" xlink:href="#linear-gradient" y1="-4.353" y2="508.328"/><linearGradient id="linear-gradient-11" x1="388" x2="388" xlink:href="#linear-gradient" y1="-4.353" y2="508.328"/><g id="GRADIENT"><path d="m256 32a227.45279 227.45279 0 0 1 23.18164 1.18457l1.63672-15.916a242.89013 242.89013 0 0 0 -66.18848 2.28516l2.74024 15.76367a226.19917 226.19917 0 0 1 38.62988-3.3174z" fill="url(#linear-gradient)"/><path d="m124.69482 74.499-9.38964-12.955a239.6931 239.6931 0 0 0 -99.30518 194.456 237.60706 237.60706 0 0 0 24.832 106.42969l14.336-7.10352a221.7567 221.7567 0 0 1 -23.168-99.32617 223.68882 223.68882 0 0 1 92.69482-181.501z" fill="url(#linear-gradient-2)"/><path d="m263.72949 479.86914.541 15.99024a239.56123 239.56123 0 0 0 66.21051-11.64356l-4.962-15.21094a223.58 223.58 0 0 1 -61.78951 10.86426z" fill="url(#linear-gradient-3)"/><path d="m112 248h16v184h-16z" fill="url(#linear-gradient-4)"/><path d="m160 248h16v184h-16z" fill="url(#linear-gradient-5)"/><path d="m208 248h16v184h-16z" fill="url(#linear-gradient-6)"/><path d="m491.46777 263.7207-144.187-69.35742a24.02827 24.02827 0 0 0 -32.03125 11.22559l-43.24952 89.91357v-79.50244a40.04552 40.04552 0 0 0 -40-40h-32v-128a32 32 0 0 0 -64 0v128h-32a40.04552 40.04552 0 0 0 -40 40v208a40.067 40.067 0 0 0 26.36963 37.60547 24.00152 24.00152 0 1 0 44.25415 2.39453h66.75244a23.99886 23.99886 0 1 0 44.25415-2.39453 40.148 40.148 0 0 0 25.36621-28.73633l112.97022 54.33986a7.99345 7.99345 0 0 0 10.67724-3.74121l100.56543-209.07033a7.99993 7.99993 0 0 0 -3.7417-10.67676zm-154.57666-55.72754a7.95082 7.95082 0 0 1 3.45459.78907l136.977 65.88867-6.93554 14.41894-136.97749-65.88769a8.01015 8.01015 0 0 1 -3.74512-10.66968l.00391-.00806-.00037-.00024a8.0119 8.0119 0 0 1 7.22302-4.53101zm-184.89111-159.99316a16 16 0 0 1 32 0v128h-32zm-32 424a8 8 0 1 1 -8-8 8.00917 8.00917 0 0 1 8 8zm104 8a8 8 0 1 1 8-8 8.00917 8.00917 0 0 1 -8 8zm8-32h-128a24.0275 24.0275 0 0 1 -24-24v-208a24.0275 24.0275 0 0 1 24-24h32v40h16v-40h32v40h16v-40h32a24.0275 24.0275 0 0 1 24 24v112.76562l-27.44482 57.05665a23.99974 23.99974 0 0 0 11.22461 32.03125l16.15893 7.77246a24.02718 24.02718 0 0 1 -23.93872 22.37402zm151.69287 21.32324-136.97754-65.88769a8.00069 8.00069 0 0 1 -3.74121-10.67774l76.88745-159.84546a23.88317 23.88317 0 0 0 6.613 4.70777l136.97733 65.88769z" fill="url(#linear-gradient-7)"/><path d="m384.42285 283.249a55.99765 55.99765 0 1 0 26.19092 74.74024 56.06315 56.06315 0 0 0 -26.19092-74.74024zm14.51441 60.24659-14.343-6.89893a77.75226 77.75226 0 0 0 4.64549-27.59666l-.04248-2.77246a40.1411 40.1411 0 0 1 9.73999 37.26807zm-49.73365 15.72216-2.10766 1.63184-.04077-2.665a61.72245 61.72245 0 0 1 3.16333-20.36914l12.92419 6.2168a61.72726 61.72726 0 0 1 -13.93909 15.18552zm7.95008-35.82031a61.72257 61.72257 0 0 1 13.93957-15.18652l2.10767-1.63184.04077 2.665a61.7253 61.7253 0 0 1 -3.16358 20.37012zm3.05822-29.68066c1.08838 0 2.17994.05957 3.27173.1499l-2.1853 1.69189a77.75931 77.75931 0 0 0 -18.66089 20.85643l-14.32666-6.8916a40.13174 40.13174 0 0 1 31.90112-15.8066zm-38.85815 30.21435 14.34851 6.90186a77.74948 77.74948 0 0 0 -4.64514 27.5957l.04285 2.79883a40.08228 40.08228 0 0 1 -9.74622-37.29639zm35.45312 49.63574 2.19166-1.69677a77.7579 77.7579 0 0 0 18.6604-20.85547l14.343 6.89941a40.14186 40.14186 0 0 1 -35.19506 15.65285z" fill="url(#linear-gradient-8)"/><path d="m314.003 373.017h15.999v80h-15.999z" fill="url(#linear-gradient-9)" transform="matrix(.433 -.901 .901 .433 -189.775 524.158)"/><path d="m361.65674 126.34277a25.00157 25.00157 0 0 0 -35.31348 0 8.98111 8.98111 0 0 1 -12.68652 0l-2-2a56.14947 56.14947 0 0 0 -79.31348 0 22.96169 22.96169 0 0 1 -16.34326 6.76953v16a38.85754 38.85754 0 0 0 27.65674-11.45507 40.12812 40.12812 0 0 1 56.68652 0l2 2a25.00157 25.00157 0 0 0 35.31348 0 8.97844 8.97844 0 0 1 12.68652 0l14.74512 14.74511a161.33968 161.33968 0 0 0 107.81348 47.43726 223.52575 223.52575 0 0 1 6.57373 40.70435l15.96289-1.0879a237.75475 237.75475 0 0 0 -24.84961-91.04687l-14.29787 7.18164a223.08432 223.08432 0 0 1 11.71752 27.91968 145.40446 145.40446 0 0 1 -91.60668-42.42261z" fill="url(#linear-gradient-10)"/><path d="m291.82861 54.82617 133.25 81.43067a23.93027 23.93027 0 0 0 29.48584-3.50782l31.09229-31.09179a8.00063 8.00063 0 0 0 0-11.31446l-16-16a8.00131 8.00131 0 0 0 -10.09424-.999l-19.5625 13.041-36.52588-24.35059 18.92578-25.23438a8 8 0 0 0 -.74316-10.457l-8-8a7.99983 7.99983 0 0 0 -9.23438-1.498l-44.07226 22.03606-14.8101-8.88672a39.94234 39.94234 0 0 0 -48.86377 6.01563l-6.333 6.333a8.00017 8.00017 0 0 0 1.48535 12.4834zm45.4795-11.11133 18.57568 11.14551a8.00189 8.00189 0 0 0 7.69385.29492l40.08936-20.04492-18.0669 24.08985a7.99921 7.99921 0 0 0 1.9624 11.456l48 32a8.00131 8.00131 0 0 0 8.875 0l18.543-12.3623 5.7055 5.7061-25.43555 25.43555a7.976 7.976 0 0 1 -9.82813 1.16894l-124.55416-76.11621a23.96106 23.96106 0 0 1 28.43995-2.77344z" fill="url(#linear-gradient-11)"/></g></svg>