<?xml version="1.0" encoding="utf-8"?>
<!-- Generator: Adobe Illustrator 27.5.0, SVG Export Plug-In . SVG Version: 6.00 Build 0)  -->
<svg version="1.1" xmlns="http://www.w3.org/2000/svg" xmlns:xlink="http://www.w3.org/1999/xlink" x="0px" y="0px"
	 viewBox="0 0 750 500" style="enable-background:new 0 0 750 500;" xml:space="preserve">
<g id="BACKGROUND">
</g>
<g id="OBJECTS">
	<g>
		<defs>
			<rect id="SVGID_1_" width="750" height="500"/>
		</defs>
		<clipPath id="SVGID_00000096754290285617649090000014041951327732606642_">
			<use xlink:href="#SVGID_1_"  style="overflow:visible;"/>
		</clipPath>
		<g style="clip-path:url(#SVGID_00000096754290285617649090000014041951327732606642_);">
			
				<linearGradient id="SVGID_00000071547855660902630600000002630388229044826815_" gradientUnits="userSpaceOnUse" x1="374.75" y1="503.1176" x2="374.75" y2="7.5884">
				<stop  offset="0" style="stop-color:#FFFFFF"/>
				<stop  offset="0.1327" style="stop-color:#F9F9FE"/>
				<stop  offset="0.312" style="stop-color:#E8E9FB"/>
				<stop  offset="0.518" style="stop-color:#CBCFF6"/>
				<stop  offset="0.7438" style="stop-color:#A4AAEF"/>
				<stop  offset="0.9834" style="stop-color:#727BE7"/>
				<stop  offset="1" style="stop-color:#6E78E6"/>
			</linearGradient>
			
				<rect x="-0.5" y="-6.838" style="fill:url(#SVGID_00000071547855660902630600000002630388229044826815_);" width="750.5" height="513.676"/>
			<path style="opacity:0.2;fill:#FFFFFF;" d="M338.494,47.135L-58.353,86.338v21.497l383.888-43.07l-383.888,59.874v10.17
				L336.49,77.464c17.538-2.547,35.306-3.137,52.974-1.759l317.277,24.75l-284.925-7.059l479.83,35.5V72.22L373.751,46.265
				C361.993,45.687,350.209,45.978,338.494,47.135z"/>
			<polygon style="opacity:0.3;fill:#FFFFFF;" points="-42.824,127.275 382.917,101.863 -42.824,156.922 			"/>
			<polygon style="opacity:0.3;fill:#FFFFFF;" points="415.284,110.294 789.059,120.882 789.059,148.412 			"/>
			<polygon style="opacity:0.3;fill:#FFFFFF;" points="130.869,149.324 356.09,116.147 639.157,143.676 360.792,132.735 			"/>
			<polygon style="opacity:0.3;fill:#FFFFFF;" points="33.967,165.237 305.383,140.694 476.951,149.649 305.106,157.06 			"/>
			<rect x="273.595" y="110.294" style="fill:#CCA4DB;" width="24.317" height="412.53"/>
			<rect x="104.702" y="171.123" style="fill:#CCA4DB;" width="15.001" height="351.701"/>
			<g>
				<rect x="9.121" y="122.059" style="fill:#CCA4DB;" width="22.391" height="384.423"/>
				<path style="fill:#EFC6FF;" d="M31.512,122.059v385.775h73.412V122.059H31.512z M49.675,421.945h-7.415v-7.415h7.415V421.945z
					 M49.675,406.357h-7.415v-7.415h7.415V406.357z M49.675,297.239h-7.415v-7.415h7.415V297.239z M49.675,266.062h-7.415v-7.415
					h7.415V266.062z M49.675,234.886h-7.415v-7.415h7.415V234.886z M49.675,188.121h-7.415v-7.415h7.415V188.121z M49.675,141.357
					h-7.415v-7.415h7.415V141.357z M64.508,437.533h-7.415v-7.415h7.415V437.533z M64.508,406.357h-7.415v-7.415h7.415V406.357z
					 M64.508,359.592h-7.415v-7.415h7.415V359.592z M64.508,344.004h-7.415v-7.415h7.415V344.004z M64.508,312.827h-7.415v-7.415
					h7.415V312.827z M64.508,281.651h-7.415v-7.415h7.415V281.651z M64.508,234.886h-7.415v-7.415h7.415V234.886z M64.508,219.298
					h-7.415v-7.415h7.415V219.298z M64.508,203.71h-7.415v-7.415h7.415V203.71z M64.508,172.533h-7.415v-7.415h7.415V172.533z
					 M64.508,141.357h-7.415v-7.415h7.415V141.357z M79.342,421.945h-7.415v-7.415h7.415V421.945z M79.342,375.18h-7.415v-7.415
					h7.415V375.18z M79.342,344.004h-7.415v-7.415h7.415V344.004z M79.342,328.415h-7.415V321h7.415V328.415z M79.342,281.651
					h-7.415v-7.415h7.415V281.651z M79.342,266.062h-7.415v-7.415h7.415V266.062z M79.342,250.474h-7.415v-7.415h7.415V250.474z
					 M79.342,203.71h-7.415v-7.415h7.415V203.71z M79.342,172.533h-7.415v-7.415h7.415V172.533z M79.342,156.945h-7.415v-7.415
					h7.415V156.945z M94.176,437.533h-7.415v-7.415h7.415V437.533z M94.176,390.768h-7.415v-7.415h7.415V390.768z M94.176,297.239
					h-7.415v-7.415h7.415V297.239z M94.176,250.474h-7.415v-7.415h7.415V250.474z M94.176,203.71h-7.415v-7.415h7.415V203.71z
					 M94.176,188.121h-7.415v-7.415h7.415V188.121z M94.176,156.945h-7.415v-7.415h7.415V156.945z"/>
				<g>
					<rect x="71.927" y="133.941" style="fill:#FFFFFF;" width="7.415" height="7.415"/>
					<rect x="86.761" y="133.941" style="fill:#FFFFFF;" width="7.415" height="7.415"/>
					<rect x="42.259" y="149.529" style="fill:#FFFFFF;" width="7.415" height="7.415"/>
					<rect x="57.093" y="149.529" style="fill:#FFFFFF;" width="7.415" height="7.415"/>
					<rect x="42.259" y="165.118" style="fill:#FFFFFF;" width="7.415" height="7.415"/>
					<rect x="86.761" y="165.118" style="fill:#FFFFFF;" width="7.415" height="7.415"/>
					<rect x="57.093" y="180.706" style="fill:#FFFFFF;" width="7.415" height="7.415"/>
					<rect x="71.927" y="180.706" style="fill:#FFFFFF;" width="7.415" height="7.415"/>
					<rect x="42.259" y="196.294" style="fill:#FFFFFF;" width="7.415" height="7.415"/>
					<rect x="42.259" y="211.882" style="fill:#FFFFFF;" width="7.415" height="7.415"/>
					<rect x="71.927" y="211.882" style="fill:#FFFFFF;" width="7.415" height="7.415"/>
					<rect x="86.761" y="211.882" style="fill:#FFFFFF;" width="7.415" height="7.415"/>
					<rect x="71.927" y="227.471" style="fill:#FFFFFF;" width="7.415" height="7.415"/>
					<rect x="86.761" y="227.471" style="fill:#FFFFFF;" width="7.415" height="7.415"/>
					<rect x="42.259" y="243.059" style="fill:#FFFFFF;" width="7.415" height="7.415"/>
					<rect x="57.093" y="243.059" style="fill:#FFFFFF;" width="7.415" height="7.415"/>
					<rect x="57.093" y="258.647" style="fill:#FFFFFF;" width="7.415" height="7.415"/>
					<rect x="86.761" y="258.647" style="fill:#FFFFFF;" width="7.415" height="7.415"/>
					<rect x="42.259" y="274.235" style="fill:#FFFFFF;" width="7.415" height="7.415"/>
					<rect x="86.761" y="274.235" style="fill:#FFFFFF;" width="7.415" height="7.415"/>
					<rect x="57.093" y="289.823" style="fill:#FFFFFF;" width="7.415" height="7.415"/>
					<rect x="71.927" y="289.823" style="fill:#FFFFFF;" width="7.415" height="7.415"/>
					<rect x="42.259" y="305.412" style="fill:#FFFFFF;" width="7.415" height="7.415"/>
					<rect x="71.927" y="305.412" style="fill:#FFFFFF;" width="7.415" height="7.415"/>
					<rect x="86.761" y="305.412" style="fill:#FFFFFF;" width="7.415" height="7.415"/>
					<rect x="42.259" y="321" style="fill:#FFFFFF;" width="7.415" height="7.415"/>
					<rect x="57.093" y="321" style="fill:#FFFFFF;" width="7.415" height="7.415"/>
					<rect x="86.761" y="321" style="fill:#FFFFFF;" width="7.415" height="7.415"/>
					<rect x="42.259" y="336.588" style="fill:#FFFFFF;" width="7.415" height="7.415"/>
					<rect x="86.761" y="336.588" style="fill:#FFFFFF;" width="7.415" height="7.415"/>
					<rect x="42.259" y="352.177" style="fill:#FFFFFF;" width="7.415" height="7.415"/>
					<rect x="71.927" y="352.177" style="fill:#FFFFFF;" width="7.415" height="7.415"/>
					<rect x="86.761" y="352.177" style="fill:#FFFFFF;" width="7.415" height="7.415"/>
					<rect x="42.259" y="367.765" style="fill:#FFFFFF;" width="7.415" height="7.415"/>
					<rect x="57.093" y="367.765" style="fill:#FFFFFF;" width="7.415" height="7.415"/>
					<rect x="86.761" y="367.765" style="fill:#FFFFFF;" width="7.415" height="7.415"/>
					<rect x="42.259" y="383.353" style="fill:#FFFFFF;" width="7.415" height="7.415"/>
					<rect x="57.093" y="383.353" style="fill:#FFFFFF;" width="7.415" height="7.415"/>
					<rect x="71.927" y="383.353" style="fill:#FFFFFF;" width="7.415" height="7.415"/>
					<rect x="71.927" y="398.941" style="fill:#FFFFFF;" width="7.415" height="7.415"/>
					<rect x="86.761" y="398.941" style="fill:#FFFFFF;" width="7.415" height="7.415"/>
					<rect x="57.093" y="414.529" style="fill:#FFFFFF;" width="7.415" height="7.415"/>
					<rect x="86.761" y="414.529" style="fill:#FFFFFF;" width="7.415" height="7.415"/>
					<rect x="42.259" y="430.118" style="fill:#FFFFFF;" width="7.415" height="7.415"/>
					<rect x="71.927" y="430.118" style="fill:#FFFFFF;" width="7.415" height="7.415"/>
				</g>
			</g>
			<g>
				<path style="fill:#EFC6FF;" d="M119.703,171.123v351.701h57.969V171.123H119.703z M171.656,443.116H125.43v-8.289h46.226
					V443.116z M171.656,407.566H125.43v-8.289h46.226V407.566z M171.656,389.79H125.43v-8.289h46.226V389.79z M171.656,354.24
					H125.43v-8.288h46.226V354.24z M171.656,318.69H125.43v-8.289h46.226V318.69z M171.656,300.914H125.43v-8.288h46.226V300.914z
					 M171.656,265.364H125.43v-8.289h46.226V265.364z M171.656,212.039H125.43v-8.288h46.226V212.039z"/>
				<rect x="125.43" y="185.975" style="fill:#FFFFFF;" width="46.226" height="8.289"/>
			</g>
			<rect x="128.899" y="255.285" style="fill:#FFFFFF;" width="74.224" height="8.288"/>
			<rect x="128.899" y="273.06" style="fill:#FFFFFF;" width="74.224" height="8.288"/>
			<rect x="128.899" y="308.61" style="fill:#FFFFFF;" width="74.224" height="8.289"/>
			<rect x="128.899" y="361.936" style="fill:#FFFFFF;" width="74.224" height="8.289"/>
			<rect x="128.899" y="397.486" style="fill:#FFFFFF;" width="74.224" height="8.288"/>
			<rect x="128.899" y="450.812" style="fill:#FFFFFF;" width="74.224" height="8.289"/>
			<g>
				<path style="fill:#EFC6FF;" d="M297.702,110.294v406.852h72.713V110.294H297.702z M317.313,417.381h-9.027v-7.412h9.027V417.381
					z M317.313,302.369h-9.027v-7.412h9.027V302.369z M317.313,256.365h-9.027v-7.412h9.027V256.365z M317.313,233.362h-9.027
					v-7.412h9.027V233.362z M317.313,164.355h-9.027v-7.412h9.027V164.355z M331.486,463.386h-9.027v-7.412h9.027V463.386z
					 M331.486,417.381h-9.027v-7.412h9.027V417.381z M331.486,394.379h-9.027v-7.412h9.027V394.379z M331.486,348.374h-9.027v-7.412
					h9.027V348.374z M331.486,302.369h-9.027v-7.412h9.027V302.369z M331.486,210.36h-9.027v-7.412h9.027V210.36z M331.486,141.353
					h-9.027v-7.412h9.027V141.353z M345.659,486.388h-9.027v-7.412h9.027V486.388z M345.659,279.367h-9.027v-7.412h9.027V279.367z
					 M345.659,210.36h-9.027v-7.412h9.027V210.36z M345.659,187.358h-9.027v-7.412h9.027V187.358z M359.831,463.386h-9.027v-7.412
					h9.027V463.386z M359.831,440.384h-9.027v-7.412h9.027V440.384z M359.831,371.376h-9.027v-7.412h9.027V371.376z
					 M359.831,325.372h-9.027v-7.412h9.027V325.372z M359.831,279.367h-9.027v-7.412h9.027V279.367z M359.831,256.365h-9.027v-7.412
					h9.027V256.365z M359.831,187.358h-9.027v-7.412h9.027V187.358z"/>
				<g>
					<rect x="308.285" y="133.941" style="fill:#FFFFFF;" width="9.028" height="7.412"/>
					<rect x="336.631" y="133.941" style="fill:#FFFFFF;" width="9.028" height="7.412"/>
					<rect x="350.804" y="133.941" style="fill:#FFFFFF;" width="9.027" height="7.412"/>
					<rect x="322.458" y="156.943" style="fill:#FFFFFF;" width="9.027" height="7.412"/>
					<rect x="336.631" y="156.943" style="fill:#FFFFFF;" width="9.028" height="7.412"/>
					<rect x="350.804" y="156.943" style="fill:#FFFFFF;" width="9.027" height="7.412"/>
					<rect x="308.285" y="179.946" style="fill:#FFFFFF;" width="9.028" height="7.412"/>
					<rect x="322.458" y="179.946" style="fill:#FFFFFF;" width="9.027" height="7.412"/>
					<rect x="308.285" y="202.948" style="fill:#FFFFFF;" width="9.028" height="7.412"/>
					<rect x="350.804" y="202.948" style="fill:#FFFFFF;" width="9.027" height="7.412"/>
					<rect x="322.458" y="225.951" style="fill:#FFFFFF;" width="9.027" height="7.412"/>
					<rect x="336.631" y="225.951" style="fill:#FFFFFF;" width="9.028" height="7.412"/>
					<rect x="350.804" y="225.951" style="fill:#FFFFFF;" width="9.027" height="7.412"/>
					<rect x="322.458" y="248.953" style="fill:#FFFFFF;" width="9.027" height="7.412"/>
					<rect x="336.631" y="248.953" style="fill:#FFFFFF;" width="9.028" height="7.412"/>
					<rect x="308.285" y="271.955" style="fill:#FFFFFF;" width="9.028" height="7.412"/>
					<rect x="322.458" y="271.955" style="fill:#FFFFFF;" width="9.027" height="7.412"/>
					<rect x="336.631" y="294.958" style="fill:#FFFFFF;" width="9.028" height="7.412"/>
					<rect x="350.804" y="294.958" style="fill:#FFFFFF;" width="9.027" height="7.412"/>
					<rect x="308.285" y="317.96" style="fill:#FFFFFF;" width="9.028" height="7.412"/>
					<rect x="322.458" y="317.96" style="fill:#FFFFFF;" width="9.027" height="7.412"/>
					<rect x="336.631" y="317.96" style="fill:#FFFFFF;" width="9.028" height="7.412"/>
					<rect x="308.285" y="340.962" style="fill:#FFFFFF;" width="9.028" height="7.412"/>
					<rect x="336.631" y="340.962" style="fill:#FFFFFF;" width="9.028" height="7.412"/>
					<rect x="350.804" y="340.962" style="fill:#FFFFFF;" width="9.027" height="7.412"/>
					<rect x="308.285" y="363.965" style="fill:#FFFFFF;" width="9.028" height="7.412"/>
					<rect x="322.458" y="363.965" style="fill:#FFFFFF;" width="9.027" height="7.412"/>
					<rect x="336.631" y="363.965" style="fill:#FFFFFF;" width="9.028" height="7.412"/>
					<rect x="308.285" y="386.967" style="fill:#FFFFFF;" width="9.028" height="7.412"/>
					<rect x="336.631" y="386.967" style="fill:#FFFFFF;" width="9.028" height="7.412"/>
					<rect x="350.804" y="386.967" style="fill:#FFFFFF;" width="9.027" height="7.412"/>
					<rect x="336.631" y="409.97" style="fill:#FFFFFF;" width="9.028" height="7.412"/>
					<rect x="350.804" y="409.97" style="fill:#FFFFFF;" width="9.027" height="7.412"/>
					<rect x="308.285" y="432.972" style="fill:#FFFFFF;" width="9.028" height="7.412"/>
					<rect x="322.458" y="432.972" style="fill:#FFFFFF;" width="9.027" height="7.412"/>
					<rect x="336.631" y="432.972" style="fill:#FFFFFF;" width="9.028" height="7.412"/>
					<rect x="308.285" y="455.974" style="fill:#FFFFFF;" width="9.028" height="7.412"/>
					<rect x="336.631" y="455.974" style="fill:#FFFFFF;" width="9.028" height="7.412"/>
					<rect x="308.285" y="478.977" style="fill:#FFFFFF;" width="9.028" height="7.412"/>
					<rect x="322.458" y="478.977" style="fill:#FFFFFF;" width="9.027" height="7.412"/>
					<rect x="350.804" y="478.977" style="fill:#FFFFFF;" width="9.027" height="7.412"/>
				</g>
			</g>
			<g>
				<path style="fill:#EFC6FF;" d="M421.817,143.471v379.354h76.588V175.235L421.817,143.471z M455.096,483.505h-24.47v-6.447h24.47
					V483.505z M455.096,449.091h-24.47v-6.447h24.47V449.091z M455.096,414.677h-24.47v-6.447h24.47V414.677z M455.096,345.85
					h-24.47v-6.447h24.47V345.85z M455.096,311.436h-24.47v-6.447h24.47V311.436z M455.096,277.022h-24.47v-6.447h24.47V277.022z
					 M455.096,208.195h-24.47v-6.447h24.47V208.195z M491.284,483.505h-24.471v-6.447h24.471V483.505z M491.284,449.091h-24.471
					v-6.447h24.471V449.091z M491.284,363.057h-24.471v-6.447h24.471V363.057z M491.284,294.229h-24.471v-6.447h24.471V294.229z
					 M491.284,242.609h-24.471v-6.447h24.471V242.609z M491.284,225.402h-24.471v-6.447h24.471V225.402z M491.284,190.988h-24.471
					v-6.447h24.471V190.988z"/>
				<rect x="430.625" y="184.541" style="fill:#FFFFFF;" width="24.471" height="6.447"/>
				<rect x="430.625" y="168.306" style="fill:#FFFFFF;" width="24.471" height="6.447"/>
				<rect x="466.813" y="201.748" style="fill:#FFFFFF;" width="24.471" height="6.447"/>
				<rect x="430.625" y="218.955" style="fill:#FFFFFF;" width="24.471" height="6.447"/>
				<rect x="430.625" y="236.162" style="fill:#FFFFFF;" width="24.471" height="6.447"/>
				<rect x="430.625" y="253.369" style="fill:#FFFFFF;" width="24.471" height="6.447"/>
				<rect x="466.813" y="253.369" style="fill:#FFFFFF;" width="24.471" height="6.447"/>
				<rect x="466.813" y="270.575" style="fill:#FFFFFF;" width="24.471" height="6.447"/>
				<rect x="430.625" y="287.782" style="fill:#FFFFFF;" width="24.471" height="6.447"/>
				<rect x="466.813" y="304.989" style="fill:#FFFFFF;" width="24.471" height="6.447"/>
				<rect x="430.625" y="322.196" style="fill:#FFFFFF;" width="24.471" height="6.447"/>
				<rect x="466.813" y="322.196" style="fill:#FFFFFF;" width="24.471" height="6.447"/>
				<rect x="466.813" y="339.403" style="fill:#FFFFFF;" width="24.471" height="6.447"/>
				<rect x="430.625" y="356.61" style="fill:#FFFFFF;" width="24.471" height="6.447"/>
				<rect x="430.625" y="373.817" style="fill:#FFFFFF;" width="24.471" height="6.447"/>
				<rect x="466.813" y="373.817" style="fill:#FFFFFF;" width="24.471" height="6.447"/>
				<rect x="430.625" y="391.024" style="fill:#FFFFFF;" width="24.471" height="6.447"/>
				<rect x="466.813" y="391.024" style="fill:#FFFFFF;" width="24.471" height="6.447"/>
				<rect x="466.813" y="408.23" style="fill:#FFFFFF;" width="24.471" height="6.447"/>
				<rect x="430.625" y="425.437" style="fill:#FFFFFF;" width="24.471" height="6.447"/>
				<rect x="466.813" y="425.437" style="fill:#FFFFFF;" width="24.471" height="6.447"/>
				<rect x="430.625" y="459.851" style="fill:#FFFFFF;" width="24.471" height="6.447"/>
				<rect x="466.813" y="459.851" style="fill:#FFFFFF;" width="24.471" height="6.447"/>
			</g>
			<rect x="385.79" y="143.471" style="fill:#CCA4DB;" width="36.027" height="379.353"/>
			<rect x="370.415" y="199.3" style="fill:#EFC6FF;" width="51.402" height="22.121"/>
			<rect x="618.294" y="80.647" style="fill:#CCA4DB;" width="27.485" height="435.702"/>
			<rect x="655.086" y="124.987" style="fill:#EFC6FF;" width="59.688" height="420.264"/>
			<rect x="714.774" y="124.987" style="fill:#CCA4DB;" width="29.844" height="420.264"/>
			<g>
				<path style="fill:#EFC6FF;" d="M538.656,80.647v435.702h79.638V80.647H538.656z M561.035,471h-7.923v-13.412h7.923V471z
					 M561.035,419.47h-7.923v-13.412h7.923V419.47z M561.035,342.176h-7.923v-13.412h7.923V342.176z M561.035,290.647h-7.923
					v-13.412h7.923V290.647z M561.035,213.353h-7.923v-13.412h7.923V213.353z M561.035,136.059h-7.923v-13.412h7.923V136.059z
					 M575.303,471h-7.923v-13.412h7.923V471z M575.303,445.235h-7.923v-13.412h7.923V445.235z M575.303,367.941h-7.923v-13.412
					h7.923V367.941z M575.303,290.647h-7.923v-13.412h7.923V290.647z M575.303,264.882h-7.923v-13.412h7.923V264.882z
					 M575.303,187.588h-7.923v-13.412h7.923V187.588z M575.303,136.059h-7.923v-13.412h7.923V136.059z M589.571,496.765h-7.923
					v-13.412h7.923V496.765z M589.571,393.706h-7.923v-13.412h7.923V393.706z M589.571,342.176h-7.923v-13.412h7.923V342.176z
					 M589.571,316.412h-7.923V303h7.923V316.412z M589.571,239.118h-7.923v-13.412h7.923V239.118z M589.571,110.294h-7.923V96.882
					h7.923V110.294z M603.839,445.235h-7.923v-13.412h7.923V445.235z M603.839,419.47h-7.923v-13.412h7.923V419.47z
					 M603.839,316.412h-7.923V303h7.923V316.412z M603.839,187.588h-7.923v-13.412h7.923V187.588z M603.839,161.824h-7.923v-13.412
					h7.923V161.824z"/>
				<rect x="553.112" y="96.882" style="fill:#FFFFFF;" width="7.923" height="13.412"/>
				<rect x="567.38" y="96.882" style="fill:#FFFFFF;" width="7.923" height="13.412"/>
				<rect x="595.916" y="96.882" style="fill:#FFFFFF;" width="7.923" height="13.412"/>
				<rect x="581.648" y="122.647" style="fill:#FFFFFF;" width="7.923" height="13.412"/>
				<rect x="595.916" y="122.647" style="fill:#FFFFFF;" width="7.923" height="13.412"/>
				<rect x="553.112" y="148.412" style="fill:#FFFFFF;" width="7.923" height="13.412"/>
				<rect x="567.38" y="148.412" style="fill:#FFFFFF;" width="7.923" height="13.412"/>
				<rect x="581.648" y="148.412" style="fill:#FFFFFF;" width="7.923" height="13.412"/>
				<rect x="553.112" y="174.176" style="fill:#FFFFFF;" width="7.923" height="13.412"/>
				<rect x="581.648" y="174.176" style="fill:#FFFFFF;" width="7.923" height="13.412"/>
				<rect x="567.38" y="199.941" style="fill:#FFFFFF;" width="7.923" height="13.412"/>
				<rect x="581.648" y="199.941" style="fill:#FFFFFF;" width="7.923" height="13.412"/>
				<rect x="595.916" y="199.941" style="fill:#FFFFFF;" width="7.923" height="13.412"/>
				<rect x="553.112" y="225.706" style="fill:#FFFFFF;" width="7.923" height="13.412"/>
				<rect x="567.38" y="225.706" style="fill:#FFFFFF;" width="7.923" height="13.412"/>
				<rect x="595.916" y="225.706" style="fill:#FFFFFF;" width="7.923" height="13.412"/>
				<rect x="553.112" y="251.471" style="fill:#FFFFFF;" width="7.923" height="13.412"/>
				<rect x="581.648" y="251.471" style="fill:#FFFFFF;" width="7.923" height="13.412"/>
				<rect x="595.916" y="251.471" style="fill:#FFFFFF;" width="7.923" height="13.412"/>
				<rect x="581.648" y="277.235" style="fill:#FFFFFF;" width="7.923" height="13.412"/>
				<rect x="595.916" y="277.235" style="fill:#FFFFFF;" width="7.923" height="13.412"/>
				<rect x="553.112" y="303" style="fill:#FFFFFF;" width="7.923" height="13.412"/>
				<rect x="567.38" y="303" style="fill:#FFFFFF;" width="7.923" height="13.412"/>
				<rect x="567.38" y="328.765" style="fill:#FFFFFF;" width="7.923" height="13.412"/>
				<rect x="595.916" y="328.765" style="fill:#FFFFFF;" width="7.923" height="13.412"/>
				<rect x="553.112" y="354.529" style="fill:#FFFFFF;" width="7.923" height="13.412"/>
				<rect x="581.648" y="354.529" style="fill:#FFFFFF;" width="7.923" height="13.412"/>
				<rect x="595.916" y="354.529" style="fill:#FFFFFF;" width="7.923" height="13.412"/>
				<rect x="553.112" y="380.294" style="fill:#FFFFFF;" width="7.923" height="13.412"/>
				<rect x="567.38" y="380.294" style="fill:#FFFFFF;" width="7.923" height="13.412"/>
				<rect x="595.916" y="380.294" style="fill:#FFFFFF;" width="7.923" height="13.412"/>
				<rect x="567.38" y="406.059" style="fill:#FFFFFF;" width="7.923" height="13.412"/>
				<rect x="581.648" y="406.059" style="fill:#FFFFFF;" width="7.923" height="13.412"/>
				<rect x="553.112" y="431.823" style="fill:#FFFFFF;" width="7.923" height="13.412"/>
				<rect x="581.648" y="431.823" style="fill:#FFFFFF;" width="7.923" height="13.412"/>
				<rect x="581.648" y="457.588" style="fill:#FFFFFF;" width="7.923" height="13.412"/>
				<rect x="595.916" y="457.588" style="fill:#FFFFFF;" width="7.923" height="13.412"/>
				<rect x="553.112" y="483.353" style="fill:#FFFFFF;" width="7.923" height="13.412"/>
				<rect x="567.38" y="483.353" style="fill:#FFFFFF;" width="7.923" height="13.412"/>
				<rect x="595.916" y="483.353" style="fill:#FFFFFF;" width="7.923" height="13.412"/>
			</g>
			<rect x="249.705" y="80.647" style="fill:#CCA4DB;" width="16.497" height="435.702"/>
			<g>
				<path style="fill:#EFC6FF;" d="M190.585,80.647v435.702h59.12V80.647H190.585z M207.198,471h-5.882v-13.412h5.882V471z
					 M207.198,419.47h-5.882v-13.412h5.882V419.47z M207.198,342.176h-5.882v-13.412h5.882V342.176z M207.198,290.647h-5.882
					v-13.412h5.882V290.647z M207.198,213.353h-5.882v-13.412h5.882V213.353z M207.198,136.059h-5.882v-13.412h5.882V136.059z
					 M217.79,471h-5.882v-13.412h5.882V471z M217.79,445.235h-5.882v-13.412h5.882V445.235z M217.79,367.941h-5.882v-13.412h5.882
					V367.941z M217.79,290.647h-5.882v-13.412h5.882V290.647z M217.79,264.882h-5.882v-13.412h5.882V264.882z M217.79,187.588
					h-5.882v-13.412h5.882V187.588z M217.79,136.059h-5.882v-13.412h5.882V136.059z M228.382,496.765H222.5v-13.412h5.882V496.765z
					 M228.382,393.706H222.5v-13.412h5.882V393.706z M228.382,342.176H222.5v-13.412h5.882V342.176z M228.382,316.412H222.5V303
					h5.882V316.412z M228.382,239.118H222.5v-13.412h5.882V239.118z M228.382,110.294H222.5V96.882h5.882V110.294z M238.974,445.235
					h-5.882v-13.412h5.882V445.235z M238.974,419.47h-5.882v-13.412h5.882V419.47z M238.974,316.412h-5.882V303h5.882V316.412z
					 M238.974,187.588h-5.882v-13.412h5.882V187.588z M238.974,161.824h-5.882v-13.412h5.882V161.824z"/>
				<rect x="201.316" y="96.882" style="fill:#FFFFFF;" width="5.882" height="13.412"/>
				<rect x="211.908" y="96.882" style="fill:#FFFFFF;" width="5.882" height="13.412"/>
				<rect x="233.092" y="96.882" style="fill:#FFFFFF;" width="5.882" height="13.412"/>
				<rect x="222.5" y="122.647" style="fill:#FFFFFF;" width="5.882" height="13.412"/>
				<rect x="233.092" y="122.647" style="fill:#FFFFFF;" width="5.882" height="13.412"/>
				<rect x="201.316" y="148.412" style="fill:#FFFFFF;" width="5.882" height="13.412"/>
				<rect x="211.908" y="148.412" style="fill:#FFFFFF;" width="5.882" height="13.412"/>
				<rect x="222.5" y="148.412" style="fill:#FFFFFF;" width="5.882" height="13.412"/>
				<rect x="201.316" y="174.176" style="fill:#FFFFFF;" width="5.882" height="13.412"/>
				<rect x="222.5" y="174.176" style="fill:#FFFFFF;" width="5.882" height="13.412"/>
				<rect x="211.908" y="199.941" style="fill:#FFFFFF;" width="5.882" height="13.412"/>
				<rect x="222.5" y="199.941" style="fill:#FFFFFF;" width="5.882" height="13.412"/>
				<rect x="233.092" y="199.941" style="fill:#FFFFFF;" width="5.882" height="13.412"/>
				<rect x="201.316" y="225.706" style="fill:#FFFFFF;" width="5.882" height="13.412"/>
				<rect x="211.908" y="225.706" style="fill:#FFFFFF;" width="5.882" height="13.412"/>
				<rect x="233.092" y="225.706" style="fill:#FFFFFF;" width="5.882" height="13.412"/>
				<rect x="201.316" y="251.471" style="fill:#FFFFFF;" width="5.882" height="13.412"/>
				<rect x="222.5" y="251.471" style="fill:#FFFFFF;" width="5.882" height="13.412"/>
				<rect x="233.092" y="251.471" style="fill:#FFFFFF;" width="5.882" height="13.412"/>
				<rect x="222.5" y="277.235" style="fill:#FFFFFF;" width="5.882" height="13.412"/>
				<rect x="233.092" y="277.235" style="fill:#FFFFFF;" width="5.882" height="13.412"/>
				<rect x="201.316" y="303" style="fill:#FFFFFF;" width="5.882" height="13.412"/>
				<rect x="211.908" y="303" style="fill:#FFFFFF;" width="5.882" height="13.412"/>
				<rect x="211.908" y="328.765" style="fill:#FFFFFF;" width="5.882" height="13.412"/>
				<rect x="233.092" y="328.765" style="fill:#FFFFFF;" width="5.882" height="13.412"/>
				<rect x="201.316" y="354.529" style="fill:#FFFFFF;" width="5.882" height="13.412"/>
				<rect x="222.5" y="354.529" style="fill:#FFFFFF;" width="5.882" height="13.412"/>
				<rect x="233.092" y="354.529" style="fill:#FFFFFF;" width="5.882" height="13.412"/>
				<rect x="201.316" y="380.294" style="fill:#FFFFFF;" width="5.882" height="13.412"/>
				<rect x="211.908" y="380.294" style="fill:#FFFFFF;" width="5.882" height="13.412"/>
				<rect x="233.092" y="380.294" style="fill:#FFFFFF;" width="5.882" height="13.412"/>
				<rect x="211.908" y="406.059" style="fill:#FFFFFF;" width="5.882" height="13.412"/>
				<rect x="222.5" y="406.059" style="fill:#FFFFFF;" width="5.882" height="13.412"/>
				<rect x="201.316" y="431.823" style="fill:#FFFFFF;" width="5.882" height="13.412"/>
				<rect x="222.5" y="431.823" style="fill:#FFFFFF;" width="5.882" height="13.412"/>
				<rect x="222.5" y="457.588" style="fill:#FFFFFF;" width="5.882" height="13.412"/>
				<rect x="233.092" y="457.588" style="fill:#FFFFFF;" width="5.882" height="13.412"/>
				<rect x="201.316" y="483.353" style="fill:#FFFFFF;" width="5.882" height="13.412"/>
				<rect x="211.908" y="483.353" style="fill:#FFFFFF;" width="5.882" height="13.412"/>
				<rect x="233.092" y="483.353" style="fill:#FFFFFF;" width="5.882" height="13.412"/>
			</g>
			<rect x="631.813" y="149.529" style="fill:#75649E;" width="43.588" height="358.305"/>
			<g>
				<path style="fill:#937EC7;" d="M665.53,149.529v358.305h89.859V149.529H665.53z M692.488,488.355h-15.116v-15.117h15.116
					V488.355z M692.488,427.06h-15.116v-15.116h15.116V427.06z M692.488,365.766h-15.116V350.65h15.116V365.766z M692.488,304.471
					h-15.116v-15.116h15.116V304.471z M692.488,243.177h-15.116V228.06h15.116V243.177z M721.525,427.06h-15.117v-15.116h15.117
					V427.06z M721.525,335.119h-15.117v-15.116h15.117V335.119z M721.525,243.177h-15.117V228.06h15.117V243.177z M721.525,181.882
					h-15.117v-15.116h15.117V181.882z M750.562,457.708h-15.117v-15.116h15.117V457.708z M750.562,396.413h-15.117v-15.116h15.117
					V396.413z M750.562,304.471h-15.117v-15.116h15.117V304.471z M750.562,273.824h-15.117v-15.116h15.117V273.824z M750.562,212.53
					h-15.117v-15.117h15.117V212.53z"/>
				<rect x="677.372" y="166.766" style="fill:#F2E6C1;" width="15.116" height="15.116"/>
				<rect x="735.445" y="166.766" style="fill:#F2E6C1;" width="15.116" height="15.116"/>
				<rect x="677.372" y="197.413" style="fill:#F2E6C1;" width="15.116" height="15.116"/>
				<rect x="706.408" y="197.413" style="fill:#F2E6C1;" width="15.116" height="15.116"/>
				<rect x="735.445" y="228.061" style="fill:#F2E6C1;" width="15.116" height="15.116"/>
				<rect x="677.372" y="258.708" style="fill:#F2E6C1;" width="15.116" height="15.116"/>
				<rect x="706.408" y="258.708" style="fill:#F2E6C1;" width="15.116" height="15.116"/>
				<rect x="706.408" y="289.355" style="fill:#F2E6C1;" width="15.116" height="15.116"/>
				<rect x="677.372" y="320.002" style="fill:#F2E6C1;" width="15.116" height="15.116"/>
				<rect x="735.445" y="320.002" style="fill:#F2E6C1;" width="15.116" height="15.116"/>
				<rect x="706.408" y="350.65" style="fill:#F2E6C1;" width="15.116" height="15.116"/>
				<rect x="735.445" y="350.65" style="fill:#F2E6C1;" width="15.116" height="15.116"/>
				<rect x="677.372" y="381.297" style="fill:#F2E6C1;" width="15.116" height="15.116"/>
				<rect x="706.408" y="381.297" style="fill:#F2E6C1;" width="15.116" height="15.116"/>
				<rect x="735.445" y="411.944" style="fill:#F2E6C1;" width="15.116" height="15.116"/>
				<rect x="677.372" y="442.591" style="fill:#F2E6C1;" width="15.116" height="15.116"/>
				<rect x="706.408" y="442.591" style="fill:#F2E6C1;" width="15.116" height="15.116"/>
				<rect x="706.408" y="473.239" style="fill:#F2E6C1;" width="15.116" height="15.116"/>
				<rect x="735.445" y="473.239" style="fill:#F2E6C1;" width="15.116" height="15.116"/>
			</g>
			<rect x="395.579" y="257.813" style="fill:#937EC7;" width="65.376" height="16.159"/>
			<g>
				<rect x="292.408" y="190.988" style="fill:#75649E;" width="22.084" height="331.836"/>
				<path style="fill:#937EC7;" d="M314.492,190.988v331.836h83.196V190.988H314.492z M332.402,450.826h-5.745v-11.671h5.745
					V450.826z M332.402,427.036h-5.745v-11.671h5.745V427.036z M332.402,403.246h-5.745v-11.671h5.745V403.246z M332.402,379.456
					h-5.745v-11.671h5.745V379.456z M332.402,331.876h-5.745v-11.671h5.745V331.876z M332.402,308.086h-5.745v-11.671h5.745V308.086
					z M332.402,260.506h-5.745v-11.671h5.745V260.506z M332.402,236.716h-5.745v-11.671h5.745V236.716z M350.198,403.246h-5.745
					v-11.671h5.745V403.246z M350.198,331.876h-5.745v-11.671h5.745V331.876z M367.994,379.456h-5.746v-11.671h5.746V379.456z
					 M367.994,308.086h-5.746v-11.671h5.746V308.086z M367.994,212.926h-5.746v-11.671h5.746V212.926z M385.79,474.616h-5.745
					v-11.671h5.745V474.616z M385.79,427.036h-5.745v-11.671h5.745V427.036z M385.79,403.246h-5.745v-11.671h5.745V403.246z
					 M385.79,379.456h-5.745v-11.671h5.745V379.456z M385.79,355.666h-5.745v-11.67h5.745V355.666z M385.79,284.296h-5.745v-11.671
					h5.745V284.296z M385.79,260.506h-5.745v-11.671h5.745V260.506z M385.79,212.926h-5.745v-11.671h5.745V212.926z"/>
				<rect x="306.477" y="179.946" style="fill:#75649E;" width="27.581" height="11.042"/>
				<rect x="326.477" y="179.946" style="fill:#937EC7;" width="27.581" height="11.042"/>
				<g>
					<rect x="326.657" y="201.256" style="fill:#F2E6C1;" width="5.746" height="11.671"/>
					<rect x="344.453" y="201.256" style="fill:#F2E6C1;" width="5.746" height="11.671"/>
					<rect x="344.453" y="225.046" style="fill:#F2E6C1;" width="5.746" height="11.67"/>
					<rect x="362.249" y="225.046" style="fill:#F2E6C1;" width="5.746" height="11.67"/>
					<rect x="380.045" y="225.046" style="fill:#F2E6C1;" width="5.746" height="11.67"/>
					<rect x="344.453" y="248.836" style="fill:#F2E6C1;" width="5.746" height="11.67"/>
					<rect x="362.249" y="248.836" style="fill:#F2E6C1;" width="5.746" height="11.67"/>
					<rect x="326.657" y="272.626" style="fill:#F2E6C1;" width="5.746" height="11.671"/>
					<rect x="344.453" y="272.626" style="fill:#F2E6C1;" width="5.746" height="11.671"/>
					<rect x="362.249" y="272.626" style="fill:#F2E6C1;" width="5.746" height="11.671"/>
					<rect x="344.453" y="296.416" style="fill:#F2E6C1;" width="5.746" height="11.67"/>
					<rect x="380.045" y="296.416" style="fill:#F2E6C1;" width="5.746" height="11.67"/>
					<rect x="362.249" y="320.206" style="fill:#F2E6C1;" width="5.746" height="11.671"/>
					<rect x="380.045" y="320.206" style="fill:#F2E6C1;" width="5.746" height="11.671"/>
					<rect x="326.657" y="343.996" style="fill:#F2E6C1;" width="5.746" height="11.67"/>
					<rect x="344.453" y="343.996" style="fill:#F2E6C1;" width="5.746" height="11.67"/>
					<rect x="362.249" y="343.996" style="fill:#F2E6C1;" width="5.746" height="11.67"/>
					<rect x="344.453" y="367.785" style="fill:#F2E6C1;" width="5.746" height="11.671"/>
					<rect x="362.249" y="391.575" style="fill:#F2E6C1;" width="5.746" height="11.671"/>
					<rect x="344.453" y="415.365" style="fill:#F2E6C1;" width="5.746" height="11.67"/>
					<rect x="362.249" y="415.365" style="fill:#F2E6C1;" width="5.746" height="11.67"/>
					<rect x="344.453" y="439.155" style="fill:#F2E6C1;" width="5.746" height="11.671"/>
					<rect x="362.249" y="439.155" style="fill:#F2E6C1;" width="5.746" height="11.671"/>
					<rect x="380.045" y="439.155" style="fill:#F2E6C1;" width="5.746" height="11.671"/>
					<rect x="326.657" y="462.945" style="fill:#F2E6C1;" width="5.746" height="11.67"/>
					<rect x="344.453" y="462.945" style="fill:#F2E6C1;" width="5.746" height="11.67"/>
					<rect x="362.249" y="462.945" style="fill:#F2E6C1;" width="5.746" height="11.67"/>
				</g>
			</g>
			<g>
				<rect x="535.854" y="190.988" style="fill:#75649E;" width="22.238" height="324.323"/>
				<path style="fill:#937EC7;" d="M460.954,216.876v305.948h74.9V190.988L460.954,216.876z M492.659,439.155h-21.905v-5.386h21.905
					V439.155z M492.659,421.201h-21.905v-5.386h21.905V421.201z M492.659,385.291h-21.905v-5.386h21.905V385.291z M492.659,349.382
					h-21.905v-5.387h21.905V349.382z M492.659,331.427h-21.905v-5.386h21.905V331.427z M492.659,279.359h-21.905v-5.386h21.905
					V279.359z M492.659,247.04h-21.905v-5.386h21.905V247.04z M526.055,457.11H504.15v-5.386h21.905V457.11z M526.055,421.201
					H504.15v-5.386h21.905V421.201z M526.055,385.291H504.15v-5.386h21.905V385.291z M526.055,367.337H504.15v-5.387h21.905V367.337
					z M526.055,313.473H504.15v-5.386h21.905V313.473z M526.055,263.199H504.15v-5.386h21.905V263.199z"/>
				<g>
					<rect x="504.15" y="208.438" style="fill:#FFD1C9;" width="21.905" height="5.386"/>
					<rect x="470.754" y="225.495" style="fill:#FFD1C9;" width="21.905" height="5.386"/>
					<rect x="504.15" y="225.495" style="fill:#FFD1C9;" width="21.905" height="5.386"/>
					<rect x="504.15" y="241.654" style="fill:#FFD1C9;" width="21.905" height="5.386"/>
					<rect x="470.754" y="257.813" style="fill:#FFD1C9;" width="21.905" height="5.386"/>
					<rect x="504.15" y="273.972" style="fill:#FFD1C9;" width="21.905" height="5.386"/>
					<rect x="470.754" y="290.131" style="fill:#FFD1C9;" width="21.905" height="5.386"/>
					<rect x="504.15" y="290.131" style="fill:#FFD1C9;" width="21.905" height="5.386"/>
					<rect x="470.754" y="308.086" style="fill:#FFD1C9;" width="21.905" height="5.386"/>
					<rect x="504.15" y="326.041" style="fill:#FFD1C9;" width="21.905" height="5.386"/>
					<rect x="504.15" y="343.996" style="fill:#FFD1C9;" width="21.905" height="5.386"/>
					<rect x="470.754" y="361.95" style="fill:#FFD1C9;" width="21.905" height="5.386"/>
					<rect x="470.754" y="397.859" style="fill:#FFD1C9;" width="21.905" height="5.386"/>
					<rect x="504.15" y="397.859" style="fill:#FFD1C9;" width="21.905" height="5.386"/>
					<rect x="504.15" y="433.769" style="fill:#FFD1C9;" width="21.905" height="5.386"/>
					<rect x="470.754" y="451.724" style="fill:#FFD1C9;" width="21.905" height="5.386"/>
				</g>
			</g>
			<g>
				<rect x="166.011" y="189.158" style="fill:#75649E;" width="11.662" height="333.666"/>
				<rect x="246.718" y="189.158" style="fill:#75649E;" width="11.662" height="333.666"/>
				<path style="fill:#937EC7;" d="M145.68,184.541c0,0,12.173,5.563,31.993,9.233v308.778h69.231v-308.68
					c21.586-3.669,36.216-9.331,36.216-9.331H145.68z M194.919,413.587h-8.668v-26.753h8.668V413.587z M194.919,301.28h-8.668
					v-26.753h8.668V301.28z M194.919,263.845h-8.668v-26.753h8.668V263.845z M194.919,226.409h-8.668v-26.753h8.668V226.409z
					 M217.117,376.151h-8.668v-26.753h8.668V376.151z M217.117,263.845h-8.668v-26.753h8.668V263.845z M239.316,413.587h-8.668
					v-26.753h8.668V413.587z M239.316,338.716h-8.668v-26.752h8.668V338.716z M239.316,226.409h-8.668v-26.753h8.668V226.409z"/>
				<path style="fill:#937EC7;" d="M145.68,161.918v22.623h137.44v-22.623H145.68z M173.068,178.616h-6.131v-11.85h6.131V178.616z
					 M217.465,178.616h-6.131v-11.85h6.131V178.616z M261.862,178.616h-6.131v-11.85h6.131V178.616z"/>
				<path style="fill:#937EC7;" d="M145.68,161.918c0,0,32.001-12.389,71.187-12.389s66.253,12.389,66.253,12.389H145.68z"/>
				<rect x="152.138" y="166.766" style="fill:#F2E6C1;" width="6.131" height="11.85"/>
				<rect x="181.736" y="166.766" style="fill:#F2E6C1;" width="6.131" height="11.85"/>
				<rect x="196.535" y="166.766" style="fill:#F2E6C1;" width="6.131" height="11.85"/>
				<rect x="226.133" y="166.766" style="fill:#F2E6C1;" width="6.131" height="11.85"/>
				<rect x="240.932" y="166.766" style="fill:#F2E6C1;" width="6.131" height="11.85"/>
				<rect x="270.53" y="166.766" style="fill:#F2E6C1;" width="6.131" height="11.85"/>
				<rect x="208.449" y="199.656" style="fill:#F2E6C1;" width="8.668" height="26.753"/>
				<rect x="230.648" y="237.092" style="fill:#F2E6C1;" width="8.668" height="26.752"/>
				<rect x="208.449" y="274.528" style="fill:#F2E6C1;" width="8.668" height="26.753"/>
				<rect x="230.648" y="274.528" style="fill:#F2E6C1;" width="8.668" height="26.753"/>
				<rect x="186.251" y="311.963" style="fill:#F2E6C1;" width="8.668" height="26.753"/>
				<rect x="208.449" y="311.963" style="fill:#F2E6C1;" width="8.668" height="26.753"/>
				<rect x="186.251" y="349.399" style="fill:#F2E6C1;" width="8.668" height="26.753"/>
				<rect x="230.648" y="349.399" style="fill:#F2E6C1;" width="8.668" height="26.753"/>
				<rect x="208.449" y="386.834" style="fill:#F2E6C1;" width="8.668" height="26.753"/>
				<path style="fill:#553F8A;" d="M246.904,193.774h0.558c21.278-3.67,35.658-9.233,35.658-9.233H145.68
					c0,0,12.173,5.563,31.993,9.233H246.904z"/>
			</g>
			<g>
				<path style="fill:#937EC7;" d="M-0.119,201.256v306.578h60.86V201.256H-0.119z M23.755,211.849h13.112v5.386H23.755V211.849z
					 M23.755,259.967h13.112v5.387H23.755V259.967z M23.755,296.056h13.112v5.386H23.755V296.056z M23.755,308.086h13.112v5.386
					H23.755V308.086z M19.603,490.121H6.491v-5.386h13.112V490.121z M19.603,438.709H6.491v-5.386h13.112V438.709z M19.603,413.003
					H6.491v-5.386h13.112V413.003z M19.603,374.444H6.491v-5.386h13.112V374.444z M19.603,349.561H6.491v-5.387h13.112V349.561z
					 M19.603,325.502H6.491v-5.387h13.112V325.502z M19.603,277.384H6.491v-5.386h13.112V277.384z M19.603,253.324H6.491v-5.386
					h13.112V253.324z M19.603,229.265H6.491v-5.386h13.112V229.265z M23.755,356.205h13.112v5.386H23.755V356.205z M37.025,490.121
					H23.912v-5.386h13.112V490.121z M37.025,464.415H23.912v-5.386h13.112V464.415z M37.025,438.709H23.912v-5.386h13.112V438.709z
					 M37.025,400.15H23.912v-5.386h13.112V400.15z M37.025,387.297H23.912v-5.387h13.112V387.297z M54.132,477.268H41.02v-5.386
					h13.112V477.268z M54.132,451.562H41.02v-5.387h13.112V451.562z M54.132,400.15H41.02v-5.386h13.112V400.15z M54.132,374.444
					H41.02v-5.386h13.112V374.444z M54.132,349.561H41.02v-5.387h13.112V349.561z M54.132,337.532H41.02v-5.386h13.112V337.532z
					 M54.132,313.473H41.02v-5.386h13.112V313.473z M54.132,289.413H41.02v-5.386h13.112V289.413z M54.132,265.354H41.02v-5.387
					h13.112V265.354z M54.132,241.295H41.02v-5.386h13.112V241.295z M54.132,229.265H41.02v-5.386h13.112V229.265z"/>
				<rect x="6.491" y="211.849" style="fill:#FFF7DF;" width="13.112" height="5.386"/>
				<rect x="41.02" y="211.849" style="fill:#FFF7DF;" width="13.112" height="5.386"/>
				<rect x="23.755" y="223.879" style="fill:#FFF7DF;" width="13.112" height="5.386"/>
				<rect x="6.491" y="235.908" style="fill:#FFF7DF;" width="13.112" height="5.386"/>
				<rect x="23.755" y="235.908" style="fill:#FFF7DF;" width="13.112" height="5.386"/>
				<rect x="23.755" y="247.938" style="fill:#FFF7DF;" width="13.112" height="5.386"/>
				<rect x="41.02" y="247.938" style="fill:#FFF7DF;" width="13.112" height="5.386"/>
				<rect x="6.491" y="259.968" style="fill:#FFF7DF;" width="13.112" height="5.386"/>
				<rect x="23.755" y="271.997" style="fill:#FFF7DF;" width="13.112" height="5.386"/>
				<rect x="41.02" y="271.997" style="fill:#FFF7DF;" width="13.112" height="5.386"/>
				<rect x="6.491" y="284.027" style="fill:#FFF7DF;" width="13.112" height="5.386"/>
				<rect x="23.755" y="284.027" style="fill:#FFF7DF;" width="13.112" height="5.386"/>
				<rect x="6.491" y="296.056" style="fill:#FFF7DF;" width="13.112" height="5.386"/>
				<rect x="41.02" y="296.056" style="fill:#FFF7DF;" width="13.112" height="5.386"/>
				<rect x="6.491" y="308.086" style="fill:#FFF7DF;" width="13.112" height="5.386"/>
				<rect x="23.755" y="320.116" style="fill:#FFF7DF;" width="13.112" height="5.386"/>
				<rect x="41.02" y="320.116" style="fill:#FFF7DF;" width="13.112" height="5.386"/>
				<rect x="6.491" y="332.145" style="fill:#FFF7DF;" width="13.112" height="5.386"/>
				<rect x="23.755" y="332.145" style="fill:#FFF7DF;" width="13.112" height="5.386"/>
				<rect x="23.755" y="344.175" style="fill:#FFF7DF;" width="13.112" height="5.386"/>
				<rect x="6.491" y="356.205" style="fill:#FFF7DF;" width="13.112" height="5.386"/>
				<rect x="41.02" y="356.205" style="fill:#FFF7DF;" width="13.112" height="5.386"/>
				<rect x="23.912" y="369.058" style="fill:#FFF7DF;" width="13.112" height="5.386"/>
				<rect x="6.491" y="381.911" style="fill:#FFF7DF;" width="13.112" height="5.386"/>
				<rect x="41.02" y="381.911" style="fill:#FFF7DF;" width="13.112" height="5.386"/>
				<rect x="6.491" y="394.764" style="fill:#FFF7DF;" width="13.112" height="5.386"/>
				<rect x="23.912" y="407.617" style="fill:#FFF7DF;" width="13.112" height="5.386"/>
				<rect x="41.02" y="407.617" style="fill:#FFF7DF;" width="13.112" height="5.386"/>
				<rect x="6.491" y="420.47" style="fill:#FFF7DF;" width="13.112" height="5.386"/>
				<rect x="23.912" y="420.47" style="fill:#FFF7DF;" width="13.112" height="5.386"/>
				<rect x="41.02" y="420.47" style="fill:#FFF7DF;" width="13.112" height="5.386"/>
				<rect x="41.02" y="433.323" style="fill:#FFF7DF;" width="13.112" height="5.386"/>
				<rect x="6.491" y="446.176" style="fill:#FFF7DF;" width="13.112" height="5.386"/>
				<rect x="23.912" y="446.176" style="fill:#FFF7DF;" width="13.112" height="5.386"/>
				<rect x="6.491" y="459.029" style="fill:#FFF7DF;" width="13.112" height="5.386"/>
				<rect x="41.02" y="459.029" style="fill:#FFF7DF;" width="13.112" height="5.386"/>
				<rect x="6.491" y="471.882" style="fill:#FFF7DF;" width="13.112" height="5.386"/>
				<rect x="23.912" y="471.882" style="fill:#FFF7DF;" width="13.112" height="5.386"/>
				<rect x="41.02" y="484.735" style="fill:#FFF7DF;" width="13.112" height="5.386"/>
			</g>
			<rect x="565.287" y="223.879" style="fill:#3C2C61;" width="37.092" height="282.96"/>
			<g>
				<path style="fill:#553F8A;" d="M602.379,223.879v282.96h115.738v-282.96H602.379z M640.238,464.292h-30.098v-10.414h30.098
					V464.292z M640.238,356.564h-30.098V346.15h30.098V356.564z M640.238,302.7h-30.098v-10.414h30.098V302.7z M675.297,464.292
					h-30.098v-10.414h30.098V464.292z M675.297,437.36h-30.098v-10.414h30.098V437.36z M675.297,410.428h-30.098v-10.414h30.098
					V410.428z M675.297,383.496h-30.098v-10.414h30.098V383.496z M675.297,302.7h-30.098v-10.414h30.098V302.7z M675.297,248.836
					h-30.098v-10.414h30.098V248.836z M710.356,410.428h-30.098v-10.414h30.098V410.428z M710.356,356.564h-30.098V346.15h30.098
					V356.564z M710.356,329.632h-30.098v-10.414h30.098V329.632z M710.356,275.768h-30.098v-10.414h30.098V275.768z"/>
				<rect x="610.141" y="238.422" style="fill:#FFD1C9;" width="30.098" height="10.414"/>
				<rect x="680.258" y="238.422" style="fill:#FFD1C9;" width="30.098" height="10.414"/>
				<rect x="610.141" y="265.354" style="fill:#FFD1C9;" width="30.098" height="10.414"/>
				<rect x="645.199" y="265.354" style="fill:#FFD1C9;" width="30.098" height="10.414"/>
				<rect x="680.258" y="292.286" style="fill:#FFD1C9;" width="30.098" height="10.414"/>
				<rect x="610.141" y="319.218" style="fill:#FFD1C9;" width="30.098" height="10.414"/>
				<rect x="645.199" y="319.218" style="fill:#FFD1C9;" width="30.098" height="10.414"/>
				<rect x="645.199" y="346.15" style="fill:#FFD1C9;" width="30.098" height="10.414"/>
				<rect x="610.141" y="373.082" style="fill:#FFD1C9;" width="30.098" height="10.414"/>
				<rect x="680.258" y="373.082" style="fill:#FFD1C9;" width="30.098" height="10.414"/>
				<rect x="610.141" y="400.014" style="fill:#FFD1C9;" width="30.098" height="10.414"/>
				<rect x="610.141" y="426.946" style="fill:#FFD1C9;" width="30.098" height="10.414"/>
				<rect x="680.258" y="426.946" style="fill:#FFD1C9;" width="30.098" height="10.414"/>
				<rect x="680.258" y="453.878" style="fill:#FFD1C9;" width="30.098" height="10.414"/>
			</g>
			<g>
				<path style="fill:#553F8A;" d="M441.023,293.722V506.71H583.32V293.722H441.023z M477.686,412.452h-19.137v-9.02h19.137V412.452
					z M477.686,346.21h-19.137v-9.02h19.137V346.21z M504.563,456.614h-19.137v-9.02h19.137V456.614z M504.563,368.29h-19.137v-9.02
					h19.137V368.29z M504.563,324.129h-19.137v-9.02h19.137V324.129z M548.274,500.776h-19.137v-9.02h19.137V500.776z
					 M548.274,390.371h-19.137v-9.02h19.137V390.371z M548.274,324.129h-19.137v-9.02h19.137V324.129z M575.151,478.695h-19.137
					v-9.02h19.137V478.695z M575.151,434.533h-19.137v-9.02h19.137V434.533z M575.151,346.21h-19.137v-9.02h19.137V346.21z"/>
				<rect x="458.549" y="315.108" style="fill:#F2E6C1;" width="19.137" height="9.02"/>
				<rect x="556.014" y="315.108" style="fill:#F2E6C1;" width="19.137" height="9.02"/>
				<rect x="485.426" y="337.189" style="fill:#F2E6C1;" width="19.137" height="9.02"/>
				<rect x="529.137" y="337.189" style="fill:#F2E6C1;" width="19.137" height="9.02"/>
				<rect x="458.549" y="359.27" style="fill:#F2E6C1;" width="19.137" height="9.02"/>
				<rect x="529.137" y="359.27" style="fill:#F2E6C1;" width="19.137" height="9.02"/>
				<rect x="556.014" y="359.27" style="fill:#F2E6C1;" width="19.137" height="9.02"/>
				<rect x="458.549" y="381.351" style="fill:#F2E6C1;" width="19.137" height="9.02"/>
				<rect x="485.426" y="381.351" style="fill:#F2E6C1;" width="19.137" height="9.02"/>
				<rect x="556.014" y="381.351" style="fill:#F2E6C1;" width="19.137" height="9.02"/>
				<rect x="485.426" y="403.432" style="fill:#F2E6C1;" width="19.137" height="9.02"/>
				<rect x="529.137" y="403.432" style="fill:#F2E6C1;" width="19.137" height="9.02"/>
				<rect x="556.014" y="403.432" style="fill:#F2E6C1;" width="19.137" height="9.02"/>
				<rect x="458.549" y="425.513" style="fill:#F2E6C1;" width="19.137" height="9.02"/>
				<rect x="485.426" y="425.513" style="fill:#F2E6C1;" width="19.137" height="9.02"/>
				<rect x="529.137" y="425.513" style="fill:#F2E6C1;" width="19.137" height="9.02"/>
				<rect x="458.549" y="447.594" style="fill:#F2E6C1;" width="19.137" height="9.02"/>
				<rect x="529.137" y="447.594" style="fill:#F2E6C1;" width="19.137" height="9.02"/>
				<rect x="556.014" y="447.594" style="fill:#F2E6C1;" width="19.137" height="9.02"/>
				<rect x="458.549" y="469.675" style="fill:#F2E6C1;" width="19.137" height="9.021"/>
				<rect x="485.426" y="469.675" style="fill:#F2E6C1;" width="19.137" height="9.021"/>
				<rect x="529.137" y="469.675" style="fill:#F2E6C1;" width="19.137" height="9.021"/>
				<rect x="458.549" y="491.755" style="fill:#F2E6C1;" width="19.137" height="9.021"/>
				<rect x="485.426" y="491.755" style="fill:#F2E6C1;" width="19.137" height="9.021"/>
				<rect x="556.014" y="491.755" style="fill:#F2E6C1;" width="19.137" height="9.021"/>
			</g>
			<g>
				<rect x="297.929" y="252.427" style="fill:#3C2C61;" width="23.162" height="270.397"/>
				<path style="fill:#553F8A;" d="M220.634,252.427V506.71h77.295V252.427H220.634z M244.2,499.483h-13.466v-20.468H244.2V499.483z
					 M244.2,406.837h-13.466v-20.468H244.2V406.837z M244.2,345.073h-13.466v-20.468H244.2V345.073z M244.2,283.309h-13.466V262.84
					H244.2V283.309z M266.015,499.483h-13.466v-20.468h13.466V499.483z M266.015,437.719h-13.466v-20.468h13.466V437.719z
					 M266.015,375.955h-13.466v-20.468h13.466V375.955z M266.015,314.191h-13.466v-20.468h13.466V314.191z M287.83,468.601h-13.466
					v-20.468h13.466V468.601z M287.83,437.719h-13.466v-20.468h13.466V437.719z M287.83,375.955h-13.466v-20.468h13.466V375.955z
					 M287.83,314.191h-13.466v-20.468h13.466V314.191z M287.83,283.309h-13.466V262.84h13.466V283.309z"/>
				<polygon style="fill:#3C2C61;" points="318.061,252.427 246.287,252.427 253.918,241.654 310.43,241.654 				"/>
				<polygon style="fill:#3C2C61;" points="303.706,241.654 260.642,241.654 265.22,235.19 299.128,235.19 				"/>
				<polygon style="fill:#553F8A;" points="295.169,252.427 223.395,252.427 231.026,241.654 287.538,241.654 				"/>
				<polygon style="fill:#553F8A;" points="280.814,241.654 237.75,241.654 242.328,235.19 276.236,235.19 				"/>
				<rect x="252.549" y="262.84" style="fill:#FFD1C9;" width="13.466" height="20.468"/>
				<rect x="230.734" y="293.722" style="fill:#FFD1C9;" width="13.466" height="20.468"/>
				<rect x="252.549" y="324.604" style="fill:#FFD1C9;" width="13.466" height="20.468"/>
				<rect x="274.364" y="324.604" style="fill:#FFD1C9;" width="13.466" height="20.468"/>
				<rect x="230.734" y="355.487" style="fill:#FFD1C9;" width="13.466" height="20.468"/>
				<rect x="252.549" y="386.368" style="fill:#FFD1C9;" width="13.466" height="20.468"/>
				<rect x="274.364" y="386.368" style="fill:#FFD1C9;" width="13.466" height="20.468"/>
				<rect x="230.734" y="417.251" style="fill:#FFD1C9;" width="13.466" height="20.468"/>
				<rect x="230.734" y="448.133" style="fill:#FFD1C9;" width="13.466" height="20.468"/>
				<rect x="252.549" y="448.133" style="fill:#FFD1C9;" width="13.466" height="20.468"/>
				<rect x="274.364" y="479.015" style="fill:#FFD1C9;" width="13.466" height="20.468"/>
			</g>
			<g>
				<rect x="414.521" y="252.427" style="fill:#3C2C61;" width="23.161" height="270.397"/>
				<polygon style="fill:#3C2C61;" points="434.653,252.427 362.879,252.427 370.509,241.654 427.022,241.654 				"/>
				<polygon style="fill:#3C2C61;" points="420.298,241.654 377.233,241.654 381.812,235.19 415.719,235.19 				"/>
				<path style="fill:#553F8A;" d="M337.226,252.427V506.71h77.295V252.427H337.226z M360.792,468.601h-13.466v-20.468h13.466
					V468.601z M360.792,406.837h-13.466v-20.468h13.466V406.837z M360.792,345.073h-13.466v-20.468h13.466V345.073z
					 M360.792,283.309h-13.466V262.84h13.466V283.309z M382.607,468.601h-13.466v-20.468h13.466V468.601z M382.607,375.955h-13.466
					v-20.468h13.466V375.955z M382.607,314.191h-13.466v-20.468h13.466V314.191z M404.421,499.483h-13.466v-20.468h13.466V499.483z
					 M404.421,437.719h-13.466v-20.468h13.466V437.719z M404.421,406.837h-13.466v-20.468h13.466V406.837z M404.421,314.191h-13.466
					v-20.468h13.466V314.191z"/>
				<polygon style="fill:#553F8A;" points="411.76,252.427 339.986,252.427 347.617,241.654 404.13,241.654 				"/>
				<polygon style="fill:#553F8A;" points="397.406,241.654 354.341,241.654 358.92,235.19 392.827,235.19 				"/>
				<rect x="369.141" y="262.84" style="fill:#FFD1C9;" width="13.466" height="20.468"/>
				<rect x="390.955" y="262.84" style="fill:#FFD1C9;" width="13.466" height="20.468"/>
				<rect x="347.326" y="293.722" style="fill:#FFD1C9;" width="13.466" height="20.468"/>
				<rect x="369.141" y="324.604" style="fill:#FFD1C9;" width="13.466" height="20.468"/>
				<rect x="390.955" y="324.604" style="fill:#FFD1C9;" width="13.466" height="20.468"/>
				<rect x="347.326" y="355.487" style="fill:#FFD1C9;" width="13.466" height="20.468"/>
				<rect x="390.955" y="355.487" style="fill:#FFD1C9;" width="13.466" height="20.468"/>
				<rect x="369.141" y="386.368" style="fill:#FFD1C9;" width="13.466" height="20.468"/>
				<rect x="347.326" y="417.251" style="fill:#FFD1C9;" width="13.466" height="20.468"/>
				<rect x="369.141" y="417.251" style="fill:#FFD1C9;" width="13.466" height="20.468"/>
				<rect x="390.955" y="448.133" style="fill:#FFD1C9;" width="13.466" height="20.468"/>
				<rect x="347.326" y="479.015" style="fill:#FFD1C9;" width="13.466" height="20.468"/>
				<rect x="369.141" y="479.015" style="fill:#FFD1C9;" width="13.466" height="20.468"/>
			</g>
			<g>
				<rect x="135.798" y="223.879" style="fill:#3C2C61;" width="25.267" height="293.267"/>
				<path style="fill:#553F8A;" d="M41.017,257.274V506.71h94.782V223.879L41.017,257.274z M124.271,447.724H52.544v-6.464h71.728
					V447.724z M124.271,430.347H52.544v-6.464h71.728V430.347z M124.271,378.215H52.544v-6.464h71.728V378.215z M124.271,343.46
					H52.544v-6.464h71.728V343.46z M124.271,326.082H52.544v-6.464h71.728V326.082z M124.271,273.95H52.544v-6.464h71.728V273.95z"
					/>
				<rect x="90.772" y="250.092" style="fill:#FFD1C9;" width="33.499" height="6.464"/>
				<rect x="52.544" y="284.864" style="fill:#FFD1C9;" width="71.728" height="6.464"/>
				<rect x="52.544" y="302.241" style="fill:#FFD1C9;" width="71.728" height="6.464"/>
				<rect x="52.544" y="354.373" style="fill:#FFD1C9;" width="71.728" height="6.464"/>
				<rect x="52.544" y="389.128" style="fill:#FFD1C9;" width="71.728" height="6.464"/>
				<rect x="52.544" y="406.506" style="fill:#FFD1C9;" width="71.728" height="6.464"/>
				<rect x="52.544" y="458.638" style="fill:#FFD1C9;" width="71.728" height="6.464"/>
				<rect x="52.544" y="476.016" style="fill:#FFD1C9;" width="71.728" height="6.464"/>
			</g>
			<rect x="115.434" y="302.241" style="fill:#070424;" width="15.436" height="204.469"/>
			<g>
				<rect x="90.145" y="404.709" style="fill:#1A0840;" width="40.725" height="9.196"/>
				<rect x="90.145" y="390.259" style="fill:#1A0840;" width="40.725" height="1.97"/>
				
					<rect x="88.174" y="397.484" transform="matrix(-1.836970e-16 1 -1 -1.836970e-16 492.8836 304.0547)" style="fill:#1A0840;" width="12.48" height="1.97"/>
				
					<rect x="93.429" y="397.484" transform="matrix(-1.836970e-16 1 -1 -1.836970e-16 498.1383 298.8)" style="fill:#1A0840;" width="12.48" height="1.971"/>
				
					<rect x="98.684" y="397.484" transform="matrix(-1.836970e-16 1 -1 -1.836970e-16 503.3932 293.5451)" style="fill:#1A0840;" width="12.48" height="1.971"/>
				
					<rect x="103.939" y="397.484" transform="matrix(-1.836970e-16 1 -1 -1.836970e-16 508.6479 288.2904)" style="fill:#1A0840;" width="12.48" height="1.97"/>
				
					<rect x="109.194" y="397.484" transform="matrix(-1.836970e-16 1 -1 -1.836970e-16 513.9027 283.0356)" style="fill:#1A0840;" width="12.48" height="1.971"/>
				
					<rect x="114.448" y="397.484" transform="matrix(-1.836970e-16 1 -1 -1.836970e-16 519.1575 277.7808)" style="fill:#1A0840;" width="12.48" height="1.971"/>
				
					<rect x="119.703" y="397.484" transform="matrix(-1.836970e-16 1 -1 -1.836970e-16 524.4122 272.5261)" style="fill:#1A0840;" width="12.48" height="1.971"/>
			</g>
			<g>
				<rect x="698.202" y="366.408" style="fill:#1A0840;" width="40.725" height="9.196"/>
				<rect x="698.202" y="351.957" style="fill:#1A0840;" width="40.725" height="1.971"/>
				
					<rect x="696.232" y="359.182" transform="matrix(-1.836970e-16 1 -1 -1.836970e-16 1062.6395 -342.3042)" style="fill:#1A0840;" width="12.48" height="1.97"/>
				
					<rect x="701.487" y="359.182" transform="matrix(-1.836970e-16 1 -1 -1.836970e-16 1067.8943 -347.5589)" style="fill:#1A0840;" width="12.48" height="1.971"/>
				
					<rect x="706.741" y="359.182" transform="matrix(-1.836970e-16 1 -1 -1.836970e-16 1073.149 -352.8137)" style="fill:#1A0840;" width="12.48" height="1.971"/>
				
					<rect x="711.996" y="359.182" transform="matrix(-1.836970e-16 1 -1 -1.836970e-16 1078.4038 -358.0685)" style="fill:#1A0840;" width="12.48" height="1.97"/>
				
					<rect x="717.251" y="359.182" transform="matrix(-1.836970e-16 1 -1 -1.836970e-16 1083.6586 -363.3233)" style="fill:#1A0840;" width="12.48" height="1.97"/>
				
					<rect x="722.506" y="359.182" transform="matrix(-1.836970e-16 1 -1 -1.836970e-16 1088.9135 -368.5781)" style="fill:#1A0840;" width="12.48" height="1.971"/>
				
					<rect x="727.76" y="359.182" transform="matrix(-1.836970e-16 1 -1 -1.836970e-16 1094.1681 -373.8328)" style="fill:#1A0840;" width="12.48" height="1.971"/>
			</g>
			<g>
				<rect x="698.202" y="436.396" style="fill:#1A0840;" width="40.725" height="9.196"/>
				<rect x="698.202" y="421.946" style="fill:#1A0840;" width="40.725" height="1.97"/>
				
					<rect x="696.232" y="429.171" transform="matrix(-1.836970e-16 1 -1 -1.836970e-16 1132.6279 -272.3157)" style="fill:#1A0840;" width="12.48" height="1.97"/>
				
					<rect x="701.487" y="429.171" transform="matrix(-1.836970e-16 1 -1 -1.836970e-16 1137.8827 -277.5704)" style="fill:#1A0840;" width="12.48" height="1.971"/>
				
					<rect x="706.741" y="429.171" transform="matrix(-1.836970e-16 1 -1 -1.836970e-16 1143.1376 -282.8252)" style="fill:#1A0840;" width="12.48" height="1.971"/>
				
					<rect x="711.996" y="429.171" transform="matrix(-1.836970e-16 1 -1 -1.836970e-16 1148.3923 -288.08)" style="fill:#1A0840;" width="12.48" height="1.97"/>
				
					<rect x="717.251" y="429.171" transform="matrix(-1.836970e-16 1 -1 -1.836970e-16 1153.6471 -293.3348)" style="fill:#1A0840;" width="12.48" height="1.97"/>
				
					<rect x="722.506" y="429.171" transform="matrix(-1.836970e-16 1 -1 -1.836970e-16 1158.9019 -298.5896)" style="fill:#1A0840;" width="12.48" height="1.971"/>
				
					<rect x="727.76" y="429.171" transform="matrix(-1.836970e-16 1 -1 -1.836970e-16 1164.1566 -303.8443)" style="fill:#1A0840;" width="12.48" height="1.971"/>
			</g>
			<g>
				<rect x="90.145" y="456.6" style="fill:#1A0840;" width="40.725" height="9.196"/>
				<rect x="90.145" y="442.15" style="fill:#1A0840;" width="40.725" height="1.97"/>
				
					<rect x="88.174" y="449.375" transform="matrix(-1.836970e-16 1 -1 -1.836970e-16 544.7745 355.9456)" style="fill:#1A0840;" width="12.48" height="1.97"/>
				
					<rect x="93.429" y="449.375" transform="matrix(-1.836970e-16 1 -1 -1.836970e-16 550.0292 350.6909)" style="fill:#1A0840;" width="12.48" height="1.971"/>
				
					<rect x="98.684" y="449.375" transform="matrix(-1.836970e-16 1 -1 -1.836970e-16 555.2841 345.436)" style="fill:#1A0840;" width="12.48" height="1.971"/>
				
					<rect x="103.939" y="449.375" transform="matrix(-1.836970e-16 1 -1 -1.836970e-16 560.5388 340.1813)" style="fill:#1A0840;" width="12.48" height="1.97"/>
				
					<rect x="109.194" y="449.375" transform="matrix(-1.836970e-16 1 -1 -1.836970e-16 565.7936 334.9265)" style="fill:#1A0840;" width="12.48" height="1.971"/>
				
					<rect x="114.448" y="449.375" transform="matrix(-1.836970e-16 1 -1 -1.836970e-16 571.0483 329.6717)" style="fill:#1A0840;" width="12.48" height="1.971"/>
				
					<rect x="119.703" y="449.375" transform="matrix(-1.836970e-16 1 -1 -1.836970e-16 576.3032 324.417)" style="fill:#1A0840;" width="12.48" height="1.971"/>
			</g>
			<g>
				<path style="fill:#1A0840;" d="M130.869,302.241v205.593h49.862v-12.016h9.891v12.016h10.529V302.241H130.869z M151.29,481.155
					h-9.891v-21.328h9.891V481.155z M151.29,373.181h-9.891v-21.328h9.891V373.181z M151.29,337.189h-9.891v-21.328h9.891V337.189z
					 M170.956,409.172h-9.891v-21.328h9.891V409.172z M190.623,445.163h-9.891v-21.328h9.891V445.163z M190.623,409.172h-9.891
					v-21.328h9.891V409.172z M190.623,337.189h-9.891v-21.328h9.891V337.189z"/>
				<rect x="131.083" y="267.486" style="fill:#070424;" width="44.279" height="34.755"/>
				<rect x="146.344" y="267.486" style="fill:#1A0840;" width="44.279" height="34.755"/>
				<g>
					<rect x="161.065" y="315.861" style="fill:#C26D6D;" width="9.891" height="21.328"/>
					<rect x="161.065" y="351.852" style="fill:#C26D6D;" width="9.891" height="21.328"/>
					<rect x="180.732" y="351.852" style="fill:#C26D6D;" width="9.891" height="21.328"/>
					<rect x="141.398" y="387.844" style="fill:#C26D6D;" width="9.891" height="21.328"/>
					<rect x="141.398" y="423.835" style="fill:#C26D6D;" width="9.891" height="21.328"/>
					<rect x="161.065" y="423.835" style="fill:#C26D6D;" width="9.891" height="21.328"/>
					<rect x="161.065" y="459.826" style="fill:#C26D6D;" width="9.891" height="21.328"/>
					<rect x="180.732" y="459.826" style="fill:#C26D6D;" width="9.891" height="21.328"/>
					<rect x="141.398" y="495.818" style="fill:#C26D6D;" width="9.891" height="21.328"/>
					<rect x="161.065" y="495.818" style="fill:#C26D6D;" width="9.891" height="21.328"/>
					<rect x="175.129" y="280.913" style="fill:#47447D;" width="9.891" height="21.328"/>
				</g>
			</g>
			<g>
				<path style="fill:#1A0840;" d="M-0.5,373.181v134.654h49.186V496.61h12.055v11.224h7.728V496.61h12.055v11.224h9.621V373.181
					H-0.5z M21.176,487.742H9.121v-18.701h12.055V487.742z M21.176,432.606H9.121v-18.701h12.055V432.606z M40.959,487.742H28.904
					v-18.701h12.055V487.742z M40.959,405.038H28.904v-18.701h12.055V405.038z M60.741,460.174H48.686v-18.701h12.055V460.174z
					 M80.524,432.606H68.469v-18.701h12.055V432.606z"/>
				<rect x="-0.172" y="365.318" style="fill:#1A0840;" width="93.601" height="7.863"/>
				<rect x="-0.5" y="348.935" style="fill:#1A0840;" width="93.929" height="2.917"/>
				<rect x="89.701" y="351.852" style="fill:#1A0840;" width="2.086" height="13.465"/>
				<rect x="81.239" y="351.852" style="fill:#1A0840;" width="2.086" height="13.465"/>
				<rect x="72.777" y="351.852" style="fill:#1A0840;" width="2.086" height="13.465"/>
				<rect x="64.315" y="351.852" style="fill:#1A0840;" width="2.086" height="13.465"/>
				<rect x="55.854" y="351.852" style="fill:#1A0840;" width="2.086" height="13.465"/>
				<rect x="47.392" y="351.852" style="fill:#1A0840;" width="2.086" height="13.465"/>
				<rect x="38.93" y="351.852" style="fill:#1A0840;" width="2.086" height="13.465"/>
				<rect x="30.468" y="351.852" style="fill:#1A0840;" width="2.086" height="13.465"/>
				<rect x="22.007" y="351.852" style="fill:#1A0840;" width="2.086" height="13.465"/>
				<rect x="13.545" y="351.852" style="fill:#1A0840;" width="2.086" height="13.465"/>
				<rect x="5.083" y="351.852" style="fill:#1A0840;" width="2.086" height="13.465"/>
				<g>
					<rect x="9.121" y="386.337" style="fill:#B5AA87;" width="12.055" height="18.701"/>
					<rect x="48.686" y="386.337" style="fill:#B5AA87;" width="12.055" height="18.701"/>
					<rect x="68.469" y="386.337" style="fill:#B5AA87;" width="12.055" height="18.701"/>
					<rect x="28.904" y="413.905" style="fill:#B5AA87;" width="12.055" height="18.701"/>
					<rect x="48.686" y="413.905" style="fill:#B5AA87;" width="12.055" height="18.701"/>
					<rect x="9.121" y="441.473" style="fill:#B5AA87;" width="12.055" height="18.701"/>
					<rect x="28.904" y="441.473" style="fill:#B5AA87;" width="12.055" height="18.701"/>
					<rect x="68.469" y="441.473" style="fill:#B5AA87;" width="12.055" height="18.701"/>
					<rect x="48.686" y="469.042" style="fill:#B5AA87;" width="12.055" height="18.701"/>
					<rect x="68.469" y="469.042" style="fill:#B5AA87;" width="12.055" height="18.701"/>
					<rect x="9.121" y="496.61" style="fill:#B5AA87;" width="12.055" height="18.701"/>
					<rect x="28.904" y="496.61" style="fill:#B5AA87;" width="12.055" height="18.701"/>
				</g>
			</g>
			<g>
				<rect x="439.047" y="315.941" style="fill:#070424;" width="26.4" height="191.893"/>
				<path style="fill:#1A0840;" d="M352.111,315.861v192.393h86.936V315.861H352.111z M390.479,464.038h-29.21v-14.373h29.21
					V464.038z M390.479,405.637h-29.21v-14.373h29.21V405.637z M390.479,376.436h-29.21v-14.373h29.21V376.436z M429.889,434.837
					h-29.21v-14.373h29.21V434.837z M429.889,405.637h-29.21v-14.373h29.21V405.637z M429.889,347.235h-29.21v-14.373h29.21V347.235
					z"/>
				<rect x="380.317" y="308.705" style="fill:#070424;" width="91.569" height="7.156"/>
				<rect x="349.794" y="308.705" style="fill:#1A0840;" width="91.569" height="7.156"/>
				<rect x="361.268" y="332.862" style="fill:#B5AA87;" width="29.21" height="14.373"/>
				<rect x="400.679" y="362.062" style="fill:#B5AA87;" width="29.21" height="14.373"/>
				<rect x="361.268" y="420.464" style="fill:#B5AA87;" width="29.21" height="14.373"/>
				<rect x="400.679" y="449.665" style="fill:#B5AA87;" width="29.21" height="14.373"/>
				<rect x="361.268" y="478.865" style="fill:#B5AA87;" width="29.21" height="14.373"/>
				<rect x="400.679" y="478.865" style="fill:#B5AA87;" width="29.21" height="14.373"/>
			</g>
			<g>
				<path style="fill:#1A0840;" d="M201.152,443.135v64.699h11.07v-44.009c0-7.181,5.821-13.002,13.002-13.002l0,0
					c7.181,0,13.002,5.821,13.002,13.002v44.009h8.269v-44.009c0-7.181,5.821-13.002,13.002-13.002l0,0
					c7.181,0,13.002,5.821,13.002,13.002v44.009h8.269v-44.009c0-7.181,5.821-13.002,13.002-13.002
					c7.181,0,13.002,5.821,13.002,13.002v44.009h8.268v-44.009c0-7.181,5.821-13.002,13.002-13.002h0
					c7.181,0,13.002,5.821,13.002,13.002v44.009h11.07v-64.699H201.152z"/>
				<rect x="201.152" y="429.186" style="fill:#1A0840;" width="150.959" height="2.034"/>
				<rect x="204.071" y="431.22" style="fill:#1A0840;" width="0.943" height="11.915"/>
				<rect x="209.592" y="431.22" style="fill:#1A0840;" width="0.943" height="11.915"/>
				<rect x="215.113" y="431.22" style="fill:#1A0840;" width="0.943" height="11.915"/>
				<rect x="220.634" y="431.22" style="fill:#1A0840;" width="0.943" height="11.915"/>
				<rect x="226.156" y="431.22" style="fill:#1A0840;" width="0.943" height="11.915"/>
				<rect x="231.676" y="431.22" style="fill:#1A0840;" width="0.943" height="11.915"/>
				<rect x="237.198" y="431.22" style="fill:#1A0840;" width="0.943" height="11.915"/>
				<rect x="242.719" y="431.22" style="fill:#1A0840;" width="0.943" height="11.915"/>
				<rect x="248.24" y="431.22" style="fill:#1A0840;" width="0.943" height="11.915"/>
				<rect x="253.761" y="431.22" style="fill:#1A0840;" width="0.943" height="11.915"/>
				<rect x="259.282" y="431.22" style="fill:#1A0840;" width="0.943" height="11.915"/>
				<rect x="264.803" y="431.22" style="fill:#1A0840;" width="0.943" height="11.915"/>
				<rect x="270.324" y="431.22" style="fill:#1A0840;" width="0.943" height="11.915"/>
				<rect x="275.845" y="431.22" style="fill:#1A0840;" width="0.943" height="11.915"/>
				<rect x="281.366" y="431.22" style="fill:#1A0840;" width="0.943" height="11.915"/>
				<rect x="286.887" y="431.22" style="fill:#1A0840;" width="0.943" height="11.915"/>
				<rect x="292.408" y="431.22" style="fill:#1A0840;" width="0.943" height="11.915"/>
				<rect x="297.929" y="431.22" style="fill:#1A0840;" width="0.943" height="11.915"/>
				<rect x="303.45" y="431.22" style="fill:#1A0840;" width="0.943" height="11.915"/>
				<rect x="308.971" y="431.22" style="fill:#1A0840;" width="0.943" height="11.915"/>
				<rect x="314.492" y="431.22" style="fill:#1A0840;" width="0.943" height="11.915"/>
				<rect x="320.014" y="431.22" style="fill:#1A0840;" width="0.943" height="11.915"/>
				<rect x="325.535" y="431.22" style="fill:#1A0840;" width="0.943" height="11.915"/>
				<rect x="331.056" y="431.22" style="fill:#1A0840;" width="0.943" height="11.915"/>
				<rect x="336.577" y="431.22" style="fill:#1A0840;" width="0.943" height="11.915"/>
				<rect x="342.098" y="431.22" style="fill:#1A0840;" width="0.943" height="11.915"/>
				<rect x="347.619" y="431.22" style="fill:#1A0840;" width="0.943" height="11.915"/>
			</g>
			<rect x="297.929" y="283.461" style="fill:#553F8A;" width="39.297" height="13.591"/>
			<rect x="297.929" y="348.648" style="fill:#553F8A;" width="39.297" height="13.591"/>
			<g>
				<g>
					<path style="fill:#1A0840;" d="M518.283,347.235l-44.762,46.829v113.77h53.108v-8.273h12.055v8.273h3.709v-8.273h12.055v8.273
						h8.597v-113.77L518.283,347.235z M494.173,437.88h-12.055v-17.387h12.055V437.88z M509.937,490.592h-12.055v-17.387h12.055
						V490.592z M509.937,437.88h-12.055v-17.387h12.055V437.88z M509.937,411.524h-12.055v-17.387h12.055V411.524z M538.684,464.236
						h-12.055v-17.387h12.055V464.236z M554.448,411.524h-12.055v-17.387h12.055V411.524z"/>
					<polygon style="fill:#47447D;" points="529.99,385.168 506.576,385.168 506.576,371.722 518.283,358.585 529.99,371.722 					
						"/>
					<rect x="526.629" y="420.493" style="fill:#C26D6D;" width="12.055" height="17.387"/>
					<rect x="542.393" y="420.493" style="fill:#C26D6D;" width="12.055" height="17.387"/>
					<rect x="482.118" y="394.137" style="fill:#C26D6D;" width="12.055" height="17.387"/>
					<rect x="526.629" y="394.137" style="fill:#C26D6D;" width="12.055" height="17.387"/>
					<rect x="482.118" y="446.849" style="fill:#C26D6D;" width="12.055" height="17.387"/>
					<rect x="497.882" y="446.849" style="fill:#C26D6D;" width="12.055" height="17.387"/>
					<rect x="542.393" y="446.849" style="fill:#C26D6D;" width="12.055" height="17.387"/>
					<rect x="482.118" y="473.205" style="fill:#C26D6D;" width="12.055" height="17.387"/>
					<rect x="526.629" y="473.205" style="fill:#C26D6D;" width="12.055" height="17.387"/>
					<rect x="542.393" y="473.205" style="fill:#C26D6D;" width="12.055" height="17.387"/>
					<rect x="482.118" y="499.561" style="fill:#C26D6D;" width="12.055" height="17.387"/>
					<rect x="497.882" y="499.561" style="fill:#C26D6D;" width="12.055" height="17.387"/>
				</g>
				<rect x="563.045" y="394.137" style="fill:#070424;" width="21.708" height="112.573"/>
				<polygon style="fill:#070424;" points="584.753,394.137 518.283,347.235 563.045,394.137 				"/>
			</g>
			<g>
				<rect x="590.53" y="265.354" style="fill:#070424;" width="23.699" height="241.356"/>
				<path style="fill:#1A0840;" d="M614.229,265.354v241.484h8.928v-12.762h9.529v12.762h47.059v-12.762h9.529v12.762h8.928V292.825
					L614.229,265.354z M632.686,409.324h-9.529v-20.648h9.529V409.324z M648.686,479.591h-9.529v-20.648h9.529V479.591z
					 M648.686,409.324h-9.529v-20.648h9.529V409.324z M648.686,374.191h-9.529v-20.648h9.529V374.191z M648.686,305.842h-9.529
					v-20.648h9.529V305.842z M673.274,444.458h-9.529V423.81h9.529V444.458z M673.274,374.191h-9.529v-20.648h9.529V374.191z
					 M673.274,339.058h-9.529V318.41h9.529V339.058z M689.274,479.591h-9.529v-20.648h9.529V479.591z"/>
				<rect x="623.157" y="285.194" style="fill:#B5AA87;" width="9.529" height="20.648"/>
				<rect x="623.157" y="318.41" style="fill:#B5AA87;" width="9.529" height="20.648"/>
				<rect x="639.157" y="318.41" style="fill:#B5AA87;" width="9.529" height="20.648"/>
				<rect x="679.745" y="318.41" style="fill:#B5AA87;" width="9.529" height="20.648"/>
				<rect x="623.157" y="353.543" style="fill:#B5AA87;" width="9.529" height="20.648"/>
				<rect x="679.745" y="353.543" style="fill:#B5AA87;" width="9.529" height="20.648"/>
				<rect x="663.745" y="388.677" style="fill:#B5AA87;" width="9.529" height="20.648"/>
				<rect x="679.745" y="388.677" style="fill:#B5AA87;" width="9.529" height="20.648"/>
				<rect x="623.157" y="423.81" style="fill:#B5AA87;" width="9.529" height="20.648"/>
				<rect x="639.157" y="423.81" style="fill:#B5AA87;" width="9.529" height="20.648"/>
				<rect x="679.745" y="423.81" style="fill:#B5AA87;" width="9.529" height="20.648"/>
				<rect x="623.157" y="458.943" style="fill:#B5AA87;" width="9.529" height="20.648"/>
				<rect x="663.745" y="458.943" style="fill:#B5AA87;" width="9.529" height="20.648"/>
				<rect x="639.157" y="494.076" style="fill:#B5AA87;" width="9.529" height="20.648"/>
				<rect x="663.745" y="494.076" style="fill:#B5AA87;" width="9.529" height="20.648"/>
			</g>
			<rect x="652.721" y="141.353" style="fill:#75649E;" width="25.153" height="8.177"/>
			<rect x="675.401" y="141.353" style="fill:#937EC7;" width="25.153" height="8.177"/>
			<rect x="738.927" y="313.473" style="fill:#1A0840;" width="50.132" height="193.237"/>
			<path style="opacity:0.1;fill:#FFFFFF;" d="M61.317,54.371l267.944-31.478c13.404-1.575,26.932-1.814,40.384-0.714
				l283.962,23.218L361.85,33.531c-7.759-0.315-15.53-0.187-23.274,0.384L61.317,54.371z"/>
			<polygon style="opacity:0.1;fill:#FFFFFF;" points="382.917,-6.838 718.118,20.524 520.471,20.524 770.823,39.706 
				770.823,-29.471 382.607,-29.471 			"/>
			<polygon style="opacity:0.1;fill:#FFFFFF;" points="-52,58.765 262.003,13.588 128.899,17.823 369.141,-19.588 -20.235,-29.471 
							"/>
		</g>
	</g>
</g>
</svg>
