<?xml version="1.0" encoding="utf-8"?>
<!-- Generator: Adobe Illustrator 27.5.0, SVG Export Plug-In . SVG Version: 6.00 Build 0)  -->
<svg version="1.1" xmlns="http://www.w3.org/2000/svg" xmlns:xlink="http://www.w3.org/1999/xlink" x="0px" y="0px"
	 viewBox="0 0 500 500" style="enable-background:new 0 0 500 500;" xml:space="preserve">
<g id="BACKGROUND">
	<g>
		<g>
			<rect style="fill:#FFCEC0;" width="500" height="500"/>
		</g>
	</g>
</g>
<g id="OBJECTS">
	<path style="fill:#F2AE9E;" d="M150.5,279.598c91.5,16.322,164-41.665,223-35.651C432.5,249.96,456,204,500,204
		c0,68.295,0,115.973,0,115.973L312,332l-108-0.43L150.5,279.598z"/>
	<g>
		<rect x="480.735" y="271.027" style="fill:#BC674A;" width="3.584" height="8.84"/>
		<path style="fill:#53603C;" d="M482.408,235.667c0,0-8.362,23.892-8.362,39.662c11.707,0,16.963,0,16.963,0
			S490.77,255.497,482.408,235.667z"/>
	</g>
	<g>
		<rect x="469.006" y="271.693" style="fill:#BC674A;" width="3.043" height="7.507"/>
		<path style="fill:#6A8250;" d="M470.426,241.667c0,0-7.101,20.289-7.101,33.679c9.941,0,14.404,0,14.404,0
			S477.527,258.506,470.426,241.667z"/>
	</g>
	<g>
		<rect x="387.169" y="257.5" style="fill:#873629;" width="5.11" height="12.724"/>
		<rect x="385.102" y="257.5" style="fill:#A34A38;" width="5.111" height="12.724"/>
		<polygon style="fill:#EA871B;" points="384.933,273.413 410.65,273.413 397.12,261.034 		"/>
		<rect x="384.404" y="273.111" style="fill:#FFE6C5;" width="26.773" height="26.772"/>
		<polygon style="fill:#EA871B;" points="418.446,276.627 397.863,255.973 397.863,255.828 397.791,255.9 397.719,255.828 
			397.719,255.973 377.136,276.627 383.613,276.627 397.791,262.234 411.969,276.627 		"/>
		<g>
			<g>
				<g>
					<rect x="387.667" y="278.197" style="fill:#EA871B;" width="5.47" height="5.47"/>
				</g>
				<g>
					<rect x="402.445" y="278.197" style="fill:#EA871B;" width="5.47" height="5.47"/>
				</g>
			</g>
		</g>
		<rect x="392.897" y="287.543" style="fill:#BC674A;" width="9.787" height="12.307"/>
	</g>
	<g>
		<defs>
			<rect id="SVGID_1_" width="500" height="500"/>
		</defs>
		<clipPath id="SVGID_00000141419843575576973260000017170593202798551228_">
			<use xlink:href="#SVGID_1_"  style="overflow:visible;"/>
		</clipPath>
		<g style="clip-path:url(#SVGID_00000141419843575576973260000017170593202798551228_);">
			<rect x="459.474" y="266.849" style="fill:#E2B288;" width="40.966" height="18.694"/>
			<polygon style="fill:#EA871B;" points="505.113,268.241 454.8,268.241 463.749,257.701 496.164,257.701 			"/>
			<rect x="462.853" y="270.628" style="fill:#FFE6C5;" width="34.206" height="2.585"/>
		</g>
	</g>
	<g>
		<rect x="347.954" y="286.414" style="fill:#E2B288;" width="5.282" height="19.753"/>
		<path style="fill:#BD9B49;" d="M353.867,294.682h-6.89c0,0-12.634-2.756-8.04-12.861c4.594-10.106-6.892-12.403,0-24.577
			c6.891-12.174,4.824-25.495,11.255-17.456c6.431,8.039,18.146,14.012,13.092,23.198c-5.053,9.188-5.512,14.241-2.296,18.605
			C364.204,285.954,357.772,294.682,353.867,294.682z"/>
	</g>
	<g>
		<rect x="450.943" y="244.953" style="fill:#A5533D;" width="4.809" height="12.551"/>
		<rect x="452.684" y="244.953" style="fill:#BC674A;" width="3.893" height="12.551"/>
		<polygon style="fill:#873629;" points="447.873,247.505 422.219,247.505 423.036,257.779 433.311,262.193 448.001,249.159 		"/>
		<rect x="408.609" y="263.997" style="fill:#E2B288;" width="25.654" height="25.655"/>
		<polygon style="fill:#873629;" points="402.356,267.366 422.219,247.574 441.942,267.366 435.735,267.366 422.149,253.574 
			408.563,267.366 		"/>
		<rect x="434.287" y="263.997" style="fill:#FFE6C5;" width="26.413" height="25.655"/>
		<polygon style="fill:#A34A38;" points="460.194,264.286 435.552,264.286 448.517,252.424 		"/>
		<polygon style="fill:#873629;" points="434.333,264.286 409.689,264.286 422.655,252.424 		"/>
		<polygon style="fill:#A34A38;" points="428.08,267.366 447.873,247.505 467.666,267.366 461.459,267.366 447.873,253.574 
			434.287,267.366 		"/>
		<g>
			<rect x="452.333" y="268.87" style="fill:#A34A38;" width="5.241" height="5.241"/>
			<rect x="438.172" y="268.87" style="fill:#A34A38;" width="5.242" height="5.241"/>
		</g>
		<g>
			<rect x="425.229" y="268.87" style="fill:#A34A38;" width="5.241" height="5.241"/>
			<rect x="411.069" y="268.87" style="fill:#A34A38;" width="5.241" height="5.241"/>
		</g>
		<rect x="443.184" y="277.859" style="fill:#BC674A;" width="9.379" height="11.793"/>
	</g>
	<g>
		<path style="fill:#6A8250;" d="M376.603,247.036c6.401,7.788,6.453,18.324,0.114,23.536c-6.339,5.211-16.667,3.122-23.067-4.666
			c-6.402-7.787-6.454-18.325-0.115-23.535C359.874,237.159,370.202,239.249,376.603,247.036z"/>
		<path style="fill:#6A8250;" d="M405.266,263.477c-5.042,8.729-14.89,12.479-21.995,8.375c-7.104-4.104-8.778-14.508-3.735-23.236
			c5.042-8.73,14.889-12.48,21.995-8.376C408.636,244.344,410.308,254.747,405.266,263.477z"/>
		<path style="fill:#6A8250;" d="M377.928,270.376c2.559,5.105,1.264,10.933-2.892,13.016c-4.157,2.082-9.601-0.367-12.159-5.475
			c-2.56-5.104-1.264-10.934,2.892-13.017C369.925,262.818,375.369,265.27,377.928,270.376z"/>
		<path style="fill:#6A8250;" d="M392.966,274.199c-0.757,5.662-5.105,9.752-9.713,9.137c-4.607-0.615-7.73-5.704-6.974-11.365
			s5.104-9.752,9.713-9.136C390.6,263.45,393.723,268.539,392.966,274.199z"/>
		<rect x="377.295" y="249.785" style="fill:#FFE6C5;" width="3.113" height="56.882"/>
		
			<rect x="374.29" y="266.635" transform="matrix(0.5674 -0.8234 0.8234 0.5674 -54.652 432.3474)" style="fill:#FFE6C5;" width="19.783" height="3.113"/>
		
			<rect x="372.272" y="256.262" transform="matrix(0.8579 -0.5138 0.5138 0.8579 -83.6329 229.8914)" style="fill:#FFE6C5;" width="3.113" height="19.784"/>
		<path style="fill:#6A8250;" d="M392.718,242.038c0,10.081-6.651,18.253-14.857,18.253c-8.205,0-14.857-8.173-14.857-18.253
			s6.652-18.253,14.857-18.253C386.066,223.785,392.718,231.957,392.718,242.038z"/>
		<ellipse style="fill:#6A8250;" cx="365.721" cy="256.63" rx="10.486" ry="12.883"/>
		<ellipse style="fill:#6A8250;" cx="396.305" cy="252.311" rx="10.486" ry="12.883"/>
	</g>
	<g>
		<polygon style="fill:#877F45;" points="319.1,309.666 325.399,309.666 322.393,292.166 		"/>
		<polygon style="fill:#877F45;" points="307.834,322.666 321.334,322.666 314.891,285.166 		"/>
		<polygon style="fill:#877F45;" points="324.834,316.667 338.334,316.667 331.891,279.167 		"/>
		<polygon style="fill:#877F45;" points="116.5,275 130,275 123.557,237.5 		"/>
		<polygon style="fill:#877F45;" points="76.834,251 90.334,251 83.89,213.5 		"/>
		<polygon style="fill:#877F45;" points="109.1,257 115.4,257 112.393,239.5 		"/>
		<polygon style="fill:#877F45;" points="89.767,253 96.066,253 93.06,235.5 		"/>
		<polygon style="fill:#877F45;" points="72.433,247.667 78.733,247.667 75.726,230.167 		"/>
		<polygon style="fill:#877F45;" points="13.333,213 17.833,213 15.685,200.5 		"/>
		<polygon style="fill:#877F45;" points="6.767,215 13.067,215 10.06,197.5 		"/>
		<polygon style="fill:#877F45;" points="0,223 8.333,223 1.89,185.5 0,195.542 		"/>
	</g>
	<path style="fill:#877F45;" d="M438.207,321.261c-104.807,0-100.681-24.461-184.03-22.979
		c-83.351,1.482-89.952-31.132-154.322-47.44C35.486,234.535,60.243,209.333,0,209.333C0,250.101,0,351,0,351h442.333
		L438.207,321.261z"/>
	<g>
		<path style="fill:#324420;" d="M182.338,268.698c5.561,6.766,5.605,15.919,0.099,20.445c-5.506,4.527-14.478,2.712-20.04-4.052
			c-5.561-6.766-5.605-15.919-0.099-20.446C167.805,260.119,176.777,261.934,182.338,268.698z"/>
		<path style="fill:#324420;" d="M207.238,282.982c-4.38,7.582-12.936,10.84-19.108,7.274c-6.172-3.564-7.626-12.604-3.245-20.186
			c4.379-7.583,12.934-10.841,19.107-7.275C210.165,266.36,211.618,275.397,207.238,282.982z"/>
		<path style="fill:#324420;" d="M183.489,288.974c2.223,4.436,1.098,9.499-2.512,11.309c-3.611,1.81-8.339-0.32-10.563-4.756
			c-2.223-4.436-1.098-9.498,2.512-11.308C176.537,282.409,181.266,284.538,183.489,288.974z"/>
		<path style="fill:#324420;" d="M196.552,292.296c-0.657,4.919-4.435,8.472-8.438,7.938c-4.002-0.534-6.715-4.955-6.058-9.873
			c0.657-4.918,4.435-8.472,8.438-7.936C194.497,282.959,197.21,287.379,196.552,292.296z"/>
		<rect x="182.939" y="271.087" style="fill:#E2B288;" width="2.705" height="49.414"/>
		
			<rect x="180.329" y="285.725" transform="matrix(0.5672 -0.8236 0.8236 0.5672 -154.6657 279.8337)" style="fill:#E2B288;" width="17.186" height="2.705"/>
		
			<rect x="178.575" y="276.714" transform="matrix(0.858 -0.5136 0.5136 0.858 -120.9902 132.917)" style="fill:#E2B288;" width="2.704" height="17.187"/>
		<ellipse style="fill:#324420;" cx="183.431" cy="264.357" rx="12.907" ry="15.856"/>
		<path style="fill:#324420;" d="M181.994,277.033c0,6.182-4.079,11.191-9.11,11.191c-5.031,0-9.109-5.01-9.109-11.191
			c0-6.181,4.078-11.191,9.109-11.191C177.915,265.842,181.994,270.853,181.994,277.033z"/>
		<path style="fill:#324420;" d="M208.563,273.281c0,6.181-4.079,11.191-9.109,11.191c-5.031,0-9.11-5.011-9.11-11.191
			c0-6.181,4.079-11.191,9.11-11.191C204.484,262.09,208.563,267.101,208.563,273.281z"/>
	</g>
	<g>
		<path style="fill:#324420;" d="M369.474,263.729c4.376,5.325,4.411,12.529,0.078,16.091c-4.333,3.563-11.396,2.136-15.772-3.188
			c-4.377-5.325-4.411-12.529-0.077-16.093C358.035,256.978,365.097,258.406,369.474,263.729z"/>
		<path style="fill:#324420;" d="M389.07,274.973c-3.447,5.967-10.181,8.531-15.039,5.725c-4.857-2.806-6.001-9.92-2.554-15.887
			c3.446-5.968,10.18-8.532,15.038-5.725C391.373,261.89,392.517,269.002,389.07,274.973z"/>
		<path style="fill:#324420;" d="M370.379,279.686c1.749,3.491,0.863,7.478-1.977,8.9c-2.842,1.425-6.564-0.252-8.313-3.743
			c-1.75-3.49-0.865-7.475,1.977-8.898C364.907,274.521,368.629,276.196,370.379,279.686z"/>
		<path style="fill:#324420;" d="M380.66,282.302c-0.518,3.872-3.49,6.668-6.641,6.247c-3.149-0.42-5.286-3.899-4.767-7.771
			c0.517-3.87,3.489-6.667,6.641-6.245C379.042,274.954,381.177,278.433,380.66,282.302z"/>
		<rect x="369.946" y="265.609" style="fill:#E2B288;" width="2.128" height="38.891"/>
		
			<rect x="367.891" y="277.13" transform="matrix(0.5671 -0.8236 0.8236 0.5671 -66.9521 428.9985)" style="fill:#E2B288;" width="13.526" height="2.129"/>
		
			<rect x="366.512" y="270.038" transform="matrix(0.8581 -0.5135 0.5135 0.8581 -89.9741 228.024)" style="fill:#E2B288;" width="2.128" height="13.527"/>
		<ellipse style="fill:#324420;" cx="370.333" cy="260.314" rx="10.158" ry="12.479"/>
		<path style="fill:#324420;" d="M369.202,270.29c0,4.865-3.21,8.809-7.171,8.809c-3.959,0-7.168-3.943-7.168-8.809
			c0-4.865,3.209-8.809,7.168-8.809C365.992,261.481,369.202,265.425,369.202,270.29z"/>
		<path style="fill:#324420;" d="M390.113,267.337c0,4.864-3.211,8.809-7.17,8.809c-3.96,0-7.17-3.944-7.17-8.809
			c0-4.865,3.21-8.808,7.17-8.808C386.902,258.529,390.113,262.472,390.113,267.337z"/>
	</g>
	<path style="fill:#E8BE62;" d="M183.5,353.77c0,0,153-62.27,316.5-76.27c0,29.563,0,80.833,0,80.833L183.5,353.77z"/>
	<g>
		<path style="fill:#FFD685;" d="M183.5,359.435l14.189,0.205C239.2,344.153,366.065,300.302,500,288.833c0-1.959,0-3.855,0-5.667
			C336.5,297.166,183.5,359.435,183.5,359.435z"/>
		<path style="fill:#FFD685;" d="M183.5,373.103l14.189,0.205C239.2,357.82,366.065,313.969,500,302.5c0-1.959,0-3.854,0-5.667
			C336.5,310.833,183.5,373.103,183.5,373.103z"/>
		<path style="fill:#FFD685;" d="M183.5,386.77l14.189,0.205C239.2,371.487,366.065,327.636,500,316.167c0-1.959,0-3.854,0-5.667
			C336.5,324.5,183.5,386.77,183.5,386.77z"/>
		<path style="fill:#FFD685;" d="M183.5,400.436l14.189,0.205C239.2,385.154,366.065,341.303,500,329.834c0-1.959,0-3.855,0-5.667
			C336.5,338.167,183.5,400.436,183.5,400.436z"/>
		<path style="fill:#FFD685;" d="M183.5,414.103l14.189,0.205C239.2,398.821,366.065,354.97,500,343.501c0-1.959,0-3.854,0-5.667
			C336.5,351.834,183.5,414.103,183.5,414.103z"/>
	</g>
	<g>
		<rect x="207.56" y="317.559" style="fill:#FFE6C5;" width="8.008" height="29.941"/>
		<path style="fill:#BD9B49;" d="M216.523,330.092h-10.445c0,0-19.149-4.178-12.186-19.496c6.963-15.319-10.445-18.801,0-37.254
			c10.445-18.452,7.311-38.645,17.059-26.46c9.749,12.185,27.504,21.238,19.845,35.164c-7.66,13.927-8.356,21.586-3.482,28.201
			C232.19,316.862,222.442,330.092,216.523,330.092z"/>
	</g>
	<g>
		<rect x="62.52" y="322.007" style="fill:#FFE6C5;" width="6.818" height="25.493"/>
		<path style="fill:#BD9B49;" d="M70.152,332.678h-8.893c0,0-16.304-3.557-10.375-16.6c5.929-13.043-8.893-16.007,0-31.719
			c8.893-15.711,6.225-32.903,14.525-22.528c8.3,10.375,23.418,18.083,16.896,29.939c-6.521,11.857-7.114,18.379-2.964,24.012
			C83.491,321.414,75.191,332.678,70.152,332.678z"/>
	</g>
	<g>
		<rect x="16.245" y="304.844" style="fill:#FFE6C5;" width="6.639" height="24.823"/>
		<path style="fill:#877F45;" d="M23.676,315.234h-8.66c0,0-15.875-3.464-10.103-16.163c5.773-12.701-8.659-15.588,0-30.887
			c8.66-15.298,6.062-32.039,14.144-21.937c8.082,10.103,22.803,17.607,16.453,29.153c-6.351,11.546-6.928,17.896-2.887,23.381
			C36.665,304.267,28.583,315.234,23.676,315.234z"/>
	</g>
	<g>
		<path style="fill:#6A8250;" d="M263.793,264.196c9.14,11.118,9.213,26.162,0.163,33.603c-9.05,7.44-23.795,4.457-32.935-6.661
			c-9.14-11.118-9.213-26.163-0.164-33.603C239.907,250.096,254.653,253.078,263.793,264.196z"/>
		<path style="fill:#6A8250;" d="M304.716,287.67c-7.199,12.463-21.259,17.817-31.403,11.958
			c-10.145-5.859-12.533-20.714-5.334-33.176c7.198-12.464,21.258-17.818,31.403-11.958
			C309.526,260.353,311.914,275.207,304.716,287.67z"/>
		<path style="fill:#6A8250;" d="M265.684,297.52c3.653,7.289,1.805,15.61-4.129,18.584c-5.935,2.974-13.706-0.525-17.359-7.815
			c-3.654-7.29-1.805-15.611,4.129-18.585C254.258,286.73,262.03,290.229,265.684,297.52z"/>
		<path style="fill:#6A8250;" d="M287.154,302.979c-1.08,8.083-7.289,13.923-13.867,13.044c-6.578-0.879-11.037-8.143-9.957-16.225
			c1.08-8.083,7.288-13.924,13.867-13.044C283.776,287.633,288.234,294.897,287.154,302.979z"/>
		<rect x="264.78" y="268.121" style="fill:#FFE6C5;" width="4.445" height="81.213"/>
		
			<rect x="260.491" y="292.179" transform="matrix(0.5671 -0.8237 0.8237 0.5671 -123.6006 353.6494)" style="fill:#FFE6C5;" width="28.245" height="4.445"/>
		
			<rect x="257.608" y="277.37" transform="matrix(0.8579 -0.5138 0.5138 0.8579 -112.8475 174.9122)" style="fill:#FFE6C5;" width="4.444" height="28.245"/>
		<path style="fill:#6A8250;" d="M286.801,257.06c0,14.393-9.497,26.061-21.212,26.061c-11.715,0-21.212-11.668-21.212-26.061
			c0-14.392,9.497-26.06,21.212-26.06C277.304,231,286.801,242.668,286.801,257.06z"/>
		<ellipse style="fill:#6A8250;" cx="248.255" cy="277.895" rx="14.972" ry="18.394"/>
		<path style="fill:#6A8250;" d="M306.893,271.728c0,10.158-6.703,18.394-14.971,18.394c-8.27,0-14.973-8.235-14.973-18.394
			s6.703-18.394,14.973-18.394C300.189,253.334,306.893,261.569,306.893,271.728z"/>
	</g>
	<g>
		<rect x="34.5" y="330.5" style="fill:#BC674A;" width="7.5" height="18.5"/>
		<path style="fill:#53603C;" d="M38,256.5c0,0-17.5,50-17.5,83c24.5,0,35.5,0,35.5,0S55.5,298,38,256.5z"/>
	</g>
	<g>
		<rect x="282.277" y="336.8" style="fill:#BC674A;" width="4.945" height="12.2"/>
		<path style="fill:#53603C;" d="M284.585,288c0,0-11.54,32.973-11.54,54.735c16.156,0,23.41,0,23.41,0S296.126,315.367,284.585,288
			z"/>
	</g>
	<g>
		<rect x="191.277" y="318" style="fill:#E2B288;" width="68.666" height="31.334"/>
		<polygon style="fill:#A34A38;" points="267.777,320.334 183.444,320.334 198.444,302.667 252.777,302.667 		"/>
		<rect x="196.944" y="324.334" style="fill:#FFE6C5;" width="57.333" height="4.333"/>
	</g>
	<g>
		<rect x="11.951" y="326.346" style="fill:#E2B288;" width="51.009" height="23.276"/>
		<polygon style="fill:#EA871B;" points="68.779,328.079 6.132,328.079 17.275,314.955 57.637,314.955 		"/>
		<rect x="16.16" y="331.051" style="fill:#FFE6C5;" width="42.591" height="3.219"/>
	</g>
	<g>
		<rect x="161.501" y="284.667" style="fill:#873629;" width="7.834" height="19.5"/>
		<rect x="158.333" y="284.667" style="fill:#A34A38;" width="7.834" height="19.5"/>
		<polygon style="fill:#EA871B;" points="158.074,309.054 197.487,309.054 176.752,290.083 		"/>
		<rect x="157.265" y="308.592" style="fill:#FFE6C5;" width="41.031" height="41.03"/>
		<polygon style="fill:#EA871B;" points="209.436,313.98 177.891,282.326 177.891,282.104 177.78,282.215 177.67,282.104 
			177.67,282.326 146.125,313.98 156.052,313.98 177.78,291.923 199.509,313.98 		"/>
		<g>
			<g>
				<g>
					<rect x="162.265" y="316.386" style="fill:#EA871B;" width="8.383" height="8.383"/>
				</g>
				<g>
					<rect x="184.913" y="316.386" style="fill:#EA871B;" width="8.383" height="8.383"/>
				</g>
			</g>
		</g>
		<rect x="170.28" y="330.709" style="fill:#BC674A;" width="15" height="18.86"/>
	</g>
	<rect y="348.144" style="fill:#BD9B49;" width="500" height="94.666"/>
	<g>
		<path style="fill:#E8BE62;" d="M127.814,363.688c31.96-10.163,55.686-15.544,55.686-15.544h-17
			c-15.675,1.874-36.294,6.061-58.182,11.216L127.814,363.688z"/>
	</g>
	<polygon style="fill:#E8BE62;" points="188,356.667 454,356.667 370,415.334 	"/>
	<path style="fill:#324420;" d="M5.034,405.316l211.567,19.885c0,0-7.475-22.179-46.268-20.867
		c-16.666-14.667-28.478-12.073-50.135-11.404c-15.714-9.14-27.514-11.826-39.237-9.998c-7.917-6.604-16.709-9.232-32.048-0.984
		C43.029,375.084,7.91,374.713,5.034,405.316z"/>
	<g>
		<defs>
			<polygon id="SVGID_00000029724727791482185140000003851915337780992433_" points="188,356.667 454,356.667 357.25,411.25 			"/>
		</defs>
		<clipPath id="SVGID_00000124849118539379389490000010486556059123283088_">
			<use xlink:href="#SVGID_00000029724727791482185140000003851915337780992433_"  style="overflow:visible;"/>
		</clipPath>
		<g style="clip-path:url(#SVGID_00000124849118539379389490000010486556059123283088_);">
			<rect x="188.333" y="360.5" style="fill:#BD9B49;" width="299.667" height="2.5"/>
			<rect x="202.5" y="368" style="fill:#BD9B49;" width="285.5" height="2.5"/>
			<rect x="202.5" y="375.5" style="fill:#BD9B49;" width="285.5" height="2.5"/>
			<rect x="202.5" y="383" style="fill:#BD9B49;" width="285.5" height="2.5"/>
			<rect x="202.5" y="390.5" style="fill:#BD9B49;" width="285.5" height="2.5"/>
		</g>
	</g>
	<path style="fill:#324420;" d="M500,350.333l-118.734,20.409c0,0,1.684-8.903,23.59-11.208
		c9.854-8.872,15.837-13.166,28.061-14.487c8.115-6.369,14.537-8.804,21.27-8.695c3.931-4.332,8.667-6.499,17.935-3.065
		C486.667,325,500,333.667,500,350.333z"/>
	<g>
		<g>
			<g>
				<g>
					<path style="fill:#A07A27;" d="M299.411,423.542l-0.977-0.217c10.774-48.459,38.103-75.261,38.379-75.525l0.694,0.719
						C337.234,348.782,310.116,375.394,299.411,423.542z"/>
				</g>
				<g>
					<path style="fill:#A07A27;" d="M342.429,352.742c-4.692,4.481-12.555,3.867-12.555,3.867s-0.254-7.882,4.439-12.364
						c4.692-4.481,12.555-3.867,12.555-3.867S347.121,348.259,342.429,352.742z"/>
				</g>
				<g>
					<path style="fill:#A07A27;" d="M334.627,371.197c-6.431,0.86-12.424-4.268-12.424-4.268s4.438-6.52,10.869-7.378
						c6.432-0.859,12.424,4.268,12.424,4.268S341.06,370.338,334.627,371.197z"/>
				</g>
				<g>
					<path style="fill:#A07A27;" d="M325.887,385.369c-5.929,2.636-13.123-0.596-13.123-0.596s2.421-7.506,8.35-10.142
						c5.93-2.637,13.124,0.595,13.124,0.595S331.817,382.731,325.887,385.369z"/>
				</g>
				<g>
					<path style="fill:#A07A27;" d="M326.376,354.115c0.989,6.412-4.019,12.507-4.019,12.507s-6.605-4.306-7.594-10.718
						c-0.988-6.413,4.018-12.508,4.018-12.508S325.388,347.701,326.376,354.115z"/>
				</g>
				<g>
					<path style="fill:#A07A27;" d="M317.665,373.03c0.181,6.485-5.548,11.907-5.548,11.907s-6.017-5.097-6.197-11.582
						c-0.18-6.487,5.547-11.909,5.547-11.909S317.485,366.543,317.665,373.03z"/>
				</g>
			</g>
		</g>
		<g>
			<g>
				<g>
					<path style="fill:#A07A27;" d="M308.78,414.042c-6.766-30.433-23.887-47.224-24.059-47.39l0.693-0.721
						c0.175,0.169,17.511,17.17,24.342,47.894L308.78,414.042z"/>
				</g>
				<g>
					<path style="fill:#A07A27;" d="M281.734,369.192c2.97,2.837,7.945,2.448,7.945,2.448s0.161-4.988-2.809-7.825
						s-7.946-2.448-7.946-2.448S278.764,366.355,281.734,369.192z"/>
				</g>
				<g>
					<path style="fill:#A07A27;" d="M286.672,380.873c4.07,0.545,7.863-2.701,7.863-2.701s-2.809-4.126-6.879-4.669
						c-4.071-0.544-7.863,2.701-7.863,2.701S282.6,380.329,286.672,380.873z"/>
				</g>
				<g>
					<path style="fill:#A07A27;" d="M292.203,389.843c3.753,1.668,8.306-0.377,8.306-0.377s-1.532-4.751-5.284-6.419
						c-3.753-1.669-8.307,0.376-8.307,0.376S288.45,388.173,292.203,389.843z"/>
				</g>
				<g>
					<path style="fill:#A07A27;" d="M291.894,370.061c-0.626,4.059,2.544,7.916,2.544,7.916s4.181-2.725,4.806-6.783
						c0.626-4.059-2.543-7.916-2.543-7.916S292.52,366.002,291.894,370.061z"/>
				</g>
				<g>
					<path style="fill:#A07A27;" d="M297.407,382.033c-0.114,4.104,3.511,7.536,3.511,7.536s3.809-3.225,3.923-7.33
						c0.113-4.106-3.511-7.537-3.511-7.537S297.52,377.928,297.407,382.033z"/>
				</g>
			</g>
		</g>
	</g>
	<path style="fill:#E8BE62;" d="M77.732,365.144c0,0,142.768,32.356,199.768,88.356c5-20,8.5-40.5,8.5-40.5
		s-131.535-40.713-191.268-47.856C90.5,365.144,77.732,365.144,77.732,365.144z"/>
	<path style="fill:#53603C;" d="M73,500c81,0,242-151,427-151c0,90,0,151,0,151H73z"/>
	<path style="fill:#877F45;" d="M247.675,500C315.032,461.787,401.62,402.599,500,376.656c0-1.949,0-3.917,0-5.9
		C387.85,396.996,290.481,464.761,218.953,500H247.675z"/>
	<g>
		<defs>
			<rect id="SVGID_00000054230212754983424790000007690154872402559671_" width="500" height="500"/>
		</defs>
		<clipPath id="SVGID_00000105426080895480109810000016118547450122885776_">
			<use xlink:href="#SVGID_00000054230212754983424790000007690154872402559671_"  style="overflow:visible;"/>
		</clipPath>
		<g style="clip-path:url(#SVGID_00000105426080895480109810000016118547450122885776_);">
			<g>
				<g>
					<g>
						<path style="fill:#A07A27;" d="M0.131,429.398l-1-0.025c1.261-49.626,22.93-81.181,23.149-81.493l0.819,0.572
							C22.882,348.764,1.383,380.09,0.131,429.398z"/>
					</g>
					<g>
						<path style="fill:#A07A27;" d="M28.741,351.651c-3.744,5.3-11.578,6.208-11.578,6.208s-1.764-7.686,1.979-12.987
							c3.744-5.3,11.578-6.208,11.578-6.208S32.484,346.35,28.741,351.651z"/>
					</g>
					<g>
						<path style="fill:#A07A27;" d="M24.631,371.262c-6.146,2.08-13.012-1.801-13.012-1.801s3.101-7.251,9.249-9.329
							c6.146-2.079,13.012,1.801,13.012,1.801S30.779,369.182,24.631,371.262z"/>
					</g>
					<g>
						<path style="fill:#A07A27;" d="M18.777,386.849c-5.312,3.727-12.993,1.938-12.993,1.938s0.933-7.831,6.245-11.557
							c5.313-3.727,12.994-1.939,12.994-1.939S24.09,383.121,18.777,386.849z"/>
					</g>
					<g>
						<path style="fill:#A07A27;" d="M13.251,356.084c2.203,6.102-1.54,13.046-1.54,13.046s-7.31-2.956-9.512-9.059
							c-2.202-6.103,1.539-13.047,1.539-13.047S11.048,349.978,13.251,356.084z"/>
					</g>
					<g>
						<path style="fill:#A07A27;" d="M8.337,376.32c1.424,6.329-3.156,12.751-3.156,12.751s-6.884-3.845-8.308-10.175
							c-1.423-6.332,3.155-12.753,3.155-12.753S6.915,369.988,8.337,376.32z"/>
					</g>
				</g>
			</g>
		</g>
	</g>
	<path style="fill:#877F45;" d="M500,360.621c0-1.707,0-3.427,0-5.156C344.104,384.319,211.939,499.963,141.034,500h48.806
		C263.659,469.254,376.973,386.99,500,360.621z"/>
	<path style="fill:#BD9B49;" d="M500,373c0-1.707,0-15.806,0-17.535C344.104,384.319,211.939,499.963,141.034,500H223
		C296.818,469.254,376.973,399.369,500,373z"/>
	<path style="fill:#3F512E;" d="M500,500c-81,0-230-101.666-500-101.666C0,444.334,0,500,0,500H500z"/>
	<path style="fill:#6A8250;" d="M397.374,500C309.097,469.889,182.06,423.667,0,423.667c0,5.621,0,11.213,0,16.666
		c150.725,0,263.732,31.678,348.258,59.667H397.374z"/>
	<path style="fill:#6A8250;" d="M273.777,500C200.278,479.946,110.226,463.001,0,463.001c0,6.108,0,11.737,0,16.666
		c77.526,0,145.065,8.384,203.892,20.333H273.777z"/>
	<g>
		<rect x="71.953" y="284.125" style="fill:#A5533D;" width="8.714" height="22.75"/>
		<rect x="70.459" y="284.125" style="fill:#BC674A;" width="7.055" height="22.75"/>
		<polygon style="fill:#873629;" points="86.232,288.751 132.732,288.751 131.25,307.375 112.625,315.375 86,291.75 		"/>
		<rect x="110.899" y="318.644" style="fill:#E2B288;" width="46.5" height="46.5"/>
		<polygon style="fill:#873629;" points="168.732,324.751 132.732,288.877 96.982,324.751 108.232,324.751 132.857,299.753 
			157.482,324.751 		"/>
		<rect x="62.982" y="318.644" style="fill:#FFE6C5;" width="47.875" height="46.5"/>
		<polygon style="fill:#A34A38;" points="63.899,319.168 108.566,319.168 85.066,297.668 		"/>
		<polygon style="fill:#873629;" points="110.774,319.168 155.441,319.168 131.941,297.668 		"/>
		<polygon style="fill:#A34A38;" points="122.107,324.751 86.232,288.751 50.357,324.751 61.607,324.751 86.232,299.753 
			110.857,324.751 		"/>
		<g>
			<rect x="68.649" y="327.477" style="fill:#A34A38;" width="9.5" height="9.5"/>
			<rect x="94.316" y="327.477" style="fill:#A34A38;" width="9.5" height="9.5"/>
		</g>
		<g>
			<rect x="117.774" y="327.477" style="fill:#A34A38;" width="9.5" height="9.5"/>
			<rect x="143.441" y="327.477" style="fill:#A34A38;" width="9.5" height="9.5"/>
		</g>
		<rect x="77.732" y="343.769" style="fill:#BC674A;" width="17" height="21.375"/>
	</g>
	<g>
		<rect x="213.777" y="336.8" style="fill:#BC674A;" width="4.945" height="12.2"/>
		<path style="fill:#53603C;" d="M216.085,288c0,0-11.54,32.973-11.54,54.735c16.156,0,23.41,0,23.41,0S227.626,315.367,216.085,288
			z"/>
	</g>
	<path style="fill:#324420;" d="M500,500H287.5c0,0,6.5-14.584,45-9.647c20.5-11.219,32.5-16.154,54-13.462
		c16.5-7.629,28.5-9.199,40-6.282c8.5-5.834,17.5-7.629,32,2.019C465,466.345,500,469.262,500,500z"/>
	<g>
		<circle style="fill:#FFFFFF;" cx="445.625" cy="418.125" r="3.375"/>
		<circle style="fill:#FFFFFF;" cx="404.25" cy="462.75" r="3.375"/>
		<circle style="fill:#FFFFFF;" cx="451" cy="358.667" r="3.375"/>
		<circle style="fill:#FFFFFF;" cx="435.875" cy="439.625" r="2.375"/>
		<circle style="fill:#FFFFFF;" cx="355.625" cy="451" r="2.375"/>
		<circle style="fill:#FFFFFF;" cx="310" cy="416.667" r="2.375"/>
		<circle style="fill:#FFFFFF;" cx="472.875" cy="462.875" r="2.375"/>
		<circle style="fill:#FFFFFF;" cx="470.25" cy="427.25" r="2.375"/>
		<circle style="fill:#FFFFFF;" cx="381.479" cy="378.333" r="1.317"/>
		<circle style="fill:#FFFFFF;" cx="416.583" cy="367.583" r="2.375"/>
		<circle style="fill:#FFFFFF;" cx="351.917" cy="392.584" r="2.375"/>
		<circle style="fill:#FFFFFF;" cx="398.75" cy="433.75" r="2.375"/>
		<circle style="fill:#FFFFFF;" cx="479" cy="395.5" r="2.375"/>
	</g>
	<g>
		<path style="fill:#6E7C4E;" d="M424.792,434.833c0,0-6.5-9.5-18.5-7C409.792,436.333,415.792,440.333,424.792,434.833z"/>
		<path style="fill:#6E7C4E;" d="M340.125,403.5c0,0-6.5-9.5-18.5-7C325.125,405,331.125,409,340.125,403.5z"/>
		<path style="fill:#6E7C4E;" d="M429.566,403.945c0,0-8.102,8.176-3.382,19.489C433.87,418.393,436.665,411.745,429.566,403.945z"
			/>
		<path style="fill:#6E7C4E;" d="M455.853,465.625c0,0,2.34-11.272-7.781-18.185C444.373,455.854,445.65,462.952,455.853,465.625z"
			/>
		<path style="fill:#6E7C4E;" d="M431.975,453.721c0,0-7.918-8.357-19.373-3.996C417.397,457.566,423.954,460.57,431.975,453.721z"
			/>
		<path style="fill:#6E7C4E;" d="M466.51,418.134c0,0-2.266-11.287-14.287-13.681C452.117,413.645,456.075,419.674,466.51,418.134z"
			/>
		<path style="fill:#6E7C4E;" d="M487.156,436.564c0,0-11.51-0.171-16.39,11.074C479.728,449.681,486.456,447.087,487.156,436.564z"
			/>
		<path style="fill:#6E7C4E;" d="M284.781,423.288c0,0-9.537-6.445-19.778,0.293C271.384,430.197,278.434,431.71,284.781,423.288z"
			/>
		<path style="fill:#6E7C4E;" d="M496.406,400.314c0,0-11.51-0.171-16.39,11.074C488.978,413.431,495.706,410.837,496.406,400.314z"
			/>
		<path style="fill:#6E7C4E;" d="M458.57,425.306c0,0-6.525-0.097-9.292,6.278C454.359,432.742,458.174,431.272,458.57,425.306z"/>
		<path style="fill:#6E7C4E;" d="M374.236,385.972c0,0-6.525-0.097-9.292,6.278C370.025,393.408,373.84,391.938,374.236,385.972z"/>
		<path style="fill:#6E7C4E;" d="M381.051,438.109c0,0-4.076-5.097-10.755-3.176C372.635,439.591,376.195,441.599,381.051,438.109z"
			/>
		<path style="fill:#6E7C4E;" d="M393.656,444.564c0,0-11.51-0.171-16.39,11.074C386.228,457.681,392.956,455.087,393.656,444.564z"
			/>
		<path style="fill:#6E7C4E;" d="M399.876,362.056c0,0-9.883,5.903-8.126,18.034C400.449,377.119,404.81,371.377,399.876,362.056z"
			/>
		<path style="fill:#6E7C4E;" d="M442.225,361.936c0,0-5.251-3.876-11.21-0.301C434.473,365.534,438.431,366.558,442.225,361.936z"
			/>
		<path style="fill:#6E7C4E;" d="M478.903,351.972c0,0-6.525-0.097-9.292,6.278C474.692,359.408,478.507,357.938,478.903,351.972z"
			/>
	</g>
	<g>
		<g>
			<path style="fill:#A07A27;" d="M362.667,352.334h24.666c0,0-1.5-18.834-12.5-18.834S362.667,352.334,362.667,352.334z"/>
			<path style="fill:#E8BE62;" d="M363.237,352.334h18.609c0,0-1.132-14.209-9.431-14.209S363.237,352.334,363.237,352.334z"/>
		</g>
		<g>
			<path style="fill:#A07A27;" d="M391.167,352.334h15.666c0,0-0.953-11.962-7.939-11.962
				C391.907,340.372,391.167,352.334,391.167,352.334z"/>
			<path style="fill:#E8BE62;" d="M391.529,352.334h11.819c0,0-0.719-9.024-5.99-9.024
				C392.088,343.31,391.529,352.334,391.529,352.334z"/>
		</g>
	</g>
	<g>
		<defs>
			<rect id="SVGID_00000034782100121560917450000003683891696269743010_" width="500" height="500"/>
		</defs>
		<clipPath id="SVGID_00000008132059001318673240000007771057156347766457_">
			<use xlink:href="#SVGID_00000034782100121560917450000003683891696269743010_"  style="overflow:visible;"/>
		</clipPath>
		<g style="clip-path:url(#SVGID_00000008132059001318673240000007771057156347766457_);">
			<rect x="1" y="330.5" style="fill:#BC674A;" width="7.5" height="18.5"/>
			<path style="fill:#53603C;" d="M4.5,256.5c0,0-17.5,50-17.5,83c24.5,0,35.5,0,35.5,0S22,298,4.5,256.5z"/>
		</g>
		<g style="clip-path:url(#SVGID_00000008132059001318673240000007771057156347766457_);">
			<path style="fill:#324420;" d="M0.113,273.769c8.058,9.803,8.123,23.067,0.144,29.627s-20.98,3.93-29.039-5.873
				c-8.059-9.803-8.123-23.067-0.144-29.627C-20.947,261.337-7.946,263.966,0.113,273.769z"/>
			<path style="fill:#324420;" d="M36.194,294.466c-6.348,10.988-18.744,15.709-27.688,10.543
				c-8.944-5.166-11.05-18.264-4.703-29.251c6.347-10.989,18.743-15.709,27.688-10.543
				C40.436,270.381,42.541,283.477,36.194,294.466z"/>
			<path style="fill:#324420;" d="M1.78,303.149c3.221,6.427,1.591,13.764-3.641,16.386c-5.232,2.622-12.084-0.464-15.306-6.891
				c-3.222-6.428-1.591-13.765,3.641-16.387C-8.294,293.637-1.441,296.722,1.78,303.149z"/>
			<path style="fill:#324420;" d="M20.71,307.964c-0.952,7.127-6.427,12.275-12.227,11.501c-5.8-0.775-9.731-7.181-8.779-14.307
				c0.952-7.127,6.426-12.276,12.227-11.5C17.732,294.433,21.663,300.838,20.71,307.964z"/>
			<rect x="0.983" y="277.229" style="fill:#E2B288;" width="3.919" height="71.604"/>
			
				<rect x="-2.799" y="298.441" transform="matrix(0.5671 -0.8236 0.8236 0.5671 -243.2412 137.9867)" style="fill:#E2B288;" width="24.903" height="3.919"/>
			
				<rect x="-5.34" y="285.384" transform="matrix(0.858 -0.5137 0.5137 0.858 -153.4702 40.5599)" style="fill:#E2B288;" width="3.919" height="24.904"/>
			<path style="fill:#324420;" d="M20.398,267.478c0,12.689-8.373,22.978-18.702,22.978c-10.329,0-18.703-10.288-18.703-22.978
				c0-12.69,8.374-22.978,18.703-22.978C12.025,244.5,20.398,254.787,20.398,267.478z"/>
			<path style="fill:#324420;" d="M-0.387,285.847c0,8.956-5.91,16.217-13.201,16.217c-7.29,0-13.2-7.261-13.2-16.217
				c0-8.957,5.91-16.218,13.2-16.218C-6.297,269.629-0.387,276.89-0.387,285.847z"/>
			<path style="fill:#324420;" d="M38.113,280.409c0,8.956-5.91,16.218-13.2,16.218c-7.291,0-13.201-7.262-13.201-16.218
				c0-8.956,5.91-16.218,13.201-16.218C32.203,264.191,38.113,271.453,38.113,280.409z"/>
		</g>
	</g>
	<path style="fill:#F6F7EE;" d="M293.725,185.118c-8.892-24.618-42.892-35.118-64.058-16.783c-23.333-23.333-56-16.667-70.666,9.333
		c-38.167-9.668-57.334,22-57.334,22h172.667h26H331C331,199.668,317.576,186.563,293.725,185.118z"/>
	<path style="fill:#F6F7EE;" d="M431.605,102.483c-4.626-12.81-22.318-18.273-33.332-8.733c-12.142-12.142-29.14-8.672-36.771,4.857
		c-19.86-5.031-29.833,11.448-29.833,11.448h89.847h13.528h15.958C451.002,110.054,444.017,103.234,431.605,102.483z"/>
	<path style="fill:#F6F7EE;" d="M111.799,63.407c-3.308-9.16-15.959-13.067-23.835-6.245c-8.683-8.682-20.837-6.202-26.295,3.473
		c-14.202-3.598-21.333,8.186-21.333,8.186h64.248h9.674h11.411C125.669,68.821,120.674,63.944,111.799,63.407z"/>
	<g>
		<path style="fill:#F6F7EE;" d="M418.75,188.646c-0.964-1.277-8.225-10.248-19.414-6.658c8.504-1.037,19.527,9.974,19.527,9.974
			c1.539-1.631,10.797-11.011,19.301-9.974C426.975,178.398,419.714,187.37,418.75,188.646z"/>
		<path style="fill:#F6F7EE;" d="M56.004,122.534c-1.142-1.513-9.745-12.143-23.004-7.89c10.077-1.229,23.139,11.818,23.139,11.818
			c1.823-1.933,12.793-13.047,22.87-11.818C65.749,110.391,57.147,121.021,56.004,122.534z"/>
		<path style="fill:#F6F7EE;" d="M264,52c-1.142-1.513-9.744-12.143-23.004-7.89c10.077-1.229,23.139,11.818,23.139,11.818
			c1.824-1.933,12.793-13.047,22.871-11.818C273.746,39.857,265.143,50.487,264,52z"/>
	</g>
</g>
</svg>
