<?xml version="1.0" encoding="utf-8"?>
<!-- Generator: Adobe Illustrator 27.5.0, SVG Export Plug-In . SVG Version: 6.00 Build 0)  -->
<svg version="1.1" id="layer" xmlns="http://www.w3.org/2000/svg" xmlns:xlink="http://www.w3.org/1999/xlink" x="0px" y="0px"
	 viewBox="0 0 450 450" style="enable-background:new 0 0 450 450;" xml:space="preserve">
<g>
	<linearGradient id="SVGID_1_" gradientUnits="userSpaceOnUse" x1="225.2259" y1="-7.7144" x2="225.2259" y2="321.0008">
		<stop  offset="0" style="stop-color:#C35407"/>
		<stop  offset="0.2056" style="stop-color:#E89245"/>
		<stop  offset="0.2561" style="stop-color:#E89448"/>
		<stop  offset="0.3004" style="stop-color:#EA9B53"/>
		<stop  offset="0.3362" style="stop-color:#ECA462"/>
		<stop  offset="0.5819" style="stop-color:#F6CCA5"/>
		<stop  offset="0.7779" style="stop-color:#FDEAD6"/>
		<stop  offset="0.8055" style="stop-color:#FCE7D2"/>
		<stop  offset="0.8302" style="stop-color:#F9E0C8"/>
		<stop  offset="0.8537" style="stop-color:#F4D2B5"/>
		<stop  offset="0.8765" style="stop-color:#EDC09C"/>
		<stop  offset="0.8989" style="stop-color:#E4A87B"/>
		<stop  offset="0.9208" style="stop-color:#D88B52"/>
		<stop  offset="0.9421" style="stop-color:#CB6923"/>
		<stop  offset="0.9437" style="stop-color:#CA661F"/>
		<stop  offset="0.974" style="stop-color:#C35407"/>
	</linearGradient>
	<rect x="0.226" style="fill:url(#SVGID_1_);" width="450" height="450"/>
	<g>
		
			<radialGradient id="SVGID_00000017493719291124616140000009514067554241330592_" cx="233" cy="285.0001" r="236.6113" gradientUnits="userSpaceOnUse">
			<stop  offset="0" style="stop-color:#FAB52A"/>
			<stop  offset="0.4728" style="stop-color:#F9B329"/>
			<stop  offset="0.6431" style="stop-color:#F5AC27"/>
			<stop  offset="0.7644" style="stop-color:#EEA123"/>
			<stop  offset="0.8625" style="stop-color:#E5901D"/>
			<stop  offset="0.9456" style="stop-color:#D97A15"/>
			<stop  offset="1" style="stop-color:#CE670E"/>
		</radialGradient>
		<circle style="fill:url(#SVGID_00000017493719291124616140000009514067554241330592_);" cx="231.648" cy="207.624" r="156.488"/>
		<g>
			<path style="opacity:0.5;fill:#FBE2CB;" d="M6.771,173.256c0,1.156,18.243,2.193,47.199,2.906
				c-2.362,0.666-3.629,1.367-3.629,2.092c0,3.029,22.055,5.655,54.295,6.951c-2.682,0.557-4.171,1.168-4.171,1.809
				c0,2.62,24.747,4.744,55.275,4.744c1.338,0,2.661-0.005,3.975-0.013c2.299,1.329,15.642,2.348,31.761,2.348
				c17.736,0,32.114-1.234,32.114-2.756c0-1.057-6.94-1.975-17.12-2.437c2.918-0.578,4.545-1.215,4.545-1.885
				c0-0.223-0.193-0.443-0.541-0.658c33.017-0.453,58.047-2.619,58.047-5.225c0-0.577-1.244-1.132-3.513-1.652
				c46.387-0.35,79.857-1.347,79.857-2.523c0-1.044-26.409-1.947-64.82-2.381c5.372-0.412,8.306-0.856,8.306-1.319
				c0-0.495-3.356-0.969-9.462-1.404c82.39-0.607,143.312-2.764,143.312-5.332c0-1.827-30.835-3.445-78.289-4.446
				c5.107-0.448,7.894-0.932,7.894-1.437c0-1.321-19.092-2.498-48.885-3.263c1.158-0.232,1.79-0.473,1.79-0.722
				c0-1.782-31.517-3.226-70.395-3.226c-38.878,0-70.395,1.444-70.395,3.226c0,0.083,0.09,0.164,0.223,0.245
				c-42.736,0.684-72.105,2.101-72.105,3.74c0,0.638,4.457,1.242,12.414,1.783c-38.955,1.008-63.475,2.471-63.475,4.1
				c0,1.25,14.449,2.403,38.775,3.327C36.25,170.508,6.771,171.787,6.771,173.256z"/>
			<path style="opacity:0.2;fill:#B64400;" d="M18.797,30.012c0,0.739,14.329,1.402,37.071,1.858
				c-1.855,0.426-2.85,0.874-2.85,1.337c0,1.937,17.323,3.616,42.645,4.444c-2.107,0.357-3.276,0.747-3.276,1.157
				c0,1.675,19.437,3.033,43.414,3.033c1.051,0,2.09-0.004,3.122-0.009c1.806,0.849,12.285,1.501,24.946,1.501
				c13.93,0,25.223-0.789,25.223-1.762c0-0.676-5.451-1.263-13.447-1.558c2.292-0.369,3.569-0.777,3.569-1.205
				c0-0.143-0.152-0.283-0.425-0.421c25.932-0.29,45.591-1.674,45.591-3.34c0-0.369-0.977-0.724-2.76-1.056
				c36.433-0.224,62.721-0.861,62.721-1.613c0-0.667-20.742-1.245-50.911-1.522c4.219-0.263,6.524-0.547,6.524-0.843
				c0-0.317-2.636-0.619-7.432-0.898c64.711-0.388,112.56-1.767,112.56-3.409c0-1.168-24.219-2.203-61.49-2.843
				c4.011-0.286,6.2-0.596,6.2-0.919c0-0.844-14.995-1.597-38.395-2.086c0.91-0.148,1.406-0.303,1.406-0.461
				c0-1.139-24.754-2.063-55.29-2.063c-30.535,0-55.289,0.924-55.289,2.063c0,0.053,0.071,0.105,0.175,0.157
				c-33.566,0.437-56.633,1.344-56.633,2.391c0,0.408,3.501,0.794,9.75,1.14c-30.596,0.644-49.855,1.58-49.855,2.621
				c0,0.799,11.348,1.536,30.454,2.127C41.951,28.255,18.797,29.073,18.797,30.012z"/>
			<path style="opacity:0.6;fill:#FBE2CB;" d="M435.93,136.346c0-1.517-17.455-2.872-44.834-3.766
				c1.671-0.518,2.58-1.063,2.58-1.625c0-2.264-14.443-4.242-35.951-5.313c0.993-0.311,1.565-0.657,1.565-1.023
				c0-1.336-7.386-2.418-16.497-2.418c-9.111,0-16.497,1.082-16.497,2.418c0,0.065,0.032,0.129,0.066,0.193
				c-1.827-0.012-3.667-0.019-5.529-0.019c-40.231,0-72.844,2.759-72.844,6.162c0,0.415,0.493,0.821,1.419,1.213
				c-35.669,0.854-59.518,2.406-59.518,4.179c0,1.672,21.204,3.146,53.522,4.025c-9.778,0.631-15.638,1.43-15.638,2.3
				c0,1.757,23.822,3.225,55.709,3.596c1.342,1.284,25.673,2.306,55.5,2.306c30.688,0,55.565-1.082,55.565-2.418
				c0-0.914-11.649-1.709-28.834-2.12c3.264-0.422,5.077-0.882,5.077-1.365c0-0.67-3.481-1.297-9.535-1.839
				C405.162,140.089,435.93,138.36,435.93,136.346z"/>
			<path style="opacity:0.8;fill:#F4C498;" d="M448.757,96.352c0-1.172-21.708-2.213-55.296-2.869
				c21.736-1.001,35.889-2.632,35.889-4.474c0-2.067-17.814-3.868-44.165-4.811c7.763-0.567,12.465-1.302,12.465-2.107
				c0-1.788-23.143-3.238-51.692-3.238c-28.549,0-51.692,1.45-51.692,3.238c0,0.743,4.004,1.427,10.721,1.973
				c-28.526,0.899-48.152,2.776-48.152,4.946c0,1.486,9.207,2.834,24.17,3.826c-63.061,0.341-110.42,1.787-110.42,3.518
				c0,1.039,17.051,1.974,44.304,2.63c-1.635,0.424-2.509,0.867-2.509,1.323c0,2.908,35.25,5.29,79.937,5.497
				c-1.315,0.285-2.033,0.587-2.033,0.899c0,1.788,23.143,3.238,51.692,3.238c28.549,0,51.692-1.45,51.692-3.238
				c0-1.264-11.574-2.359-28.441-2.892c12.289-0.952,19.67-2.173,19.67-3.504c0-0.31-0.408-0.614-1.178-0.91
				C422.791,98.758,448.757,97.633,448.757,96.352z"/>
			<path style="opacity:0.6;fill:#E9944A;" d="M285.042,194.514c0-1.018-18.85-1.921-48.014-2.491
				c18.874-0.869,31.163-2.285,31.163-3.885c0-1.795-15.468-3.359-38.349-4.178c6.741-0.492,10.823-1.131,10.823-1.83
				c0-1.553-20.095-2.812-44.885-2.812c-24.789,0-44.885,1.259-44.885,2.812c0,0.645,3.477,1.239,9.309,1.714
				c-24.769,0.781-41.811,2.41-41.811,4.294c0,1.29,7.994,2.461,20.987,3.322c-54.756,0.297-95.878,1.551-95.878,3.055
				c0,0.902,14.805,1.714,38.469,2.284c-1.42,0.368-2.178,0.753-2.178,1.149c0,2.525,30.607,4.593,69.41,4.773
				c-1.141,0.248-1.766,0.51-1.766,0.78c0,1.553,20.096,2.812,44.885,2.812s44.885-1.259,44.885-2.812
				c0-1.098-10.05-2.048-24.696-2.511c10.67-0.827,17.079-1.887,17.079-3.042c0-0.269-0.354-0.533-1.023-0.79
				C262.496,196.604,285.042,195.627,285.042,194.514z"/>
			<path style="opacity:0.3;fill:#FBE2CB;" d="M121.416,105.393c4.454-1.09,7.096-2.444,7.096-3.912c0-0.61-0.466-1.2-1.32-1.761
				c9.27-0.606,15.034-1.451,15.034-2.387c0-1.007-6.674-1.91-17.207-2.521c0.075-0.183,0.115-0.368,0.115-0.555
				c0-2.267-5.593-4.216-13.627-5.094c0.282-0.269,0.434-0.546,0.434-0.83c0-2.393-10.489-4.333-23.429-4.333
				c-12.939,0-23.428,1.94-23.428,4.333c0,1.847,6.253,3.424,15.056,4.047c-0.81,0.549-1.271,1.136-1.328,1.749
				c-20.791,0.399-36.013,1.682-36.013,3.204c0,0.969,6.165,1.84,16.001,2.449c-0.794,0.542-1.224,1.111-1.224,1.699
				c0,2.468,7.464,4.616,18.469,5.722c-0.5,0.151-0.763,0.307-0.763,0.466c0,1.287,17.033,2.33,38.044,2.33
				s38.044-1.043,38.044-2.33C151.369,106.553,138.539,105.62,121.416,105.393z"/>
			<path style="opacity:0.6;fill:#FBE2CB;" d="M198.84,53.736c-3.627,0.887-5.778,1.99-5.778,3.185c0,0.497,0.38,0.978,1.075,1.434
				c-7.548,0.493-12.242,1.181-12.242,1.944c0,0.82,5.434,1.555,14.012,2.053c-0.061,0.149-0.093,0.3-0.093,0.452
				c0,1.846,4.554,3.433,11.097,4.148c-0.229,0.219-0.353,0.444-0.353,0.676c0,1.949,8.542,3.529,19.078,3.529
				s19.078-1.58,19.078-3.529c0-1.504-5.092-2.788-12.26-3.296c0.66-0.447,1.035-0.925,1.082-1.424
				c16.93-0.325,29.326-1.37,29.326-2.609c0-0.789-5.02-1.498-13.03-1.994c0.646-0.441,0.997-0.905,0.997-1.383
				c0-2.01-6.078-3.758-15.04-4.66c0.407-0.123,0.622-0.25,0.622-0.38c0-1.048-13.87-1.897-30.98-1.897
				c-17.109,0-30.979,0.849-30.979,1.897C174.449,52.791,184.897,53.551,198.84,53.736z"/>
		</g>
	</g>
	<g>
		<g>
			<g>
				<g>
					<path style="fill:#B64400;" d="M300.124,261.496v53.488h150.102v-56.513C426.257,267.665,350.849,262.23,300.124,261.496z"/>
					<path style="fill:#DC6B28;" d="M233.085,263.942c-26.009-2.645-80.145,6.324-156.572,0
						c-26.079-2.158-59.943,4.476-76.288-5.643V284h156.571h27.571H340.94v-19.804C314.459,266.227,282.19,268.935,233.085,263.942z
						"/>
					<g>
						<path style="fill:#C35407;" d="M0.226,289.237l302.059,0l-12.45-7.158l-29.809-5.74l-12.195-7.175l-25.744-2.511
							l-34.551-6.457c0,0-18.969,3.229-22.357,3.946c-3.387,0.717-37.939,4.664-37.939,4.664l-27.777,7.175l-37.939-5.74
							c0,0-14.227,0-17.614-0.359c-3.387-0.359-23.125-4.273-23.125-4.273L0.228,270.32l-0.002,0.001V289.237z"/>
						<polygon style="fill:#B64400;" points="260.026,276.339 247.831,269.164 224.407,272.172 207.753,285.831 188.618,289.237 
							217.493,287.816 						"/>
						<polygon style="fill:#B64400;" points="222.087,266.653 187.536,260.195 170.806,276.198 172.173,282.348 110.41,289.237 
							302.285,289.237 193.402,285.313 						"/>
						<polygon style="fill:#B64400;" points="289.835,282.079 302.285,289.237 134.908,289.237 272.854,286.863 						"/>
						<polygon style="fill:#B64400;" points="61.526,270.24 99.464,275.98 69.142,289.237 19.378,289.237 40.533,287.203 
							52.371,281.022 						"/>
						<polygon style="fill:#B64400;" points="20.787,265.608 12.682,279.628 0.226,289.237 21.208,283.663 43.911,269.882 						"/>
					</g>
					<g>
						<path style="fill:#C35407;" d="M450.226,266.833l-1.849-0.18l-34.551-6.457c0,0-18.969,3.229-22.357,3.946
							c-3.387,0.717-37.939,4.664-37.939,4.664l-27.502,7.104v13.328l124.197,0V266.833z"/>
						<polygon style="fill:#B64400;" points="450.226,272.558 434.043,285.831 414.908,289.237 443.783,287.816 450.226,286.077 
													"/>
						<polygon style="fill:#B64400;" points="450.226,289.237 450.226,286.414 419.692,285.313 448.377,266.653 413.826,260.195 
							397.096,276.198 398.462,282.348 336.7,289.237 						"/>
						<polygon style="fill:#B64400;" points="450.226,287.705 361.198,289.237 450.226,289.237 						"/>
					</g>
					<g>
						<g>
							<polygon style="fill:#C6621D;" points="0.226,317.727 104.156,317.727 92.829,303.447 65.708,291.995 54.613,277.681 
								31.191,272.671 0.226,259.98 							"/>
							<polygon style="fill:#C35407;" points="65.755,293.289 52.198,278.007 31.144,274.371 3.049,262.893 12.949,274.039 
								15.336,288.273 0.419,292.266 0.226,309.946 							"/>
							<polygon style="fill:#B95215;" points="0.226,317.727 104.156,317.727 0.226,313.17 							"/>
							<polygon style="fill:#B95215;" points="0.226,315.902 0.226,317.727 102.46,317.727 92.488,304.637 75.335,307.416 
								73.939,310.427 90.094,312.511 							"/>
							<polygon style="fill:#CF6D38;" points="65.562,293.289 89.895,303.711 75.135,306.026 79.324,302.784 69.551,304.637 
								61.03,313.608 33.715,314.639 55.474,311.376 62.063,303.715 57.185,304.405 27.916,314.384 51.863,300.965 58.182,297.457 
															"/>
							<polygon style="fill:#CF6D38;" points="30.951,274.371 19.929,280.886 16.523,289.961 7.705,296.244 0.226,303.528 
								0.226,307.037 11.513,296.942 19.729,290.426 26.799,282.173 53.395,278.792 							"/>
						</g>
						<g>
							<path style="fill:#C6621D;" d="M450.226,260.284c-4.093,1.534-16.451,6.186-19.014,7.376
								c-3.082,1.431-34.517,9.304-34.517,9.304l-25.272,14.314l-34.517-11.452c0,0-12.944,0-16.026-0.716
								c-3.082-0.716-21.039-8.525-21.039-8.525l-18.705,9.401l-39.321,37.739l208.41,0V260.284z"/>
							<polygon style="fill:#CF6D38;" points="244.908,316.448 281.208,281.709 300.156,272.445 285.795,285.414 287.59,291.668 
								273.03,310.659 253.085,315.522 271.235,308.343 280.582,291.976 274.564,293.4 262.06,306.721 257.672,307.648 							"/>
							<polygon style="fill:#B95215;" points="450.226,313.092 437.458,312.532 448.48,310.205 450.226,308.544 450.226,282.324 
								437.574,303.983 409.654,311.759 411.749,307.069 403.671,312.801 381.382,317.727 450.226,317.727 							"/>
							<polygon style="fill:#B95215;" points="450.226,315.97 403.671,317.727 450.226,317.727 							"/>
							<polygon style="fill:#B95215;" points="341.106,282.914 367.014,294.783 343.835,317.727 298.56,317.727 317.807,313.669 
								330.073,310.543 339.497,291.957 328.577,301.337 							"/>
							<polygon style="fill:#CF6D38;" points="450.226,261.26 432.17,268.642 398.111,277.719 367.014,294.784 345.431,316.448 
								367.57,296.299 385.122,288.888 376.147,304.174 357.199,314.827 377.543,306.721 393.499,285.646 394.248,289.168 
								389.111,311.585 414.413,280.657 417.171,284 404.762,294.336 418.377,291.752 428.718,283.849 424.582,276.857 
								436.301,272.145 431.648,279.137 444.758,268.971 450.226,262.596 							"/>
							<polygon style="fill:#B95215;" points="301.652,272.85 322.027,280.788 300.287,298.158 293.773,307.185 280.631,316.405 
								277.617,317.727 256.775,317.727 275.224,313.09 298.361,290.047 302.051,277.424 292.776,284.488 							"/>
							<polygon style="fill:#CF6D38;" points="337.983,281.483 322.027,280.788 308.062,291.946 314.616,288.888 309.829,294.215 
								300.287,298.158 293.107,306.727 280.541,316.222 294.902,307.885 301.883,300.242 311.225,298.152 319.103,292.015 
								324.869,290.697 322.694,296.531 311.855,305.337 307.467,312.285 298.093,316.454 308.255,314.133 312.921,307.185 
								324.289,300.468 							"/>
						</g>
					</g>
					<g>
						<path style="fill:#E97D32;" d="M450.226,311.538L434,296.002l-38.85-12.459l-15.893-15.574l-33.552-5.451l-45.031-14.016
							c0,0-24.723,7.008-29.138,8.566c-4.415,1.557-49.446,10.123-49.446,10.123l-36.201,15.574l-49.446-12.459
							c0,0-18.542,0-22.957-0.779c-4.415-0.779-30.138-9.275-30.138-9.275l-26.794,10.228L0.226,311.538H450.226z"/>
						<polygon style="fill:#F28D56;" points="4.654,310.148 56.654,272.352 83.797,262.273 63.226,276.384 65.797,283.187 
							44.94,303.848 16.369,309.14 42.369,301.329 55.758,283.522 47.137,285.072 29.226,299.565 22.94,300.573 						"/>
						<polygon style="fill:#C35407;" points="394.94,284.951 378.654,270.588 348.727,274.499 339.487,286.925 351.037,277.962 
							335.099,299.148 302.083,311.538 339.716,308.454 						"/>
						<polygon style="fill:#C35407;" points="345.36,264.368 303.798,251.307 278.869,283.238 301.127,263.085 302.113,268.678 
							280.65,296.586 240.654,305.045 243.654,299.943 232.083,306.179 184.302,302.816 232.75,316.75 450.226,311.538 
							271.25,309.5 296.272,303.355 326.649,281.406 						"/>
						<polygon style="fill:#B64400;" points="345.36,264.368 328.136,258.956 331.474,264.031 323.543,265.696 287.929,300.244 
							220.269,317.116 250.876,312.617 296.272,303.355 326.649,281.406 						"/>
						<polygon style="fill:#DC6B28;" points="433.511,297.297 447.797,311.538 315.318,319.528 430.083,305.864 406.94,303.596 
							408.94,300.321 						"/>
						<polygon style="fill:#F28D56;" points="394.94,284.951 429.797,296.289 408.654,298.809 414.654,295.281 400.654,297.297 
							388.449,307.057 349.32,308.179 380.49,304.629 389.928,296.294 382.94,297.045 341.013,307.902 375.317,293.302 
							384.369,289.486 						"/>
						<polygon style="fill:#F28D56;" points="377.511,269.178 345.36,264.368 329.571,271.457 324.691,281.33 312.06,288.165 
							294.263,301.33 282.385,305.417 297.889,303.424 317.515,288.925 329.284,281.836 338.183,272.976 339.411,272.857 
							335.226,285.706 325.226,288.73 308.369,301.833 325.797,290.746 336.369,287.47 345.226,272.352 						"/>
						<polygon style="fill:#C35407;" points="142.459,273.662 179.573,286.577 146.369,311.538 63.877,305.812 92.829,303.447 
							130.983,297.239 140.154,283.502 124.512,293.707 						"/>
						<polygon style="fill:#B64400;" points="160.781,283.711 179.573,286.577 156.372,304.264 134.913,308.805 136.401,305.569 
							159.065,295.245 143.644,297.969 						"/>
						<polygon style="fill:#F28D56;" points="301.302,249.318 272.908,258.135 224.118,268.01 179.573,286.577 148.654,310.148 
							180.368,288.225 205.511,280.163 192.654,296.793 165.512,308.384 194.654,299.565 217.511,276.635 232.94,270.588 
							246.63,269.933 242.369,286.714 211.226,304.856 244,290.344 263.512,270.336 265.89,283.8 232.083,306.179 268.067,287.626 
							272.654,281.423 274.94,265.297 278.308,264.059 282.654,271.092 290.94,258.493 						"/>
						<polygon style="fill:#C35407;" points="85.94,262.714 115.128,271.35 83.986,290.248 74.655,300.069 55.828,310.1 
							51.512,311.538 21.654,311.538 48.083,306.494 81.226,281.423 86.512,267.69 73.226,275.376 						"/>
						<polygon style="fill:#B64400;" points="94.956,265.382 115.128,271.35 83.986,290.248 74.655,300.069 55.828,310.1 
							48.083,306.494 61.869,303.715 81.029,290.369 85.764,283.425 						"/>
						<polygon style="fill:#F28D56;" points="137.986,272.106 115.128,271.35 95.123,283.49 104.512,280.163 97.654,285.958 
							83.986,290.248 73.7,299.571 55.7,309.902 76.271,300.831 86.271,292.516 99.654,290.242 110.94,283.565 119.2,282.131 
							116.083,288.478 110.41,289.237 105.114,294.612 89,299 106.25,297 113.667,294.871 118.369,292.762 						"/>
					</g>
				</g>
				<path style="fill:#C35407;" d="M186.574,303.127c-38.839-6.046-155.368,13.75-186.348-7.177v99.479h449.807l0.193-97.064
					C414.67,282.179,340.411,327.076,186.574,303.127z"/>
				<path style="opacity:0.2;fill:#512500;" d="M450.224,299.039h-58.265c-43.96,7.092-109.077,19.081-205.385,4.088
					c-36.702-5.714-142.767,11.643-180.471-4.089H0.226l0,0l56.327,20.167l26.794,5.024c0,0,25.724-4.173,30.138-4.556
					c4.415-0.383,22.957-0.383,22.957-0.383l49.446-6.119l36.201,7.649c0,0,45.031,4.207,49.446,4.972
					c4.415,0.765,29.138,4.207,29.138,4.207l45.031-6.884l33.552-2.677l15.893-7.649l38.85-6.12L450.224,299.039L450.224,299.039z"
					/>
				<path style="fill:#DC6B28;" d="M186.654,326.251c120,26.169,198.857,11.976,263.571,1.331v103.789h-450V325.737
					C76.083,302.3,123.096,312.391,186.654,326.251z"/>
				<path style="fill:#C35407;" d="M230.654,340.888c122.601,20.167,189.143,37.258,219.571,23.951v66.531h-450V364.84
					C73.512,334.68,152.883,328.095,230.654,340.888z"/>
				<path style="fill:#E97D32;" d="M191.797,339.558c-38.621-5.724-166.845,8.923-191.571,21.29V450h450v-85.16
					C418.94,375.485,350.197,363.033,191.797,339.558z"/>
			</g>
			<g>
				<path style="fill:#F28D56;" d="M215.226,435.807c0,0,56.799-31.336,146.571-38.588c30.348-2.452,67.714,3.105,67.714,3.105
					C372.369,371.049,271.797,396.775,215.226,435.807z"/>
				<path style="fill:#DC6B28;" d="M215.226,435.807c18.286-14.193,127.143-80.281,214.286-35.483
					C339.797,367.501,215.226,435.807,215.226,435.807z"/>
			</g>
			<g>
				<path style="fill:#DC6B28;" d="M49.285,414.205c90.917,36.373,266.088,13.465,138.042-36.044
					C256.348,420.281,113.07,435.881,49.285,414.205z"/>
				<path style="fill:#F28D56;" d="M15.437,408.786c13.714-10.645,80.175-47.032,142.659-27.064
					C88.008,374.19,15.437,408.786,15.437,408.786z"/>
				<path style="fill:#DC6B28;" d="M359.609,324.476c8.47-6.575,49.519-29.048,88.111-16.716
					C404.432,303.108,359.609,324.476,359.609,324.476z"/>
				<path style="fill:#B64400;" d="M394.232,318.795c-11.267,7.228-65.312,30.202-114.133,8.835
					C335.407,339.808,394.232,318.795,394.232,318.795z"/>
			</g>
		</g>
		<path style="fill:#E97D32;" d="M49.173,321.099c25.323-9.065,63.72-9.01,89.906,4.696
			C100.88,315.339,49.173,321.099,49.173,321.099z"/>
		<path style="fill:#DC6B28;" d="M140.472,305.644c21.633-4.581,53.968-0.778,75.559,12.46
			C184.214,306.22,140.472,305.644,140.472,305.644z"/>
		<g>
			<path style="fill:#DC6B28;" d="M282.145,390.613c-3.132,0-5.67,0.707-5.67,1.58c0,0.872,2.539,1.58,5.67,1.58
				c3.132,0,5.67-0.707,5.67-1.58C287.815,391.321,285.276,390.613,282.145,390.613z M280.775,392.018
				c-1.169,0-2.116-0.267-2.116-0.598s0.947-0.598,2.116-0.598c1.169,0,2.116,0.268,2.116,0.598S281.944,392.018,280.775,392.018z"
				/>
			<path style="fill:#F28D56;" d="M288.595,418.132c-2.201,0-3.986,0.497-3.986,1.111c0,0.613,1.785,1.111,3.986,1.111
				c2.201,0,3.986-0.497,3.986-1.111C292.581,418.629,290.797,418.132,288.595,418.132z M287.633,419.119
				c-0.822,0-1.487-0.188-1.487-0.42c0-0.232,0.666-0.42,1.487-0.42s1.487,0.188,1.487,0.42
				C289.12,418.931,288.454,419.119,287.633,419.119z"/>
			<path style="fill:#F28D56;" d="M174.655,376.04c-3.44,0-6.228,0.777-6.228,1.735s2.788,1.735,6.228,1.735
				s6.228-0.777,6.228-1.735S178.095,376.04,174.655,376.04z M173.151,377.583c-1.284,0-2.324-0.294-2.324-0.656
				c0-0.363,1.041-0.657,2.324-0.657c1.284,0,2.324,0.294,2.324,0.657C175.476,377.289,174.435,377.583,173.151,377.583z"/>
			<path style="fill:#DC6B28;" d="M53.945,417.608c-3.44,0-6.228,0.777-6.228,1.735c0,0.958,2.788,1.735,6.228,1.735
				c3.44,0,6.228-0.777,6.228-1.735C60.173,418.385,57.385,417.608,53.945,417.608z M52.441,419.151
				c-1.284,0-2.324-0.294-2.324-0.656c0-0.362,1.041-0.656,2.324-0.656s2.324,0.294,2.324,0.656
				C54.766,418.857,53.725,419.151,52.441,419.151z"/>
			<ellipse style="fill:#DC6B28;" cx="61.366" cy="422.885" rx="2.324" ry="0.656"/>
			<path style="fill:#F28D56;" d="M145.77,373.835c-1.284,0-2.324-0.294-2.324-0.656c0-0.363,1.041-0.656,2.324-0.656
				c1.284,0,2.324,0.294,2.324,0.656C148.094,373.541,147.053,373.835,145.77,373.835z"/>
			<ellipse style="fill:#F28D56;" cx="151.648" cy="376.406" rx="2.324" ry="0.656"/>
			<ellipse style="fill:#DC6B28;" cx="287.624" cy="394.779" rx="2.324" ry="0.656"/>
			<ellipse style="fill:#F28D56;" cx="392.602" cy="406.132" rx="2.324" ry="0.656"/>
			<path style="fill:#F28D56;" d="M397.388,408.695c-1.873,0-3.391-0.429-3.391-0.958s1.518-0.958,3.391-0.958
				c1.873,0,3.391,0.429,3.391,0.958S399.261,408.695,397.388,408.695z"/>
			<path style="fill:#F28D56;" d="M201.317,444.844c-1.284,0-2.324-0.294-2.324-0.656c0-0.362,1.041-0.656,2.324-0.656
				s2.324,0.294,2.324,0.656C203.641,444.551,202.601,444.844,201.317,444.844z"/>
			<path style="fill:#DC6B28;" d="M206.517,438.808c-2.194,0-3.973-0.502-3.973-1.122c0-0.62,1.779-1.122,3.973-1.122
				c2.194,0,3.973,0.503,3.973,1.122C210.49,438.305,208.711,438.808,206.517,438.808z"/>
			<path style="fill:#DC6B28;" d="M34.594,408.019c-1.284,0-2.324-0.294-2.324-0.656c0-0.363,1.041-0.656,2.324-0.656
				c1.284,0,2.324,0.294,2.324,0.656C36.918,407.725,35.878,408.019,34.594,408.019z"/>
		</g>
	</g>
</g>
<g>
	<path style="opacity:0.4;fill:#512500;" d="M324.343,391.486c1.033-5.089-0.664-5.796-1.537-8.341
		c-0.873-2.545-4.893-12.666-4.361-16.704c0.234-1.775-3.555-0.845-4.054,0.224s0.079,3.616,1.292,3.898
		c1.213,0.283,2.136,2.403,2.846,4.524c0.709,2.121,2.435,11.876,2.522,14.138c0.087,2.262-7.511-17.081-7.767-19.255
		c-0.649-5.515-0.557-5.976-2.355-5.835c-1.798,0.141-2.986,0.48-1.497,3.794c0.534,1.188,3.402,7.723,4.822,11.965
		c1.419,4.241,2.95,11.734,2.981,13.572c0.031,1.838-2.172,10.179-0.489,13.996c-6.246-4.383-7.238-6.221-18.238-5.372
		c-1.067-4.807-1.349-6.927-1.348-9.331c0.001-2.403-1.083-17.498-1.691-20.467c-0.609-2.969,0.33-7.338-0.442-8.327
		c-0.773-0.99-2.737,1.964-3.076,1.823c0.384-1.131-6.829-0.111-4.159,2.293c0.951,0.856,2.035,2.483,2.688,4.179
		c0.653,1.697,2.982,8.765,2.718,11.593c-0.265,2.827,0.049,4.383,0.419,6.362c0.37,1.979,0.316,12.017-0.268,12.441
		c-0.585,0.424-1.585,2.545-1.742,2.969c-3.607-1.414-14.322-5.655-15.881,13.148c-2.082,1.07-2.859,2.625-4.07,2.431
		c-4.912-5.003-8.767-6.797-12.064-6.797c-0.781,0-1.53,0.103-2.255,0.283c0.319-6.84,3.625-20.774,4.535-22.233
		c0.957-1.535-1.071-23.89-0.172-28.786c0.355-1.932-4.385,0.663-4.147,1.122c1.705,2.413,1.955,7.923,2.502,15.381
		c0.547,7.458-2.993,13.38-5.752,19.521c-1.335-1.535-1.431-15.354-3.257-17.328c-1.826-1.974-6.872-15.67-6.187-16.874
		c1.176-2.064-6.675-1.103-3.804,0.682c1.393,0.866,7.513,15.753,8.028,18.605c0.515,2.851,2.035,8.993,0.273,12.064
		c-1.762,3.071-0.797,7.896-1.127,13.819c-1.922-3.29-17.865-8.116-18.477-8.116c-0.611,0,0.668-9.651,1.698-12.283
		c1.03-2.632-0.901-8.116-0.868-11.844c0.032-3.729,0.261-12.994-0.437-13.151c-1.93-0.435-5.189-0.361-4.06,0.516
		c1.437,1.118,2.969,16.802,1.971,19.873c-0.998,3.071-0.491,3.729-2.406,15.134c-2.421-1.755-9.298-14.257-10.859-18.863
		c-1.56-4.606-3.176-15.067-2.713-15.605c1.945-2.261-5.856-1.191-3.917,0.482c2.872,2.479,4.957,17.316,4.909,20.825
		c-0.048,3.509,7.376,15.135,7.376,15.135s0.241,3.29-1.448,5.264c-1.689,1.974-2.834-1.068-7.251-0.849
		c-10.815,0.537-9.827,8.695-14.854,15.396c-0.444,0.592-2.015,0.612-3.488,0.67c-6.069-10.223-12.996-15.505-20.612-15.683
		c-0.133-0.005-0.265-0.005-0.398-0.005c-4.128,0-8.097,1.513-11.721,3.751c1.142-3.739,2.032-7.665,3.33-11.237
		c1.827-5.024,5.543-8.404,7.129-13.341c0.638-1.984,0.258-3.694,0.61-5.729c0.272-1.572,3.814-14.063,2.881-15.208
		c-0.775-0.951-2.55,1.468-4.158,2.47c-1.002,0.625,1.666,1.048,1.623,0.907c0.438,1.439-0.283,4.308-0.648,5.908
		c-0.907,3.978-2.49,8.859-4.554,12.217c-2.444,3.976-3.873,6.151-6.683,9.527c-2.076,2.495-2.905,6.636-4.018,6.304
		c-0.424-0.126-2.186-6.438-1.711-9.867c0.265-1.912,0.112-7.273,0.637-9.176c0.435-1.576-1.987-6.3-3.106-8.269
		c-4.558-8.017,1.023-9.781-6.172-8.576c-0.883,0.148,2.605,2.529,3.569,6.768c0.903,3.97,2.662,8.384,2.34,13.015
		c-0.643,9.276-1.97,15.207-3.866,14.924c-0.902-1.445-3.964-2.199-6.593-2.235c-2.176-0.029-6.374,3.095-8.171,2.172
		c-1.412-0.725,3.867-14.106,4.154-18.225c0.81-11.657,2.312-16.176,1.614-16.175c-6.711,0.015-1.101-0.604-2.574,6.888
		c-0.786,3.997-1.505,8.552-2.908,12.208c-1.848,4.816-4.132,13.922-5.111,13.904c-1.479-0.917-1.341-4.297-2.431-5.893
		c-3.151-4.614-2.194-6.807,0.173-13.749c3.748-10.996,10.376-15.552,2.358-13.548c-0.367,6.219-0.527,4.535-2.047,8.91
		c-1.394,4.01-5.116,9.317-5.968,13.243c-0.438,2.016,3.045,9.457,3.347,14.582c0.158,2.677-1.778,4.119-2.149,3.826
		c-2.327-1.839-5.134-2.181-8.042-1.696c-5.536,0.924-8.734,4.92-13.13,10.495c-1.301,1.65-2.747,2.41-4.2,2.642
		c-6.609-4.083-15.844-7.516-22.462-9.684c1.516-2.078,2.854-4.272,2.846-6.747c-0.008-2.28-2.121-3.919-2.348-6.197
		c-0.337-3.392,1.557-7.381,2.437-10.643c0.153-0.566,3.799-14.541,3.799-14.541c-0.862-1.563-3.716,0.565-6.091,0.408
		c-3.211-0.213-6.306,1.481-8.285,1.605c-0.211,3.613-2.241,8.281-2.38,12.348c-0.062,1.814,0.677,6.39-0.281,7.985
		c-1.121,1.866-2.858,1.011-4.83,2.394c2.789,3.536,7.871,14.896,6.921,19.545c-0.381,1.863-1.968,3.42-0.433,5.128
		c1.74,1.935,4.47,0.384,5.206-1.929c0.38-1.192-0.843-2.305-0.434-3.427c0.689-1.857,2.203-3.677,3.62-5.587
		c6.473,2.116,15.49,5.45,22.039,9.411c-1.581,0.082-3.145-0.396-4.513-0.984c0.054,2.477-0.912,2.306-1.567,3.854
		c-0.83,1.962-1.529,1.997-0.107,3.728c0.848,1.033,2.613,1.26,3.686,1.876c1.724,0.991,3.731,1.381,4.781,4.161
		c1.274,0.676,2.104-1.344,2.583-1.95c3.394-4.303,6.522-11.014,11.127-12.214c3.495-0.911,5.577,2.234,7.227,5.814
		c1.684,3.653,1.425,8.248,4.985,9.28c2.446,0.708,6.438-0.088,8.331,1.688c2.635,2.47,2.457,6.303,6.587,4.963
		c5.797-1.881,7.688-9.486,12.621-13.519c2.634-2.154,5.835-5.866,7.474-9.465c0.574-1.259,1.066-2.581,1.514-3.938
		c3.729-2.428,7.852-4.103,12.142-4.103c0.129,0,0.258,0.005,0.388,0.005c7.258,0.174,13.892,5.127,19.737,14.731
		c-1.024,0.074-1.857,0.236-1.995,0.737c-0.362,1.316-1.691,2.107-1.219,3.573c0.764,4.168,5.293,2.514,10.048,7.646
		c1.385,1.494,2.516-0.241,3.651-3.532c1.134-3.29,1.032-1.757,4.159-7.896c3.258-6.396,10.103-3.948,15.018,2.632
		c4.915,6.58,11.35,6.8,13.305,6.361c1.955-0.439,3.354,6.142,5.212,4.387c1.858-1.755,4.287-1.974,6.331-7.458
		c8.366-2.632,10.289-7.677,10.281-14.038c0-0.118,0.003-0.245,0.006-0.37c3.52-0.972,7.558,0.033,13.043,5.296
		c-0.762-0.463-1.314-0.829-1.615,0.259c-0.43,1.555,0.313,3.958,2.437,4.665c2.124,0.707,3.77,1.838,5.059,2.686
		c1.288,0.848,2.621,0.424,3.337,0.99c0.716,0.565,0.886-0.565,1.013-2.827c0.126-2.262,1.569-12.3,6.057-12.3
		c4.488,0,8.494,10.038,12.849,11.451c4.355,1.414,4.271,8.814,10.594,8.153c6.323-0.66,7.079-4.619,9.398-6.457
		c2.32-1.838,8.372-5.655,7.354-13.148C325.821,406.614,323.31,396.576,324.343,391.486z"/>
	<path style="opacity:0.4;fill:#512500;" d="M358.656,385.366c0.282-1.794,3.491-13.813,1.006-17.058
		c-1.346-1.758-2.76,1.738-5.005,1.097c-2.906-0.83-6.568,2.97-8.784,3.994c1.172,2.073,1.197,3.989,0.784,6.207
		c-0.447,2.425-2.359,5.171-1.462,7.88c1.623,4.901,4.658,9.656,6.362,14.628c0.473,1.381,0.674,2.713,1.345,4.034
		c0.75,1.475,1.95,2.535,2.029,4.176c0.08,1.658-1.123,3.044,0.835,4.564c2.218,1.722,4.565,0.342,4.729-1.717
		c0.085-1.061-1.413-2.052-1.281-3.05c0.259-1.862,2.486-2.034,2.303-4.381c-0.404-5.177-2.043-10.217-2.926-15.378
		C358.303,388.685,358.407,386.957,358.656,385.366z"/>
	<path style="opacity:0.4;fill:#512500;" d="M384.568,405.739c-0.509-6.529-2.068-12.462-4.015-18.948
		c-0.816-2.72-1.989-12.661-3.095-14.583c-0.949-1.65-12.562-0.454-14.146-0.5c0,0-0.906,3.256,1.244,8.347
		c1.776,4.205,4.79,8.041,6.923,12.118c2.37,4.532,3.589,9.122,5.298,13.773c0.582,1.585,1.017,2.283,1.176,3.895
		c0.173,1.755-1.298,3.368,0.863,5.046c2.218,1.722,4.564,0.342,4.729-1.717c0.085-1.061-1.413-2.052-1.281-3.05
		C382.525,408.258,384.751,408.087,384.568,405.739z"/>
</g>
<g>
	<path style="fill:#512500;" d="M287.553,366.245c0.837-0.755,1.923-0.623,2.351-2.119c0.427-1.496,1.816-7.729,1.175-10.222
		c-0.641-2.493-0.534-3.864-0.427-5.609c0.107-1.745-1.282-10.596-1.923-10.97c-0.641-0.374-1.923-2.244-2.137-2.618
		c-3.419,1.247-13.57,4.986-17.63-11.593c-2.351-0.997-3.312-2.493-4.595-2.119c-1.282,0.374-2.034,1.62-2.671,0.249
		c-0.637-1.371-0.214-3.49,1.816-4.114c2.03-0.623,3.526-1.621,4.701-2.368c1.175-0.748,2.564-0.374,3.206-0.873
		c0.641-0.499,0.962,0.499,1.389,2.493s3.205,10.845,7.693,10.845c4.488,0,7.159-8.851,11.326-10.097
		c4.167-1.247,3.099-7.771,9.51-7.189c6.411,0.582,7.693,4.073,10.257,5.693c2.564,1.62,9.124,4.986,9.103,11.593
		c-0.021,6.607-1.196,15.457,0.513,19.945c1.71,4.488,0.107,5.111-0.427,7.355c-0.534,2.244-2.244,9.903-2.244,11.468
		c0,1.565-3.099,2.507-3.74,1.565c-0.641-0.942-0.641-1.69,0.534-1.939c1.175-0.249,1.816-2.119,2.244-3.989
		c0.427-1.87,0.855-10.471,0.641-12.466c-0.214-1.994-4.701,12.494-5.022,14.35c-0.32,1.856-0.855,2.604-2.671,2.479
		c-1.816-0.125-2.244-2.119-1.068-2.493c1.175-0.374,2.351-2.368,3.206-6.108c0.855-3.74,1.389-10.346,1.175-11.967
		c-0.214-1.621-3.526-8.975-2.351-12.341c-5.663,3.864-6.411,5.485-17.523,4.737c-0.427,4.238-0.427,6.108-0.107,8.227
		c0.321,2.119,0.534,11.593,0.321,14.211c-0.214,2.618,1.389,3.615,0.748,4.488c-0.641,0.873-2.244,1.122-2.564,1.247
		C292.895,366.993,285.202,368.364,287.553,366.245z"/>
	<path style="fill:#512500;" d="M261.696,363.728c-0.155-3.744-0.611-15.513-1.681-16.761c-1.07-1.248-5.808-13.73-6.266-18.901
		c-0.458-5.171-2.751-9.272-11.31-11.412c-2.445-4.458-4.891-4.636-6.878-6.063c-1.987-1.426-2.904,3.923-4.891,3.566
		c-1.987-0.357-8.406-0.178-12.838,5.171c-4.432,5.349-11.098,7.339-14.825,2.14c-3.578-4.991-3.362-3.745-4.738-6.419
		c-1.376-2.675-2.635-4.086-3.909-2.871c-4.379,4.172-9.029,2.828-9.488,6.215c-0.365,1.192,1.022,1.835,1.481,2.905
		c0.458,1.07,5.525,0.246,6.474,1.182c5.518,5.448,5.128,12.079,15.983,12.516c4.432,0.178,5.354-2.295,7.188-0.69
		c1.834,1.605,1.834,4.28,1.834,4.28s-6.572,9.45-6.266,12.303c0.306,2.853-0.611,13.373-2.904,14.265
		c-2.292,0.891-0.917,2.675,2.14,2.318c3.057-0.357,1.681-8.202,2.904-11.947c1.223-3.745,7.183-13.908,9.476-15.335
		c2.751,9.272,2.292,9.807,3.515,12.303c1.223,2.496,2.14,12.125-0.153,12.482c-2.293,0.357,1.223,1.961,2.904,1.248
		c1.681-0.713,0.611-4.814,0.306-7.846c-0.306-3.031,1.223-7.489,0-9.629c-1.223-2.14-3.209-9.985-2.598-9.985
		c0.611,0,16.201-3.923,17.882-6.598c0.764,4.814,0.153,8.737,2.14,11.234c1.987,2.496,0.917,7.489,0.611,9.807
		c-0.306,2.318-3.515,10.342-6.572,11.412c-3.057,1.07,0.917,2.853,2.904,1.783c1.987-1.07,4.127-9.629,5.808-11.233
		c1.681-1.605,0.764-12.838,1.987-14.086c3.21,4.993,7.183,9.807,7.183,15.87s0.153,5.171-1.375,7.132
		C256.194,366.046,261.762,365.321,261.696,363.728z"/>
	<path style="fill:#512500;" d="M170.479,351.358c1.512,2.615,2.292,6.416,2.544,9.513c0.102,1.246,0.35,3.48-0.324,4.6
		c0.066-0.11-3.399,2.726-2.236,2.793c1.217,0.07,3.029,0.267,4.215-0.163c0.545-0.202-0.365-10.618-0.379-11.843
		c-0.018-1.585,0.644-2.916,0.333-4.461c-0.774-3.845-3.934-6.477-4.934-10.389c-1.059-4.141-1.064-8.903-2.545-12.868
		c-1.047-2.802-3.637-5.693-5.917-7.37c-4.269-3.141-4.909-9.062-10.396-10.527c-3.909-1.044-4.363,1.941-7.404,3.865
		c-2.186,1.382-6.047,0.762-8.609,1.314c-3.73,0.803-4.227,4.382-6.513,7.227c-2.239,2.787-4.839,5.236-8.184,4.527
		c-4.407-0.935-6.431-6.161-9.117-9.511c-0.379-0.472-0.877-2.046-2.262-1.519c-1.507,2.165-3.579,2.469-5.466,3.24
		c-1.174,0.48-2.977,0.657-3.994,1.461c-1.706,1.348-1.013,1.375-0.506,2.903c0.4,1.205,1.395,1.073,0.933,3.001
		c3.019-0.944,6.794-1.539,9.104,1.345c3.478,4.342,6.019,7.454,11.403,8.173c2.829,0.378,5.691,0.111,8.321-1.321
		c0.419-0.228,2.117,0.895,1.519,2.979c-1.146,3.991-5.853,9.785-5.747,11.356c0.206,3.058,3.055,7.19,3.789,10.313
		c0.8,3.407,0.933,1.38,0.276,6.223c7.701-3.769,2.115-1.271,0.176-9.835c-1.224-5.406-1.821-7.114,2.09-10.707
		c1.352-1.243,1.771-3.874,3.401-4.589c0.982-0.013,1.767,7.078,2.823,10.828c0.802,2.847,0.771,6.394,0.899,9.507
		c0.241,5.835-5.648,7.158,0.416,6.464c1.929-0.221,0.964-4.618,2.072-13.696c0.391-3.207-2.686-13.628-1.154-14.192
		c1.949-0.719,5.633,1.714,7.814,1.691c2.635-0.028,5.821-0.616,6.96-1.741c1.942-0.22,2.293,4.398,1.41,11.622
		c-0.441,3.606-2.926,7.044-4.482,10.135c-1.662,3.3-5.836,5.417-4.977,5.532c6.997,0.938,2.001-0.698,7.878-6.941
		c1.443-1.533,4.642-5.212,4.467-6.439c-0.212-1.482,0.823-5.657,0.873-7.146c0.089-2.67,2.89-7.586,3.335-7.684
		c1.167-0.258,1.315,2.966,2.98,4.909C167.618,346.569,168.689,348.262,170.479,351.358z"/>
	<path style="fill:#512500;" d="M354.148,373.689c-2.738,1.034-5.852,0.986-8.276-0.29c0.752-2.584,0.62-2.409-0.242-5.173
		c-0.938-3.023-3.407-6.445-3.058-9.822c0.63-6.108,2.702-12.035,3.398-18.232c0.193-1.722,0.124-3.382,0.528-5.028
		c0.451-1.838,1.436-3.16,1.183-5.205c-0.256-2.066-1.74-3.794-0.09-5.689c1.869-2.147,4.495-0.426,5.077,2.14
		c0.3,1.322-0.997,2.557-0.663,3.801c0.637,2.321,2.898,2.535,3.19,5.461c0.646,6.453,0.027,12.734,0.19,19.167
		c0.053,2.09,0.507,4.243,1.079,6.228c0.646,2.236,4.342,5.826,2.866,8.372C358.154,371.444,356.263,372.89,354.148,373.689z"/>
	<path style="fill:#512500;" d="M74.992,374.061c-3.225,0.236-6.929-0.426-8.901-0.563c0.031-4.009-1.729-7.893-1.596-12.405
		c0.059-2.012,1.104-7.089,0.252-8.859c-0.996-2.07-2.791-1.122-4.67-2.656c3.025-3.923,8.866-16.526,8.227-21.684
		c-0.256-2.066-1.74-3.794-0.09-5.689c1.869-2.147,4.495-0.426,5.077,2.14c0.3,1.322-0.997,2.557-0.663,3.802
		c1.21,4.411,6.216,8.625,5.872,14.064c-0.16,2.529-2.383,4.348-2.762,6.875c-0.563,3.763,1.064,8.189,1.726,11.808
		c0.115,0.628,2.576,11.359,3.003,10.592C79.501,373.22,77.378,373.886,74.992,374.061z"/>
	<path style="fill:#512500;" d="M376.913,373.312c-1.15,1.594-5.77,1.147-7.344,1.205c-4.729,0.173-7.249-0.507-6.13-6.853
		c0.924-5.241,3.161-10.023,4.468-15.105c1.452-5.648,1.74-11.37,2.507-17.166c0.261-1.975,0.555-2.846,0.387-4.854
		c-0.182-2.188-1.98-4.198-0.16-6.289c1.869-2.147,4.495-0.426,5.077,2.14c0.3,1.322-0.997,2.557-0.663,3.801
		c0.637,2.321,2.898,2.535,3.19,5.461c0.814,8.137,0.457,15.532-0.176,23.618C377.806,362.659,378.874,370.551,376.913,373.312z"/>
	<path style="fill:#7F3905;" d="M312.432,334.59c-0.09,0.257-0.144,0.551-0.173,0.87c-0.057-0.789-0.018-1.496,0.173-2.043
		l0.464-1.329l0.538-0.367L312.432,334.59z M290.865,365.573c0.294-1.03,1.507-6.133,1.362-9.363
		c-0.121,3.172-1.101,7.278-1.362,8.19c-0.285,0.999-0.82,1.514-1.342,1.844c0.432-0.073,0.844-0.174,1.19-0.278
		C290.766,365.839,290.823,365.721,290.865,365.573z M66.065,354.976c-0.037,1.125-0.174,2.417-0.344,3.849
		c-0.108,0.902-0.21,1.755-0.226,2.297c-0.008,0.286,0.012,0.565,0.019,0.848c0.036-0.53,0.118-1.228,0.207-1.971
		C65.954,358.04,66.131,356.328,66.065,354.976z M131.026,339.776c0.188-0.655,0.194-1.222,0.116-1.703
		c-0.027,0.171-0.063,0.347-0.116,0.53c-0.638,2.222-2.231,4.833-3.637,7.138c-0.865,1.418-2.05,3.36-2.073,3.875
		c0.017,0.248,0.061,0.51,0.117,0.78c0.313-0.785,1.239-2.307,1.956-3.482C128.795,344.609,130.388,341.998,131.026,339.776z
		 M76.48,361.072c-0.177-0.967-0.425-1.994-0.688-3.082c-0.51-2.112-1.066-4.43-1.154-6.671c-0.111,2.592,0.554,5.361,1.154,7.844
		c0.263,1.088,0.511,2.115,0.688,3.082c0.064,0.35,0.672,3.029,1.329,5.61c0.468,1.84,0.812,3.094,1.097,3.959
		c0.116-0.096,0.222-0.197,0.319-0.303c-0.344-0.806-0.76-2.248-1.416-4.828C77.153,364.102,76.544,361.422,76.48,361.072z
		 M69.319,329.372c-0.33,5.778-5.02,15.748-7.812,19.921c0.202,0.089,0.406,0.157,0.611,0.216
		C65.152,344.564,69.65,334.505,69.319,329.372z M68.969,324.034c0.363-0.417,0.753-0.628,1.16-0.628
		c0.827,0,1.703,0.857,2.08,1.973c0.1-0.305,0.16-0.58,0.107-0.813c-0.292-1.287-1.273-2.333-2.188-2.333
		c-0.407,0-0.797,0.211-1.16,0.628c-0.542,0.623-0.604,1.166-0.439,1.928C68.608,324.538,68.744,324.293,68.969,324.034z
		 M364.424,369.011c0.53-3.002,1.529-5.932,2.495-8.765c0.692-2.03,1.408-4.131,1.957-6.265c1.053-4.098,1.51-8.286,1.952-12.338
		c0.18-1.643,0.359-3.292,0.578-4.947c0.063-0.474,0.127-0.882,0.187-1.259c0.168-1.063,0.305-1.931,0.243-3.232
		c-0.035,0.723-0.131,1.349-0.243,2.059c-0.06,0.377-0.124,0.785-0.187,1.259c-0.219,1.655-0.398,3.305-0.578,4.947
		c-0.442,4.052-0.899,8.24-1.952,12.338c-0.549,2.134-1.265,4.234-1.957,6.265c-0.966,2.833-1.965,5.763-2.495,8.765
		c-0.216,1.226-0.29,2.228-0.226,3.022C364.231,370.309,364.303,369.699,364.424,369.011z M126.82,354.169
		c0.138,0.302,0.277,0.605,0.417,0.906c-0.286-1.277-0.503-2.367-0.571-3.364C126.61,352.475,126.675,353.279,126.82,354.169z
		 M351.017,330.295c-0.084,0.417-0.105,0.863,0.02,1.328c0.353,1.284,1.092,2.04,1.744,2.706c0.721,0.735,1.289,1.316,1.417,2.595
		c0.192,1.918,0.268,3.843,0.288,5.758c0.002-2.301-0.056-4.62-0.288-6.931c-0.128-1.278-0.696-1.859-1.417-2.595
		c-0.652-0.666-1.392-1.422-1.744-2.706C351.023,330.397,351.028,330.347,351.017,330.295z M371.396,326.079
		c0.363-0.417,0.754-0.629,1.16-0.629c0.827,0,1.704,0.859,2.08,1.974c0.1-0.305,0.16-0.58,0.107-0.813
		c-0.291-1.287-1.272-2.334-2.188-2.334c-0.406,0-0.797,0.212-1.16,0.629c-0.57,0.655-0.646,1.254-0.485,2.044
		C370.992,326.657,371.141,326.373,371.396,326.079z M374.071,330.295c-0.084,0.417-0.105,0.863,0.02,1.328
		c0.352,1.284,1.092,2.04,1.744,2.706c0.72,0.735,1.288,1.316,1.416,2.595c0.287,2.869,0.43,5.633,0.462,8.419
		c-0.002-3.186-0.135-6.322-0.462-9.592c-0.128-1.278-0.696-1.859-1.416-2.595c-0.652-0.666-1.393-1.422-1.744-2.706
		C374.077,330.397,374.081,330.347,374.071,330.295z M314.872,347.102c-0.071,2.819-0.573,7.617-1.236,10.515
		c-0.916,4.011-2.221,6.312-3.835,6.785c-0.009,0.03,0.001,0.139,0.086,0.26c0.079,0.113,0.276,0.307,0.706,0.336
		c0.069,0.005,0.132,0.006,0.196,0.008c0.56-0.473,1.074-1.204,1.536-2.189c0.277-1.147,0.937-3.388,1.62-5.576
		C314.547,353.838,314.945,349.184,314.872,347.102z M262.599,320.285c0.224-0.504,0.63-0.849,1.207-1.025
		c2.041-0.627,3.535-1.581,4.736-2.348l0.209-0.133c0.442-0.282,0.97-0.337,1.526-0.395c0.389-0.041,0.786-0.083,1.157-0.212
		c0.11,0.346,0.242,0.879,0.395,1.593c0.024,0.117,2.761,11.636,8.671,11.636c2.931,0,5.005-2.827,7.01-5.562
		c1.48-2.016,3.008-4.101,4.603-4.577c2.119-0.634,3.11-2.355,3.984-3.874c1.064-1.85,1.905-3.31,4.46-3.31
		c0.218,0,0.447,0.011,0.688,0.033c4.244,0.386,5.969,2.069,7.637,3.697c0.701,0.685,1.363,1.331,2.178,1.846
		c0.227,0.143,0.483,0.3,0.765,0.471c2.699,1.643,7.658,4.677,7.854,9.932c0.004-0.273,0.018-0.565,0.019-0.832
		c0.017-5.47-5.115-8.595-7.873-10.273c-0.281-0.171-0.538-0.328-0.765-0.471c-0.815-0.515-1.477-1.161-2.178-1.846
		c-1.668-1.628-3.393-3.312-7.637-3.697c-0.24-0.022-0.47-0.033-0.688-0.033c-2.555,0-3.396,1.461-4.46,3.311
		c-0.874,1.52-1.865,3.24-3.984,3.874c-1.595,0.477-3.123,2.561-4.603,4.577c-2.005,2.734-4.079,5.562-7.01,5.562
		c-5.91,0-8.647-11.518-8.671-11.636c-0.153-0.714-0.285-1.247-0.395-1.593c-0.371,0.129-0.769,0.171-1.157,0.212
		c-0.557,0.059-1.084,0.113-1.526,0.396l-0.209,0.133c-1.201,0.767-2.695,1.721-4.736,2.348c-0.577,0.177-0.983,0.521-1.207,1.025
		c-0.197,0.44-0.218,0.975-0.085,1.439C262.539,320.461,262.561,320.369,262.599,320.285z M345.253,350.57
		c0.669-2.955,1.36-6.011,1.71-9.115c0.07-0.626,0.107-1.245,0.143-1.857c0.063-1.064,0.122-2.068,0.361-3.043
		c0.132-0.541,0.317-1.036,0.514-1.56c0.42-1.122,0.847-2.284,0.706-3.806c-0.094,0.979-0.401,1.817-0.706,2.633
		c-0.196,0.523-0.382,1.018-0.514,1.56c-0.239,0.975-0.299,1.979-0.361,3.043c-0.036,0.612-0.073,1.232-0.143,1.857
		c-0.35,3.104-1.041,6.16-1.71,9.115c-0.675,2.982-1.373,6.065-1.686,9.108c-0.038,0.365-0.025,0.736,0.008,1.11
		C343.891,356.593,344.583,353.532,345.253,350.57z M348.343,326.079c0.363-0.417,0.754-0.629,1.161-0.629
		c0.827,0,1.703,0.859,2.08,1.974c0.1-0.305,0.16-0.58,0.107-0.814c-0.291-1.286-1.272-2.333-2.186-2.333
		c-0.407,0-0.798,0.212-1.161,0.629c-0.542,0.623-0.603,1.166-0.438,1.928C347.983,326.583,348.118,326.338,348.343,326.079z
		 M71.643,328.25c-0.084,0.417-0.105,0.863,0.02,1.329c0.512,1.869,1.588,3.601,2.728,5.435c1.422,2.288,2.885,4.644,3.099,7.207
		c0.002-0.025,0.011-0.048,0.013-0.073c0.189-2.994-1.489-5.695-3.112-8.307c-1.139-1.834-2.215-3.565-2.728-5.435
		C71.648,328.352,71.653,328.302,71.643,328.25z M212.601,352.714c-0.077,4.081-0.904,12.334-3.577,13.373
		c-0.155,0.061-0.271,0.12-0.356,0.172c0.218,0.114,0.637,0.249,1.298,0.258c1.07-1.31,1.744-3.955,2.142-6.664
		c0.069-1.252,0.166-2.488,0.383-3.574C212.593,354.831,212.622,353.562,212.601,352.714z M241.558,365.56
		c0.289,0.097,0.668,0.174,1.082,0.174c0.2,0,0.389-0.019,0.561-0.056c0.595-0.546,1.164-1.242,1.696-2.024
		c0.566-1.162,1.154-2.636,1.613-3.787c0.186-0.466,0.366-0.919,0.544-1.353C245.713,361.537,243.727,364.791,241.558,365.56z
		 M228.954,360.036c0.026,1.902-0.171,3.66-0.715,4.703c-0.13,0.25-0.274,0.451-0.424,0.613c0.192,0.032,0.396,0.053,0.602,0.053
		c0.014,0,0.025-0.003,0.038-0.003c0.379-1.058,0.521-2.571,0.499-4.193c0.024,0.172,0.05,0.345,0.074,0.518
		c0.104,0.727,0.265,1.846,0.323,2.817c0.096-1.056-0.172-2.934-0.323-3.99C229.004,360.381,228.979,360.208,228.954,360.036z
		 M212.56,350.784c0.018,0.164,0.03,0.389,0.038,0.655c0.379-2.195,3.632-7.623,6.055-11.108l0.179-0.258v-0.314
		c0-0.038-0.004-0.332-0.062-0.77l-0.117,0.169C216.013,342.955,212.377,349.072,212.56,350.784z M293.183,361.31
		c-0.001,0.013-0.002,0.031-0.003,0.044c-0.114,1.391,0.215,2.404,0.513,3.135c0.147-0.079,0.277-0.166,0.37-0.264
		c-0.037-0.13-0.134-0.355-0.209-0.526C293.613,363.138,293.277,362.362,293.183,361.31z M259.255,347.618
		c-1.274-1.489-6.027-14.105-6.502-19.463c-0.372-4.191-1.908-8.368-10.557-10.53l-0.425-0.105l-0.21-0.384
		c-1.669-3.043-3.283-3.89-4.844-4.708c-0.575-0.302-1.17-0.614-1.739-1.022c-0.04-0.029-0.068-0.044-0.074-0.051
		c-0.271,0.113-0.806,0.941-1.097,1.391c-0.735,1.14-1.57,2.431-2.946,2.431c-0.12,0-0.243-0.011-0.367-0.033
		c-0.203-0.036-0.648-0.098-1.34-0.098c-1.519,0-6.767,0.355-10.552,4.922c-2.872,3.467-6.595,5.536-9.958,5.536
		c-2.601,0-4.831-1.193-6.449-3.451c-1.672-2.333-2.501-3.278-3.049-3.903c-0.703-0.803-1.018-1.186-1.766-2.642
		c-1.407-2.736-2.049-2.768-2.076-2.768c-0.031,0-0.119,0.034-0.254,0.163c-2.244,2.139-4.507,2.914-6.325,3.537
		c-2.043,0.7-2.716,1.017-2.862,2.089l-0.011,0.081l-0.024,0.078c-0.037,0.122,0.008,0.248,0.188,0.485
		c0.304-0.671,1.052-0.993,2.709-1.561c1.818-0.623,4.081-1.398,6.325-3.537c0.136-0.129,0.224-0.163,0.254-0.163
		c0.026,0,0.669,0.031,2.076,2.768c0.748,1.455,1.063,1.839,1.766,2.642c0.548,0.625,1.376,1.57,3.049,3.903
		c1.618,2.258,3.849,3.451,6.449,3.451c3.363,0,7.087-2.069,9.958-5.536c3.785-4.567,9.033-4.922,10.552-4.922
		c0.691,0,1.137,0.061,1.34,0.098c0.124,0.022,0.247,0.033,0.367,0.033c1.376,0,2.211-1.291,2.946-2.431
		c0.291-0.449,0.826-1.277,1.097-1.391c0.006,0.007,0.034,0.022,0.074,0.051c0.569,0.408,1.164,0.721,1.739,1.023
		c1.561,0.818,3.175,1.665,4.844,4.708l0.21,0.384l0.425,0.105c8.648,2.162,10.185,6.339,10.557,10.53
		c0.475,5.358,5.228,17.974,6.502,19.463c0.289,0.472,0.881,3.098,1.39,14.907c0.012-0.01,0.037-0.023,0.047-0.032l-0.007-0.189
		C260.167,350.852,259.552,348.103,259.255,347.618z M355.501,361.322c-0.703-2.442-1.068-4.562-1.117-6.478
		c-0.024-0.95-0.02-1.898-0.017-2.844c-0.015,1.333-0.017,2.674,0.017,4.017c0.049,1.917,0.414,4.036,1.117,6.479
		c0.25,0.866,0.829,1.809,1.442,2.806c0.671,1.092,1.392,2.276,1.635,3.301c0.366-1.197-0.684-2.926-1.635-4.474
		C356.33,363.131,355.751,362.189,355.501,361.322z M319.292,340.013c-0.042,3.374,0.142,6.482,0.983,8.69
		c0.383,1.003,0.574,1.762,0.652,2.389c0.121-0.805,0.007-1.834-0.652-3.562C319.533,345.582,319.308,342.926,319.292,340.013z
		 M315.54,366.601c-0.049,0.01-0.09,0.021-0.124,0.031c0.03,0.069,0.078,0.164,0.157,0.287c0.037,0.009,0.102,0.019,0.198,0.019
		c0.6,0,1.29-0.323,1.6-0.638c0.058-0.095,0.112-0.197,0.165-0.298c0-0.002,0.002-0.004,0.002-0.006
		c0-0.314,0.056-0.816,0.149-1.439C317.205,365.579,316.53,366.391,315.54,366.601z M248.912,353.598
		c0.209-1.389,0.488-3.267,0.421-5.107c-0.049,1.443-0.257,2.84-0.421,3.934c-0.051,0.336-0.097,0.644-0.133,0.914
		c-0.098,0.743-0.535,2.25-1.218,3.966c0.365-0.833,0.72-1.538,1.08-2.092c0.066-0.276,0.113-0.513,0.138-0.701
		C248.815,354.241,248.861,353.934,248.912,353.598z M156.744,345.78c-0.028,1.54-0.163,3.474-0.461,5.913
		c-0.331,2.708-1.724,5.306-3.029,7.627c0.562-0.608,1.078-1.2,1.542-1.758c0.71-1.503,1.289-3.079,1.487-4.696
		C156.663,349.762,156.778,347.476,156.744,345.78z M148.48,366.484c0.513,0,0.642-0.072,0.645-0.072
		c0.07-0.078,0.173-0.441,0.256-0.733c0.057-0.201,0.121-0.424,0.199-0.671c-0.55,0.559-1.107,1.047-1.603,1.459
		C148.168,366.478,148.334,366.484,148.48,366.484z M137.693,342.053c-0.107,1.358,0.242,3.493,0.794,6.638
		c0.327,1.86,0.686,3.905,0.783,5.338c0.138-1.26-0.35-4.046-0.783-6.511C138.074,345.164,137.774,343.375,137.693,342.053z
		 M129.399,361.247c0.099,0.532,0.159,1.001,0.193,1.466c0.337,0.513,0.667,0.939,0.959,1.286c0.275-0.153,0.502-0.29,0.657-0.402
		c-0.094-0.117-0.215-0.257-0.322-0.38C130.476,362.744,129.941,362.127,129.399,361.247z M137.825,366.925
		c0.243-0.481,0.461-1.037,0.632-1.66c0.045-0.468,0.08-0.998,0.109-1.546c-0.324,1.434-0.956,2.514-1.474,3.278
		C137.302,366.979,137.552,366.954,137.825,366.925z M228.886,350.419c0.197,0.344,0.292,0.814,0.329,1.354
		c0.054-1.038,0-1.952-0.329-2.527c-0.744-1.303-2.495-6.669-2.768-9.444C225.754,341.776,228.013,348.892,228.886,350.419z
		 M260.101,359.839c-0.011,2.665-0.147,3.078-1.178,4.346c-0.021,0.025-0.042,0.052-0.063,0.078c0.32-0.019,0.622-0.086,0.898-0.165
		C260.098,363.301,260.107,362.308,260.101,359.839z M171.309,347.01c-1.011-1.625-2.057-3.307-2.58-5.353
		c-0.456-1.785-0.723-3.685-0.981-5.523c-0.348-2.477-0.708-5.038-1.532-7.244c-1.002-2.681-3.521-5.404-5.573-6.914
		c-1.909-1.404-3.111-3.264-4.273-5.061c-1.576-2.439-2.938-4.544-5.789-5.306c-0.451-0.12-0.861-0.181-1.218-0.181
		c-1.131,0-1.747,0.585-2.826,1.706c-0.686,0.713-1.462,1.52-2.567,2.219c-1.602,1.014-3.769,1.097-5.865,1.177
		c-1.132,0.043-2.202,0.084-3.068,0.271c-2.114,0.455-2.976,1.994-4.067,3.941c-0.543,0.97-1.104,1.973-1.876,2.933
		c-1.996,2.484-4.483,5.024-7.805,5.025c-0.451,0-0.911-0.049-1.366-0.145c-3.636-0.772-5.785-4.069-7.681-6.979
		c-0.68-1.044-1.323-2.03-2.008-2.885c-0.1-0.125-0.209-0.303-0.329-0.509c-0.14-0.24-0.391-0.67-0.575-0.735
		c-1.346,1.728-3.033,2.32-4.532,2.846c-0.381,0.134-0.761,0.267-1.132,0.419c-0.483,0.197-1.035,0.344-1.569,0.485
		c-0.834,0.221-1.696,0.449-2.185,0.836c-0.416,0.328-0.597,0.51-0.675,0.603c0.03,0.074,0.076,0.172,0.115,0.257
		c0.075,0.163,0.16,0.359,0.245,0.573c0.088-0.075,0.187-0.158,0.316-0.26c0.489-0.387,1.351-0.615,2.185-0.836
		c0.534-0.142,1.086-0.288,1.569-0.485c0.371-0.152,0.751-0.285,1.132-0.419c1.498-0.525,3.186-1.118,4.532-2.846
		c0.185,0.065,0.435,0.495,0.575,0.735c0.12,0.206,0.229,0.384,0.329,0.509c0.686,0.854,1.328,1.841,2.008,2.885
		c1.896,2.909,4.045,6.207,7.681,6.979c0.456,0.097,0.916,0.145,1.366,0.145c3.321-0.001,5.809-2.541,7.805-5.025
		c0.771-0.96,1.333-1.963,1.876-2.933c1.091-1.947,1.953-3.486,4.067-3.941c0.867-0.187,1.936-0.228,3.068-0.271
		c2.096-0.08,4.264-0.163,5.865-1.177c1.105-0.699,1.882-1.506,2.567-2.219c1.079-1.121,1.694-1.706,2.826-1.706
		c0.357,0,0.767,0.061,1.218,0.181c2.851,0.762,4.212,2.867,5.789,5.306c1.162,1.798,2.364,3.657,4.273,5.062
		c2.052,1.51,4.571,4.233,5.573,6.914c0.824,2.206,1.184,4.767,1.532,7.244c0.258,1.838,0.525,3.738,0.981,5.523
		c0.523,2.046,1.569,3.728,2.58,5.353c1.018,1.637,1.98,3.183,2.343,4.985c0.009,0.046,0.009,0.091,0.016,0.136
		c0.055-0.447,0.072-0.875-0.016-1.309C173.289,350.192,172.327,348.647,171.309,347.01z"/>
	<g>
		<path style="fill:#512500;" d="M67.5,349.129l-0.152-0.537c0.306-0.116,30.453-11.623,37.248-25.496l0.422,0.282
			C98.131,337.439,67.803,349.015,67.5,349.129z"/>
	</g>
	<g>
		<path style="fill:#512500;" d="M175.029,329.431c-11.108,0-20.604-12.702-20.701-12.832l0.37-0.371
			c0.092,0.127,9.448,12.639,20.331,12.639c0.09,0,0.18-0.003,0.27-0.003c5.411-0.105,10.323-3.3,14.598-9.499l0.379,0.354
			c-4.372,6.337-9.408,9.604-14.971,9.709C175.214,329.431,175.122,329.431,175.029,329.431z"/>
	</g>
	<g>
		<path style="fill:#512500;" d="M253.408,326.963c-3.943,0-7.435-2.241-11.025-4.545l-0.998-0.639l0.232-0.498l0.998,0.639
			c7.618,4.888,14.195,9.106,25.507-5.975l0.365,0.371C262.474,324.336,257.676,326.963,253.408,326.963z"/>
	</g>
</g>
</svg>
