<?xml version="1.0" encoding="utf-8"?>
<!-- Generator: Adobe Illustrator 27.5.0, SVG Export Plug-In . SVG Version: 6.00 Build 0)  -->
<svg version="1.1" xmlns="http://www.w3.org/2000/svg" xmlns:xlink="http://www.w3.org/1999/xlink" x="0px" y="0px"
	 viewBox="0 0 750 500" style="enable-background:new 0 0 750 500;" xml:space="preserve">
<g id="BACKGROUND">
	
		<linearGradient id="XMLID_00000036935985977352835320000002210375627148219302_" gradientUnits="userSpaceOnUse" x1="375" y1="-94" x2="375" y2="656">
		<stop  offset="0.1507" style="stop-color:#8AA093"/>
		<stop  offset="0.756" style="stop-color:#EFC897"/>
	</linearGradient>
	<rect id="XMLID_4_" style="fill:url(#XMLID_00000036935985977352835320000002210375627148219302_);" width="750" height="500"/>
</g>
<g id="OBJECT">
	<g id="XMLID_20_">
		
			<linearGradient id="XMLID_00000144332423600997001290000005360567592912856213_" gradientUnits="userSpaceOnUse" x1="365.6885" y1="215.6651" x2="388.4162" y2="637.1301">
			<stop  offset="0" style="stop-color:#FCFFD6"/>
			<stop  offset="1" style="stop-color:#E0922F"/>
		</linearGradient>
		<path id="XMLID_3_" style="fill:url(#XMLID_00000144332423600997001290000005360567592912856213_);" d="M0,332.161
			c0,0,96.178-19.318,113.03-19.318s42.896-24.512,42.896-24.512h16.852l27.576-13.788c0,0,14.713,3.485,20.841,3.485
			c6.128,0,15.321-0.511,20.428,1.021c0,0,14.299,16.853,26.556,24.514c0,0,14.3,4.086,22.981,5.107
			c0,0,25.535,12.767,48.516,11.746c0,0,304.096,42.388,410.322,35.238v71.498L0,421.023V332.161z"/>
		<path id="XMLID_15_" style="fill:#F4BE84;" d="M202.16,279.982c0,0,2.676,14.908,3.058,16.055s-3.058,8.41-3.058,8.41
			l-23.318-14.908L202.16,279.982z"/>
		<path id="XMLID_18_" style="fill:#F4BE84;" d="M172.726,290.685l9.556,7.645l-1.911,2.294l2.676,2.676l1.529,5.734
			c0,0-3.823-0.764-4.969-1.911c-1.147-1.147-5.734-5.352-5.734-5.352h-9.556l-26.376,8.792l17.966-20.642l10.703,5.352
			L172.726,290.685z"/>
		<polygon id="XMLID_19_" style="fill:#F4BE84;" points="139.087,317.825 162.787,312.474 177.695,314.767 188.016,320.501 
			206.747,320.883 224.713,339.614 203.307,338.849 192.221,333.88 190.31,337.32 225.478,356.051 123.032,317.061 		"/>
		<polygon id="XMLID_17_" style="fill:#F4BE84;" points="241.624,279.049 238.857,288.009 243.826,294.89 241.533,299.095 
			246.884,305.211 252.236,307.887 260.263,307.887 253.765,303.299 249.178,299.095 268.181,303.562 		"/>
	</g>
	<g id="XMLID_210_">
		<g id="XMLID_209_">
			
				<linearGradient id="XMLID_00000070086756998850494610000017462136077335981184_" gradientUnits="userSpaceOnUse" x1="441.732" y1="232.9538" x2="588.2457" y2="478.8276">
				<stop  offset="0.1038" style="stop-color:#FCFFD6"/>
				<stop  offset="0.1167" style="stop-color:#FAF7CA"/>
				<stop  offset="0.1628" style="stop-color:#F4E0A6"/>
				<stop  offset="0.2146" style="stop-color:#EFCB86"/>
				<stop  offset="0.2718" style="stop-color:#EAB96A"/>
				<stop  offset="0.3365" style="stop-color:#E6AA54"/>
				<stop  offset="0.412" style="stop-color:#E39F43"/>
				<stop  offset="0.5054" style="stop-color:#E19838"/>
				<stop  offset="0.6364" style="stop-color:#E09331"/>
				<stop  offset="1" style="stop-color:#E0922F"/>
			</linearGradient>
			<path id="XMLID_14_" style="fill:url(#XMLID_00000070086756998850494610000017462136077335981184_);" d="M750,334.39v106.316
				c0,0-533.39-43.438-458.6-60.167c145.158-32.478,230.976-83.838,300.7-84.712c13.729-0.183,26.834,1.606,39.65,5.874
				C727.538,333.63,750,334.39,750,334.39z"/>
			
				<linearGradient id="XMLID_00000098941391739549771550000014993980963945677997_" gradientUnits="userSpaceOnUse" x1="659.0845" y1="339.2324" x2="702.1179" y2="296.0212">
				<stop  offset="0" style="stop-color:#B86948"/>
				<stop  offset="1" style="stop-color:#E0922F"/>
			</linearGradient>
			<path id="XMLID_11_" style="fill:url(#XMLID_00000098941391739549771550000014993980963945677997_);" d="M750,334.39v24.219
				c-15.729,1.731-17.482,2.173-48.065-0.183c-86.76-6.672-106.201-50.985-109.835-62.599c13.729-0.183,26.834,1.606,39.65,5.874
				C727.538,333.63,750,334.39,750,334.39z"/>
		</g>
		<g id="XMLID_208_">
			<path id="XMLID_7_" style="fill:#B86948;" d="M35.24,274.68c0,0,2.945,19.056,2.425,33.261l6.756-1.213
				c0,0-4.158-26.678-6.236-31.875c0,0,4.158-0.693,8.662,2.079l-1.386-2.599c0,0,4.677,0.346,8.142,5.717l-0.52-3.118
				c0,0,5.024,1.386,9.181,8.662c0,0,0-7.276-4.331-12.473c-4.331-5.197-18.71-2.079-19.922-1.213c0,0,1.732-3.465,7.276-5.37
				l-3.638-0.52c0,0,2.079-4.331,12.473-3.118l-2.945-1.906c0,0,9.181-2.772,15.418,3.638c0,0-5.89-9.874-15.418-12.127
				c-9.528-2.252-15.072,15.418-15.072,15.418s-6.93-10.221-13.339-10.567c-6.41-0.347-12.473,10.221-12.473,10.221
				s3.985-2.945,7.449-3.465l-1.039,3.118c0,0,3.984-2.772,9.355-1.906l-3.118,2.079c0,0,5.544-0.693,10.394,5.024
				c0,0-10.914,1.213-14.552,6.237c-3.638,5.024,0.173,11.607,0.173,11.607s1.039-5.717,2.425-7.622l0.347,4.504
				c0,0,1.906-5.197,5.024-7.276l0.52,3.811C27.271,283.688,31.256,275.546,35.24,274.68z"/>
			<g id="XMLID_1_">
				
					<linearGradient id="XMLID_00000044888025782002521250000001939850031971853492_" gradientUnits="userSpaceOnUse" x1="203.5194" y1="172.5908" x2="457.6068" y2="579.1902">
					<stop  offset="0" style="stop-color:#FCFFD6"/>
					<stop  offset="0.0101" style="stop-color:#FAF7CA"/>
					<stop  offset="0.046" style="stop-color:#F4E0A6"/>
					<stop  offset="0.0864" style="stop-color:#EFCB86"/>
					<stop  offset="0.1311" style="stop-color:#EAB96A"/>
					<stop  offset="0.1815" style="stop-color:#E6AA54"/>
					<stop  offset="0.2404" style="stop-color:#E39F43"/>
					<stop  offset="0.3132" style="stop-color:#E19838"/>
					<stop  offset="0.4154" style="stop-color:#E09331"/>
					<stop  offset="0.6989" style="stop-color:#E0922F"/>
					<stop  offset="0.9785" style="stop-color:#B86948"/>
				</linearGradient>
				<path id="XMLID_12_" style="fill:url(#XMLID_00000044888025782002521250000001939850031971853492_);" d="M750,394v106H0V322.249
					c0,0,33.333-19.915,56.443-31.307c1.615-0.796,3.693-0.366,5.757-0.24c41.02,2.49,138.347,83.688,370.948,108.165
					c103.703,10.908,180.102,10.394,233.69,6.179C739.475,399.358,750,394,750,394z"/>
				
					<linearGradient id="XMLID_00000005262609639425181610000009565442760738484383_" gradientUnits="userSpaceOnUse" x1="61.263" y1="362.5907" x2="666.8381" y2="362.5907">
					<stop  offset="0" style="stop-color:#B86948"/>
					<stop  offset="1" style="stop-color:#E0922F"/>
				</linearGradient>
				<path id="XMLID_10_" style="fill:url(#XMLID_00000005262609639425181610000009565442760738484383_);" d="M666.838,405.046
					c-47.454,9.594-290.823,54.905-451.681,9.72C51.477,368.782,59.631,301.769,62.199,290.702
					c41.02,2.49,138.347,83.688,370.948,108.165C536.851,409.775,613.249,409.261,666.838,405.046z"/>
			</g>
			<path id="XMLID_16_" style="fill:#AA5B3F;" d="M463.284,371.592c-0.465-1.084-2.169-2.788-4.957-2.478
				c-2.788,0.31-3.408-1.394-5.421-1.704c-2.014-0.31-3.253-0.775-3.717-0.775c-0.465,0-2.788-1.549-3.253-0.62
				c-0.465,0.929,1.394,1.549,0.465,3.717c-0.929,2.169-4.647,4.492-5.421,9.913c-0.775,5.421-8.365,7.745-12.857,5.886
				c-4.492-1.859-5.267-5.731-8.21-5.731c-2.943,0-7.125-8.984-13.166-8.055c-6.041,0.929-5.886,5.112-9.449,7.59
				c-3.563,2.478-6.196,4.337-6.196,4.337c-0.408-0.272-2.609,1.847-3.453,3.416c-1.445,0.41-4.859,1.695-6.306,4.949
				c-1.859,4.182-7.59,5.886-9.139,5.731c-1.549-0.155,0.465,4.802,4.647,2.788c1.863-0.897,3.91-1.886,5.608-2.707
				c0.426,1.229,1.402,2.349,2.992,3.177c0.003,1.218-0.343,2.77-1.562,4.489c-2.869,4.042-2.347,7.563-1.173,11.344
				c1.173,3.781,0.913,10.431,1.434,11.866c0.522,1.434,1.043,3.129,0.913,3.521c-0.13,0.391,0.261,1.826,1.304,1.956
				c1.043,0.13,4.564,0.13,4.564,0.13s0.522-1.956-1.173-2.869c-1.695-0.913-1.695-1.043-1.826-2.608
				c-0.13-1.565-2.086-9.388-1.826-10.823c0.261-1.434,1.434-2.217,3.651-5.737c0,0-0.782,4.303-1.434,5.607
				c-0.652,1.304,0.782,3.781,1.956,6.259c1.173,2.478,3.781,6.259,3.781,7.824c0,1.565,2.086,2.217,2.086,2.217
				s2.999,0.13,3.781,0.261c0.782,0.13,2.608-0.13,1.956-0.652c-0.652-0.522-0.782-1.956-2.347-2.738
				c-1.565-0.782-2.608-1.956-2.608-2.478s-4.173-9.128-4.173-10.171s2.738-4.825,4.955-6.65c2.099-1.729,5.596-5.792,6.294-8.212
				c3.505,0.156,6.974,0.236,9.862,0.246c-0.16,1.967-0.318,4.608-0.248,6.793c0.13,4.042-2.999,10.301-2.347,14.213
				c0.652,3.912-0.13,6.259,1.434,7.302c1.565,1.043,3.651,1.043,3.912,0.522c0.261-0.522-1.173-5.085-1.173-7.302
				c0-2.217-0.913-5.216,0.652-9.388c1.565-4.173,1.956-8.997,1.956-10.562c0-0.446-0.075-1.072-0.181-1.739
				c0.193-0.018,0.385-0.037,0.576-0.058c1.49,2.714,3.853,6.214,7.167,8.838c6.259,4.955,4.564,11.866,4.173,12.779
				c-0.391,0.913-1.434,7.172-0.652,8.085c0.782,0.913,1.304,1.826,3.781,1.956c2.478,0.13,1.565-1.826,0.782-4.042
				c-0.782-2.217-0.13-15.126-0.652-16.56c-0.521-1.434-4.955-4.303-5.998-6.52c-0.563-1.196-1.166-3.565-2.05-5.783
				c3.443-0.934,5.936-2.059,6.685-2.558c1.394-0.929,11.307-2.324,14.251-6.351c2.943-4.027,3.253-11.772,4.027-14.251
				c0.775-2.478,3.408-4.337,4.492-4.337c1.084,0,2.168,0,3.717-0.155c1.549-0.155,2.323,0.62,3.717,0.929
				c1.394,0.31,2.323-0.465,2.323-1.704S463.749,372.676,463.284,371.592z"/>
			<g id="XMLID_207_">
				<path id="XMLID_8_" style="fill:#B86948;" d="M519.617,342.525c0,0,4.343,66.929,3.703,84.414l9.604-1.338
					c0,0-7.123-76.466-9.682-82.863c0,0,5.118-0.853,10.662,2.559l-1.706-3.199c0,0,5.757,0.427,10.022,7.037l-0.64-3.838
					c0,0,6.184,1.706,11.302,10.662c0,0,0-8.956-5.331-15.353c-5.331-6.397-23.029-2.559-24.522-1.493c0,0,2.132-4.265,8.956-6.61
					l-4.478-0.64c0,0,2.559-5.331,15.353-3.838l-3.625-2.346c0,0,11.301-3.412,18.978,4.478c0,0-7.25-12.155-18.978-14.927
					c-11.728-2.772-18.552,18.978-18.552,18.978s-8.529-12.581-16.419-13.007c-7.89-0.426-15.353,12.581-15.353,12.581
					s4.904-3.625,9.169-4.265l-1.279,3.838c0,0,4.904-3.412,11.515-2.346l-3.838,2.559c0,0,6.824-0.853,12.794,6.184
					c0,0-13.434,1.493-17.912,7.677c-4.478,6.184,0.213,14.287,0.213,14.287s1.279-7.037,2.985-9.382l0.427,5.544
					c0,0,2.346-6.397,6.184-8.956l0.64,4.691C509.808,353.613,514.712,343.591,519.617,342.525z"/>
				<path id="XMLID_9_" style="fill:#B86948;" d="M528.48,407.444c0,0,4.778,1.72,7.645,8.983c0,0-0.382-8.792-4.778-14.717
					c0,0,5.352,3.058,6.498,9.939l0.765-15.29c0,0,3.823,8.027,2.102,16.055c0,0,8.601-11.659,14.144-12.806
					c0,0-8.41,9.556-11.277,15.864c0,0,4.969-4.778,14.144-5.925c0,0-10.894,5.925-11.85,9.365c0,0,6.498-2.102,12.041-1.338
					c0,0-10.512,3.823-12.997,6.881l-11.946,1.242c0,0-2.198-6.594-5.638-8.696c0,0,5.16,1.147,6.307,3.44
					c1.147,2.294,0.382,0.765,0.382,0.765S529.818,409.737,528.48,407.444z"/>
			</g>
			<path id="XMLID_13_" style="fill:#B86948;" d="M675.416,362.181c0,0-2.294,12.232,1.147,17.584
				c3.44,5.352,14.144,4.205,15.29,5.352c1.147,1.147,0.764,20.26,0.764,20.26h9.174l1.147-32.492c0,0,8.41-1.147,11.85-4.587
				c3.44-3.44,8.027-20.26,4.587-21.024c-3.44-0.764-6.116,15.673-8.792,16.819c-2.676,1.147-9.556,0.765-9.556,0.765
				s3.44-33.639-0.765-34.403C696.058,329.689,693,379,693,379s-10.703,1.147-11.85-4.205c-1.147-5.352-1.147-11.086-2.676-12.997
				C676.945,359.887,675.416,362.181,675.416,362.181z"/>
		</g>
	</g>
	<g id="XMLID_62_">
		<g id="XMLID_25_">
			<g id="XMLID_2_">
				
					<ellipse id="XMLID_6_" transform="matrix(0.2265 -0.974 0.974 0.2265 -125.6971 254.3514)" style="opacity:0.59;fill:#DADFC8;" cx="97.291" cy="206.315" rx="37.504" ry="37.504"/>
				
					<ellipse id="XMLID_30_" transform="matrix(0.2266 -0.974 0.974 0.2266 -125.7018 254.3295)" style="opacity:0.59;fill:#DADFC8;" cx="97.291" cy="206.315" rx="33.504" ry="33.504"/>
			</g>
			<g id="XMLID_5_">
				<path id="XMLID_21_" style="fill:#DCD8B9;" d="M565.581,170.594H750v-30.261c0,0-19.667-0.667-30.667,13.333
					c0,0-11-5.333-23-2.333c-12,3-16,7.333-16,7.333s-9.667-5.667-20-1.667c-10.333,4-3.667,6.667-18,6.667c-14.333,0-17.333,0-22,1
					c-4.667,1-66,4.333-66,4.333S542.828,169.855,565.581,170.594z"/>
				<path id="XMLID_24_" style="opacity:0.41;fill:#EFD9AD;" d="M352.335,212.336h168.667c0,0-20-4-33.333-4
					c-13.333,0-18-8.667-28.667-8.667c-10.667,0-2,8.667-14,2c-12-6.667-24.667-10.667-34-8.667c-9.333,2-6,12-14,10.667
					c-8-1.333-20.667-10-25.333-6c-4.667,4-4.667,9.333-12,7.333c-7.333-2-17.333,0-18.667,2c-1.333,2-35.333,3.333-28.667,4.667
					C319.001,213.002,352.335,212.336,352.335,212.336z"/>
				<path id="XMLID_26_" style="fill:#DCD8B9;" d="M0,128.333h199.333c0,0-12.667-5.333-28-4.667
					C156,124.333,150.667,115,141.667,113S126,116,126,116s-16.333-14-27-15.333C88.333,99.333,82,105,82,105
					S70.333,91,48.333,87.333C26.333,83.667,12,103.667,12,103.667s-10.667,2-12,4.667C0,108.333-0.5,128.833,0,128.333z"/>
				<path id="XMLID_27_" style="fill:#DCD8B9;" d="M406,52h297c0,0-38-10-62-10s-20-14-40-14s-6.5,9-33-3.5s-40-1.5-49.5,4
					S488,19.5,471,24s-15,13.5-27,13.5s-21.5-3.5-28,1s-2,3.5-24.5,6.5s-34,5-34,5S358.5,54,406,52z"/>
				<path id="XMLID_22_" style="opacity:0.41;fill:#EFD9AD;" d="M112.667,270.333h128c0,0-13-3-23.333-4.333
					c-10.333-1.333-12.667-9.333-19-9c-6.333,0.333-6,1.667-13.667-2.667c-7.667-4.333-14.333-1.333-16,1
					C167,257.667,158,254,152,255.333c-6,1.333-2.333,7.667-10.333,6.333c-8-1.333-12-1-15.667,1s-12.667,4-20.333,4.667
					C98,268,90,270.333,112.667,270.333z"/>
				<path id="XMLID_29_" style="opacity:0.41;fill:#EFD9AD;" d="M518.499,267.003h99.5c0,0-10.5-1-25-5.5s-17-9.5-21-9
					s-8.5,5.5-12,4c-3.5-1.5-10.5-1.5-14.5,0.5c-4,2-13.5,4-18.5,3s-6-2-8,0.5s-13,6-15,6S512.499,267.503,518.499,267.003z"/>
			</g>
		</g>
		<g id="XMLID_23_">
			<g id="XMLID_31_">
				<path id="XMLID_28_" style="fill:#DADFC8;" d="M162.813,59.112c-0.115-0.681,0.344-1.326,1.024-1.441
					c0.681-0.115,1.326,0.344,1.441,1.024c0.115,0.681-0.344,1.326-1.024,1.441C163.573,60.251,162.927,59.792,162.813,59.112z"/>
				<path id="XMLID_33_" style="fill:#DADFC8;" d="M143.537,30.548c-0.161-0.953,0.481-1.856,1.434-2.017
					c0.953-0.161,1.856,0.481,2.017,1.434c0.161,0.953-0.481,1.856-1.434,2.017C144.601,32.143,143.698,31.5,143.537,30.548z"/>
				<path id="XMLID_36_" style="fill:#DADFC8;" d="M133.401,66.614c-0.092-0.545,0.275-1.061,0.82-1.152
					c0.545-0.092,1.061,0.275,1.153,0.819c0.092,0.545-0.275,1.061-0.82,1.152C134.009,67.525,133.493,67.158,133.401,66.614z"/>
				<path id="XMLID_39_" style="fill:#DADFC8;" d="M113.591,47.648c-0.092-0.544,0.275-1.061,0.82-1.153
					c0.545-0.092,1.061,0.275,1.153,0.82c0.092,0.545-0.275,1.061-0.82,1.153C114.199,48.559,113.683,48.192,113.591,47.648z"/>
				<path id="XMLID_42_" style="fill:#DADFC8;" d="M180.249,15.981c-0.092-0.545,0.275-1.061,0.82-1.153
					c0.544-0.092,1.061,0.275,1.152,0.819c0.092,0.545-0.275,1.061-0.819,1.153C180.857,16.892,180.341,16.526,180.249,15.981z"/>
				<path id="XMLID_45_" style="fill:#DADFC8;" d="M136.735,49.571c-0.092-0.545,0.275-1.061,0.819-1.153
					c0.545-0.092,1.061,0.275,1.153,0.819c0.092,0.545-0.275,1.061-0.82,1.153C137.343,50.482,136.827,50.115,136.735,49.571z"/>
				<path id="XMLID_48_" style="fill:#DADFC8;" d="M123.713,24.261c-0.092-0.545,0.275-1.061,0.82-1.153
					c0.545-0.092,1.061,0.275,1.153,0.819c0.092,0.545-0.275,1.061-0.82,1.153C124.321,25.172,123.805,24.805,123.713,24.261z"/>
				<path id="XMLID_51_" style="fill:#DADFC8;" d="M177.838,41.489c-0.092-0.545,0.275-1.061,0.82-1.153
					c0.545-0.092,1.061,0.275,1.152,0.819c0.092,0.545-0.275,1.061-0.819,1.153S177.93,42.033,177.838,41.489z"/>
			</g>
			<g id="XMLID_53_">
				<path id="XMLID_61_" style="fill:#DADFC8;" d="M56.794,67.888c-0.115-0.681,0.344-1.326,1.024-1.441
					c0.681-0.115,1.326,0.344,1.441,1.024c0.115,0.681-0.344,1.326-1.024,1.441C57.554,69.027,56.909,68.569,56.794,67.888z"/>
				<path id="XMLID_60_" style="fill:#DADFC8;" d="M37.518,39.324c-0.161-0.953,0.481-1.856,1.434-2.017
					c0.953-0.161,1.856,0.481,2.017,1.434c0.161,0.953-0.481,1.856-1.434,2.017C38.582,40.919,37.679,40.277,37.518,39.324z"/>
				<path id="XMLID_59_" style="fill:#DADFC8;" d="M27.382,75.39c-0.092-0.545,0.275-1.061,0.819-1.152
					c0.545-0.092,1.061,0.275,1.153,0.819c0.092,0.545-0.275,1.061-0.819,1.153C27.99,76.301,27.474,75.935,27.382,75.39z"/>
				<path id="XMLID_58_" style="fill:#DADFC8;" d="M7.573,56.424c-0.092-0.545,0.275-1.061,0.82-1.153
					c0.545-0.092,1.061,0.275,1.153,0.819c0.092,0.545-0.275,1.061-0.82,1.153C8.181,57.335,7.665,56.968,7.573,56.424z"/>
				<path id="XMLID_57_" style="fill:#DADFC8;" d="M74.23,24.757c-0.092-0.545,0.275-1.061,0.819-1.153
					c0.545-0.092,1.061,0.275,1.153,0.819c0.092,0.545-0.275,1.061-0.82,1.153C74.838,25.669,74.322,25.302,74.23,24.757z"/>
				<path id="XMLID_56_" style="fill:#DADFC8;" d="M30.716,58.347c-0.092-0.545,0.275-1.061,0.819-1.153
					c0.545-0.092,1.061,0.275,1.152,0.82c0.092,0.544-0.275,1.061-0.819,1.153C31.324,59.258,30.808,58.892,30.716,58.347z"/>
				<path id="XMLID_55_" style="fill:#DADFC8;" d="M17.695,33.037c-0.092-0.545,0.275-1.061,0.819-1.153
					c0.545-0.092,1.061,0.275,1.153,0.819c0.092,0.545-0.275,1.061-0.819,1.153S17.787,33.581,17.695,33.037z"/>
				<path id="XMLID_54_" style="fill:#DADFC8;" d="M71.819,50.265c-0.092-0.545,0.275-1.061,0.82-1.153
					c0.545-0.092,1.061,0.275,1.153,0.82c0.092,0.544-0.275,1.061-0.819,1.153C72.427,51.176,71.911,50.81,71.819,50.265z"/>
			</g>
			<g id="XMLID_63_">
				<path id="XMLID_71_" style="fill:#DADFC8;" d="M110.918,85.116c-0.115-0.681,0.344-1.326,1.024-1.441
					c0.681-0.115,1.326,0.344,1.441,1.024c0.115,0.681-0.344,1.326-1.024,1.441C111.678,86.255,111.033,85.797,110.918,85.116z"/>
				<path id="XMLID_70_" style="fill:#DADFC8;" d="M91.643,56.552c-0.161-0.953,0.481-1.856,1.434-2.017
					c0.953-0.161,1.856,0.481,2.017,1.434c0.161,0.953-0.481,1.856-1.434,2.017C92.707,58.147,91.804,57.505,91.643,56.552z"/>
				<path id="XMLID_69_" style="fill:#DADFC8;" d="M81.507,92.618c-0.092-0.544,0.275-1.06,0.82-1.152s1.061,0.275,1.153,0.82
					c0.092,0.545-0.275,1.061-0.82,1.153C82.115,93.53,81.599,93.163,81.507,92.618z"/>
				<path id="XMLID_68_" style="fill:#DADFC8;" d="M61.697,73.652c-0.092-0.545,0.275-1.061,0.819-1.153
					c0.545-0.092,1.061,0.275,1.153,0.82c0.092,0.545-0.275,1.061-0.819,1.153C62.305,74.563,61.789,74.196,61.697,73.652z"/>
				<path id="XMLID_67_" style="fill:#DADFC8;" d="M128.355,41.985c-0.092-0.545,0.275-1.061,0.82-1.153
					c0.545-0.092,1.061,0.275,1.153,0.82c0.092,0.544-0.275,1.06-0.82,1.152C128.963,42.897,128.447,42.53,128.355,41.985z"/>
				<path id="XMLID_66_" style="fill:#DADFC8;" d="M84.84,75.575c-0.092-0.545,0.275-1.061,0.819-1.152
					c0.545-0.092,1.061,0.275,1.153,0.819c0.092,0.545-0.275,1.061-0.82,1.153C85.448,76.487,84.932,76.12,84.84,75.575z"/>
				<path id="XMLID_65_" style="fill:#DADFC8;" d="M71.819,50.265c-0.092-0.545,0.275-1.061,0.82-1.153
					c0.545-0.092,1.061,0.275,1.153,0.82c0.092,0.544-0.275,1.061-0.819,1.153C72.427,51.176,71.911,50.81,71.819,50.265z"/>
				<path id="XMLID_64_" style="fill:#DADFC8;" d="M125.943,67.493c-0.092-0.545,0.275-1.061,0.82-1.152
					c0.545-0.092,1.061,0.275,1.152,0.819c0.092,0.545-0.275,1.061-0.819,1.153C126.551,68.404,126.035,68.037,125.943,67.493z"/>
			</g>
			<g id="XMLID_72_">
				<path id="XMLID_80_" style="fill:#DADFC8;" d="M165.042,102.344c-0.115-0.681,0.344-1.326,1.024-1.441
					c0.681-0.115,1.326,0.344,1.441,1.024c0.115,0.681-0.344,1.326-1.024,1.441C165.802,103.483,165.158,103.025,165.042,102.344z"
					/>
				<path id="XMLID_79_" style="fill:#DADFC8;" d="M145.767,73.78c-0.161-0.953,0.481-1.856,1.434-2.017
					c0.953-0.161,1.856,0.481,2.017,1.434c0.161,0.953-0.481,1.856-1.434,2.017C146.831,75.375,145.928,74.733,145.767,73.78z"/>
				<path id="XMLID_78_" style="fill:#DADFC8;" d="M135.631,109.846c-0.092-0.545,0.275-1.061,0.82-1.153
					c0.544-0.092,1.061,0.275,1.152,0.82c0.092,0.545-0.275,1.061-0.82,1.153C136.239,110.757,135.723,110.391,135.631,109.846z"/>
				<path id="XMLID_77_" style="fill:#DADFC8;" d="M115.821,90.88c-0.092-0.545,0.275-1.061,0.82-1.153
					c0.545-0.092,1.061,0.275,1.153,0.82c0.092,0.545-0.275,1.061-0.819,1.153C116.429,91.791,115.913,91.424,115.821,90.88z"/>
				<path id="XMLID_76_" style="fill:#DADFC8;" d="M182.479,59.213c-0.092-0.545,0.275-1.061,0.82-1.153
					c0.545-0.092,1.061,0.275,1.153,0.819c0.092,0.545-0.275,1.061-0.82,1.153C183.087,60.125,182.571,59.758,182.479,59.213z"/>
				<path id="XMLID_75_" style="fill:#DADFC8;" d="M138.965,92.803c-0.092-0.545,0.275-1.061,0.82-1.153
					c0.544-0.092,1.061,0.275,1.152,0.82c0.092,0.545-0.275,1.061-0.82,1.152C139.573,93.715,139.057,93.348,138.965,92.803z"/>
				<path id="XMLID_74_" style="fill:#DADFC8;" d="M125.943,67.493c-0.092-0.545,0.275-1.061,0.82-1.152
					c0.545-0.092,1.061,0.275,1.152,0.819c0.092,0.545-0.275,1.061-0.819,1.153C126.551,68.404,126.035,68.037,125.943,67.493z"/>
				<path id="XMLID_73_" style="fill:#DADFC8;" d="M180.068,84.721c-0.092-0.545,0.275-1.061,0.82-1.153
					c0.545-0.092,1.061,0.275,1.153,0.82c0.092,0.545-0.275,1.061-0.82,1.153C180.676,85.632,180.16,85.266,180.068,84.721z"/>
			</g>
			<g id="XMLID_81_">
				<path id="XMLID_89_" style="fill:#DADFC8;" d="M219.167,119.572c-0.115-0.681,0.344-1.326,1.024-1.441
					c0.681-0.115,1.326,0.344,1.441,1.024c0.115,0.681-0.344,1.326-1.024,1.441C219.927,120.711,219.282,120.253,219.167,119.572z"
					/>
				<path id="XMLID_88_" style="fill:#DADFC8;" d="M199.891,91.008c-0.161-0.953,0.481-1.856,1.434-2.017
					c0.953-0.161,1.856,0.481,2.017,1.434c0.161,0.953-0.481,1.856-1.434,2.017C200.955,92.603,200.052,91.961,199.891,91.008z"/>
				<path id="XMLID_87_" style="fill:#DADFC8;" d="M189.755,127.074c-0.092-0.545,0.275-1.061,0.82-1.153
					c0.545-0.092,1.061,0.275,1.153,0.82c0.092,0.545-0.275,1.061-0.82,1.153C190.363,127.986,189.847,127.619,189.755,127.074z"/>
				<path id="XMLID_86_" style="fill:#DADFC8;" d="M169.946,108.108c-0.092-0.545,0.275-1.061,0.819-1.153
					c0.545-0.092,1.061,0.275,1.153,0.82c0.092,0.544-0.275,1.061-0.82,1.152C170.554,109.019,170.038,108.652,169.946,108.108z"/>
				<path id="XMLID_85_" style="fill:#DADFC8;" d="M236.603,76.441c-0.092-0.545,0.275-1.061,0.82-1.152
					c0.545-0.092,1.061,0.275,1.153,0.819c0.092,0.545-0.275,1.061-0.82,1.153C237.211,77.353,236.695,76.986,236.603,76.441z"/>
				<path id="XMLID_84_" style="fill:#DADFC8;" d="M193.089,110.031c-0.092-0.544,0.275-1.061,0.82-1.152
					c0.545-0.092,1.061,0.275,1.153,0.819c0.092,0.545-0.275,1.061-0.819,1.153C193.697,110.942,193.181,110.576,193.089,110.031z"
					/>
				<path id="XMLID_83_" style="fill:#DADFC8;" d="M180.068,84.721c-0.092-0.545,0.275-1.061,0.82-1.153
					c0.545-0.092,1.061,0.275,1.153,0.82c0.092,0.545-0.275,1.061-0.82,1.153C180.676,85.632,180.16,85.266,180.068,84.721z"/>
				<path id="XMLID_82_" style="fill:#DADFC8;" d="M234.192,101.949c-0.092-0.544,0.275-1.061,0.819-1.152
					c0.545-0.092,1.061,0.275,1.153,0.819c0.092,0.545-0.275,1.061-0.82,1.153C234.8,102.86,234.284,102.493,234.192,101.949z"/>
			</g>
			<g id="XMLID_90_">
				<path id="XMLID_98_" style="fill:#DADFC8;" d="M273.291,136.8c-0.115-0.681,0.344-1.326,1.024-1.441
					c0.681-0.115,1.326,0.344,1.441,1.024c0.115,0.681-0.344,1.326-1.024,1.441C274.051,137.939,273.406,137.481,273.291,136.8z"/>
				<path id="XMLID_97_" style="fill:#DADFC8;" d="M254.016,108.236c-0.161-0.953,0.481-1.856,1.434-2.017
					c0.953-0.161,1.856,0.481,2.017,1.434c0.161,0.953-0.481,1.856-1.434,2.017C255.08,109.831,254.177,109.189,254.016,108.236z"/>
				<path id="XMLID_96_" style="fill:#DADFC8;" d="M243.88,144.302c-0.092-0.545,0.275-1.061,0.82-1.153
					c0.545-0.092,1.061,0.275,1.153,0.82c0.092,0.544-0.275,1.061-0.82,1.152C244.488,145.214,243.972,144.847,243.88,144.302z"/>
				<path id="XMLID_95_" style="fill:#DADFC8;" d="M224.07,125.336c-0.092-0.545,0.275-1.061,0.819-1.152
					c0.545-0.092,1.061,0.275,1.153,0.819c0.092,0.545-0.275,1.061-0.82,1.153C224.678,126.247,224.162,125.881,224.07,125.336z"/>
				<path id="XMLID_94_" style="fill:#DADFC8;" d="M290.728,93.669c-0.092-0.544,0.275-1.06,0.82-1.152
					c0.545-0.092,1.061,0.275,1.153,0.82c0.092,0.545-0.275,1.061-0.82,1.153C291.336,94.581,290.82,94.214,290.728,93.669z"/>
				<path id="XMLID_93_" style="fill:#DADFC8;" d="M247.214,127.259c-0.092-0.545,0.275-1.061,0.82-1.153
					c0.545-0.092,1.061,0.275,1.152,0.82c0.092,0.545-0.275,1.061-0.82,1.153S247.305,127.804,247.214,127.259z"/>
				<path id="XMLID_92_" style="fill:#DADFC8;" d="M234.192,101.949c-0.092-0.544,0.275-1.061,0.819-1.152
					c0.545-0.092,1.061,0.275,1.153,0.819c0.092,0.545-0.275,1.061-0.82,1.153C234.8,102.86,234.284,102.493,234.192,101.949z"/>
				<path id="XMLID_91_" style="fill:#DADFC8;" d="M288.316,119.177c-0.092-0.545,0.275-1.061,0.819-1.153
					c0.545-0.092,1.061,0.275,1.153,0.82c0.092,0.545-0.275,1.061-0.82,1.153C288.924,120.089,288.408,119.721,288.316,119.177z"/>
			</g>
			<g id="XMLID_144_">
				<path id="XMLID_152_" style="fill:#DADFC8;" d="M351.395,60.305c-0.115-0.681,0.344-1.326,1.024-1.441
					c0.681-0.115,1.326,0.344,1.441,1.024c0.115,0.681-0.344,1.326-1.024,1.441C352.155,61.444,351.51,60.986,351.395,60.305z"/>
				<path id="XMLID_151_" style="fill:#DADFC8;" d="M332.12,31.741c-0.161-0.953,0.481-1.856,1.434-2.017
					c0.953-0.161,1.856,0.481,2.017,1.434c0.161,0.953-0.481,1.856-1.434,2.017C333.184,33.336,332.281,32.694,332.12,31.741z"/>
				<path id="XMLID_150_" style="fill:#DADFC8;" d="M321.984,67.807c-0.092-0.545,0.275-1.061,0.82-1.152
					c0.544-0.092,1.061,0.275,1.152,0.819c0.092,0.545-0.275,1.061-0.819,1.153C322.592,68.718,322.076,68.352,321.984,67.807z"/>
				<path id="XMLID_149_" style="fill:#DADFC8;" d="M302.174,48.841c-0.092-0.544,0.275-1.061,0.819-1.152
					c0.545-0.092,1.061,0.275,1.153,0.819c0.092,0.545-0.275,1.061-0.82,1.153C302.782,49.752,302.266,49.385,302.174,48.841z"/>
				<path id="XMLID_148_" style="fill:#DADFC8;" d="M368.832,17.174c-0.092-0.545,0.275-1.061,0.82-1.153
					c0.545-0.092,1.061,0.275,1.153,0.819c0.092,0.545-0.275,1.061-0.82,1.153C369.44,18.086,368.924,17.719,368.832,17.174z"/>
				<path id="XMLID_147_" style="fill:#DADFC8;" d="M325.318,50.764c-0.092-0.545,0.275-1.061,0.819-1.153
					c0.545-0.092,1.061,0.275,1.152,0.819c0.092,0.545-0.275,1.061-0.819,1.153S325.409,51.308,325.318,50.764z"/>
				<path id="XMLID_146_" style="fill:#DADFC8;" d="M312.296,25.454c-0.092-0.545,0.275-1.061,0.819-1.153
					c0.545-0.092,1.061,0.275,1.152,0.819c0.092,0.545-0.275,1.061-0.819,1.153C312.904,26.365,312.388,25.998,312.296,25.454z"/>
				<path id="XMLID_145_" style="fill:#DADFC8;" d="M366.421,42.682c-0.092-0.545,0.275-1.061,0.819-1.153
					c0.545-0.092,1.061,0.275,1.153,0.819c0.092,0.545-0.275,1.061-0.82,1.153C367.029,43.593,366.513,43.226,366.421,42.682z"/>
			</g>
			<g id="XMLID_135_">
				<path id="XMLID_143_" style="fill:#DADFC8;" d="M245.377,69.081c-0.115-0.681,0.344-1.326,1.024-1.441
					c0.681-0.115,1.326,0.344,1.441,1.024c0.115,0.681-0.344,1.326-1.024,1.441C246.136,70.22,245.492,69.762,245.377,69.081z"/>
				<path id="XMLID_142_" style="fill:#DADFC8;" d="M226.101,40.517c-0.161-0.953,0.481-1.856,1.434-2.017
					c0.953-0.161,1.856,0.481,2.017,1.434c0.161,0.953-0.481,1.856-1.434,2.017C227.165,42.112,226.262,41.47,226.101,40.517z"/>
				<path id="XMLID_141_" style="fill:#DADFC8;" d="M215.965,76.583c-0.092-0.545,0.275-1.061,0.82-1.152
					c0.545-0.092,1.061,0.275,1.153,0.819c0.092,0.545-0.275,1.061-0.82,1.153C216.573,77.495,216.057,77.128,215.965,76.583z"/>
				<path id="XMLID_140_" style="fill:#DADFC8;" d="M196.156,57.617c-0.092-0.545,0.275-1.061,0.82-1.153
					c0.545-0.092,1.061,0.275,1.152,0.819c0.092,0.545-0.275,1.061-0.82,1.153C196.763,58.528,196.247,58.161,196.156,57.617z"/>
				<path id="XMLID_139_" style="fill:#DADFC8;" d="M262.813,25.95c-0.092-0.545,0.275-1.061,0.82-1.153
					c0.545-0.092,1.061,0.275,1.153,0.819c0.092,0.545-0.275,1.061-0.819,1.153C263.421,26.862,262.905,26.495,262.813,25.95z"/>
				<path id="XMLID_138_" style="fill:#DADFC8;" d="M219.299,59.54c-0.092-0.545,0.275-1.061,0.82-1.153
					c0.545-0.092,1.061,0.275,1.153,0.82c0.092,0.544-0.275,1.061-0.819,1.153C219.907,60.452,219.391,60.085,219.299,59.54z"/>
				<path id="XMLID_137_" style="fill:#DADFC8;" d="M206.277,34.23c-0.092-0.545,0.275-1.061,0.82-1.153
					c0.545-0.092,1.061,0.275,1.153,0.819c0.092,0.545-0.275,1.061-0.819,1.153C206.885,35.141,206.369,34.775,206.277,34.23z"/>
				<path id="XMLID_136_" style="fill:#DADFC8;" d="M260.402,51.458c-0.092-0.545,0.275-1.061,0.82-1.153
					c0.545-0.092,1.061,0.275,1.152,0.82c0.092,0.544-0.275,1.061-0.82,1.153C261.01,52.369,260.494,52.003,260.402,51.458z"/>
			</g>
			<g id="XMLID_126_">
				<path id="XMLID_134_" style="fill:#DADFC8;" d="M299.501,86.309c-0.115-0.681,0.344-1.326,1.024-1.441
					c0.681-0.115,1.326,0.344,1.441,1.024c0.115,0.681-0.344,1.326-1.024,1.441C300.261,87.448,299.616,86.99,299.501,86.309z"/>
				<path id="XMLID_133_" style="fill:#DADFC8;" d="M280.225,57.745c-0.161-0.953,0.481-1.856,1.434-2.017
					c0.953-0.161,1.856,0.481,2.017,1.434c0.161,0.953-0.481,1.856-1.434,2.017S280.386,58.698,280.225,57.745z"/>
				<path id="XMLID_132_" style="fill:#DADFC8;" d="M270.09,93.811c-0.092-0.544,0.275-1.061,0.819-1.152
					c0.545-0.092,1.061,0.275,1.153,0.82c0.092,0.545-0.275,1.061-0.819,1.153C270.697,94.723,270.181,94.356,270.09,93.811z"/>
				<path id="XMLID_131_" style="fill:#DADFC8;" d="M250.28,74.845c-0.092-0.545,0.275-1.061,0.819-1.153
					c0.545-0.092,1.061,0.275,1.153,0.82c0.092,0.545-0.275,1.061-0.82,1.153C250.888,75.756,250.372,75.39,250.28,74.845z"/>
				<path id="XMLID_130_" style="fill:#DADFC8;" d="M316.938,43.178c-0.092-0.545,0.275-1.061,0.819-1.153
					c0.545-0.092,1.061,0.275,1.152,0.82c0.092,0.544-0.275,1.06-0.819,1.152C317.546,44.09,317.029,43.723,316.938,43.178z"/>
				<path id="XMLID_129_" style="fill:#DADFC8;" d="M273.423,76.768c-0.092-0.545,0.275-1.061,0.82-1.153
					c0.544-0.092,1.061,0.275,1.152,0.82c0.092,0.545-0.275,1.061-0.82,1.153C274.031,77.68,273.515,77.313,273.423,76.768z"/>
				<path id="XMLID_128_" style="fill:#DADFC8;" d="M260.402,51.458c-0.092-0.545,0.275-1.061,0.82-1.153
					c0.545-0.092,1.061,0.275,1.152,0.82c0.092,0.544-0.275,1.061-0.82,1.153C261.01,52.369,260.494,52.003,260.402,51.458z"/>
				<path id="XMLID_127_" style="fill:#DADFC8;" d="M314.526,68.686c-0.092-0.545,0.275-1.061,0.82-1.152
					c0.545-0.092,1.061,0.275,1.153,0.819c0.092,0.545-0.275,1.061-0.819,1.153C315.134,69.598,314.618,69.231,314.526,68.686z"/>
			</g>
			<g id="XMLID_117_">
				<path id="XMLID_125_" style="fill:#DADFC8;" d="M353.625,103.537c-0.115-0.681,0.344-1.326,1.024-1.441
					c0.681-0.115,1.326,0.344,1.441,1.024c0.115,0.681-0.344,1.326-1.024,1.441C354.385,104.676,353.74,104.218,353.625,103.537z"/>
				<path id="XMLID_124_" style="fill:#DADFC8;" d="M334.35,74.973c-0.161-0.953,0.481-1.856,1.434-2.017
					c0.953-0.161,1.856,0.481,2.017,1.434c0.161,0.953-0.481,1.856-1.434,2.017C335.414,76.568,334.511,75.926,334.35,74.973z"/>
				<path id="XMLID_123_" style="fill:#DADFC8;" d="M324.214,111.039c-0.092-0.545,0.275-1.061,0.819-1.153
					c0.545-0.092,1.061,0.275,1.153,0.82c0.092,0.545-0.275,1.061-0.82,1.153C324.822,111.951,324.306,111.584,324.214,111.039z"/>
				<path id="XMLID_122_" style="fill:#DADFC8;" d="M304.404,92.073c-0.092-0.545,0.275-1.061,0.819-1.153
					c0.545-0.092,1.061,0.275,1.152,0.82c0.092,0.545-0.275,1.061-0.819,1.153C305.012,92.984,304.496,92.618,304.404,92.073z"/>
				<path id="XMLID_121_" style="fill:#DADFC8;" d="M371.062,60.406c-0.092-0.545,0.275-1.061,0.819-1.153
					c0.545-0.092,1.061,0.275,1.153,0.82c0.092,0.545-0.275,1.061-0.82,1.153C371.67,61.318,371.154,60.951,371.062,60.406z"/>
				<path id="XMLID_120_" style="fill:#DADFC8;" d="M327.547,93.996c-0.092-0.545,0.275-1.061,0.82-1.153
					c0.545-0.092,1.061,0.275,1.153,0.82c0.092,0.545-0.275,1.061-0.819,1.152C328.155,94.908,327.639,94.541,327.547,93.996z"/>
				<path id="XMLID_119_" style="fill:#DADFC8;" d="M314.526,68.686c-0.092-0.545,0.275-1.061,0.82-1.152
					c0.545-0.092,1.061,0.275,1.153,0.819c0.092,0.545-0.275,1.061-0.819,1.153C315.134,69.598,314.618,69.231,314.526,68.686z"/>
				<path id="XMLID_118_" style="fill:#DADFC8;" d="M368.651,85.914c-0.092-0.545,0.275-1.061,0.819-1.153
					c0.545-0.092,1.061,0.275,1.152,0.82c0.092,0.545-0.275,1.061-0.819,1.153C369.258,86.826,368.742,86.459,368.651,85.914z"/>
			</g>
			<g id="XMLID_108_">
				<path id="XMLID_116_" style="fill:#DADFC8;" d="M407.75,120.765c-0.115-0.681,0.344-1.326,1.024-1.441
					c0.681-0.115,1.326,0.344,1.441,1.024c0.115,0.681-0.344,1.326-1.024,1.441C408.51,121.904,407.865,121.446,407.75,120.765z"/>
				<path id="XMLID_115_" style="fill:#DADFC8;" d="M388.474,92.201c-0.161-0.953,0.481-1.856,1.434-2.017
					c0.953-0.161,1.856,0.481,2.017,1.434c0.161,0.953-0.481,1.856-1.434,2.017C389.538,93.796,388.635,93.154,388.474,92.201z"/>
				<path id="XMLID_114_" style="fill:#DADFC8;" d="M378.338,128.267c-0.092-0.545,0.275-1.061,0.819-1.153
					c0.545-0.092,1.061,0.275,1.153,0.82c0.092,0.545-0.275,1.061-0.82,1.153C378.946,129.179,378.43,128.812,378.338,128.267z"/>
				<path id="XMLID_113_" style="fill:#DADFC8;" d="M358.529,109.301c-0.092-0.545,0.275-1.061,0.819-1.153
					c0.545-0.092,1.061,0.275,1.153,0.82c0.092,0.544-0.275,1.061-0.819,1.152C359.137,110.213,358.62,109.846,358.529,109.301z"/>
				<path id="XMLID_112_" style="fill:#DADFC8;" d="M425.186,77.634c-0.092-0.545,0.275-1.061,0.819-1.152
					c0.545-0.092,1.061,0.275,1.153,0.819c0.092,0.545-0.275,1.061-0.82,1.153C425.794,78.546,425.278,78.179,425.186,77.634z"/>
				<path id="XMLID_111_" style="fill:#DADFC8;" d="M381.672,111.224c-0.092-0.544,0.275-1.061,0.82-1.152
					c0.544-0.092,1.061,0.275,1.152,0.819c0.092,0.545-0.275,1.061-0.819,1.153C382.28,112.136,381.764,111.769,381.672,111.224z"/>
				<path id="XMLID_110_" style="fill:#DADFC8;" d="M368.651,85.914c-0.092-0.545,0.275-1.061,0.819-1.153
					c0.545-0.092,1.061,0.275,1.152,0.82c0.092,0.545-0.275,1.061-0.819,1.153C369.258,86.826,368.742,86.459,368.651,85.914z"/>
				<path id="XMLID_109_" style="fill:#DADFC8;" d="M422.775,103.142c-0.092-0.544,0.275-1.061,0.819-1.152
					c0.545-0.092,1.061,0.275,1.153,0.819c0.092,0.545-0.275,1.061-0.82,1.153C423.383,104.053,422.867,103.687,422.775,103.142z"/>
			</g>
			<g id="XMLID_99_">
				<path id="XMLID_107_" style="fill:#DADFC8;" d="M461.874,137.993c-0.115-0.681,0.344-1.326,1.024-1.441
					c0.681-0.115,1.326,0.344,1.441,1.024c0.115,0.681-0.344,1.326-1.024,1.441C462.634,139.132,461.989,138.674,461.874,137.993z"
					/>
				<path id="XMLID_106_" style="fill:#DADFC8;" d="M442.598,109.429c-0.161-0.953,0.481-1.856,1.434-2.017
					c0.953-0.161,1.856,0.481,2.017,1.434c0.161,0.953-0.481,1.856-1.434,2.017C443.662,111.024,442.759,110.382,442.598,109.429z"
					/>
				<path id="XMLID_105_" style="fill:#DADFC8;" d="M432.463,145.495c-0.092-0.545,0.275-1.061,0.819-1.153
					c0.545-0.092,1.061,0.275,1.153,0.82c0.092,0.544-0.275,1.061-0.82,1.152C433.071,146.407,432.554,146.04,432.463,145.495z"/>
				<path id="XMLID_104_" style="fill:#DADFC8;" d="M412.653,126.529c-0.092-0.545,0.275-1.061,0.819-1.152
					c0.545-0.092,1.061,0.275,1.152,0.819c0.092,0.545-0.275,1.061-0.819,1.153C413.261,127.44,412.745,127.074,412.653,126.529z"/>
				<path id="XMLID_103_" style="fill:#DADFC8;" d="M479.31,94.862c-0.092-0.544,0.275-1.06,0.82-1.152
					c0.545-0.092,1.061,0.275,1.153,0.82c0.092,0.545-0.275,1.061-0.82,1.153C479.918,95.774,479.402,95.407,479.31,94.862z"/>
				<path id="XMLID_102_" style="fill:#DADFC8;" d="M435.796,128.452c-0.092-0.545,0.275-1.061,0.819-1.153
					c0.545-0.092,1.061,0.275,1.153,0.819c0.092,0.545-0.275,1.061-0.819,1.153C436.404,129.364,435.888,128.997,435.796,128.452z"
					/>
				<path id="XMLID_101_" style="fill:#DADFC8;" d="M422.775,103.142c-0.092-0.544,0.275-1.061,0.819-1.152
					c0.545-0.092,1.061,0.275,1.153,0.819c0.092,0.545-0.275,1.061-0.82,1.153C423.383,104.053,422.867,103.687,422.775,103.142z"/>
				<path id="XMLID_100_" style="fill:#DADFC8;" d="M476.899,120.37c-0.092-0.545,0.275-1.061,0.819-1.153
					c0.545-0.092,1.061,0.275,1.152,0.82c0.092,0.545-0.275,1.061-0.819,1.153C477.507,121.282,476.991,120.915,476.899,120.37z"/>
			</g>
			<g id="XMLID_198_">
				<path id="XMLID_206_" style="fill:#DADFC8;" d="M546.829,62.288c-0.115-0.681,0.344-1.326,1.024-1.441
					c0.681-0.115,1.326,0.344,1.441,1.024c0.115,0.681-0.344,1.326-1.024,1.441C547.589,63.427,546.944,62.968,546.829,62.288z"/>
				<path id="XMLID_205_" style="fill:#DADFC8;" d="M527.554,33.724c-0.161-0.953,0.481-1.856,1.434-2.017
					c0.953-0.161,1.856,0.481,2.017,1.434c0.161,0.953-0.481,1.856-1.434,2.017S527.715,34.677,527.554,33.724z"/>
				<path id="XMLID_204_" style="fill:#DADFC8;" d="M517.418,69.79c-0.092-0.545,0.275-1.061,0.82-1.153
					c0.545-0.092,1.061,0.275,1.153,0.82c0.092,0.545-0.275,1.061-0.82,1.153C518.026,70.701,517.51,70.335,517.418,69.79z"/>
				<path id="XMLID_203_" style="fill:#DADFC8;" d="M497.608,50.824c-0.092-0.545,0.275-1.061,0.819-1.153s1.061,0.275,1.153,0.819
					c0.092,0.545-0.275,1.061-0.82,1.153C498.216,51.735,497.7,51.368,497.608,50.824z"/>
				<path id="XMLID_202_" style="fill:#DADFC8;" d="M564.266,19.157c-0.092-0.545,0.275-1.061,0.82-1.153
					c0.544-0.092,1.061,0.275,1.153,0.82c0.092,0.545-0.275,1.061-0.82,1.153C564.874,20.069,564.358,19.702,564.266,19.157z"/>
				<path id="XMLID_201_" style="fill:#DADFC8;" d="M520.752,52.747c-0.092-0.545,0.275-1.061,0.819-1.153
					c0.545-0.092,1.061,0.275,1.153,0.819c0.092,0.545-0.275,1.061-0.82,1.153C521.36,53.658,520.844,53.292,520.752,52.747z"/>
				<path id="XMLID_200_" style="fill:#DADFC8;" d="M507.73,27.437c-0.092-0.545,0.275-1.061,0.82-1.153
					c0.545-0.092,1.061,0.275,1.153,0.82c0.092,0.545-0.275,1.061-0.819,1.153C508.338,28.348,507.822,27.981,507.73,27.437z"/>
				<path id="XMLID_199_" style="fill:#DADFC8;" d="M561.855,44.665c-0.092-0.545,0.275-1.061,0.819-1.153
					c0.545-0.092,1.061,0.275,1.153,0.819c0.092,0.545-0.275,1.061-0.82,1.153C562.463,45.576,561.947,45.209,561.855,44.665z"/>
			</g>
			<g id="XMLID_189_">
				<path id="XMLID_197_" style="fill:#DADFC8;" d="M440.811,71.064c-0.115-0.681,0.344-1.326,1.024-1.441
					c0.681-0.115,1.326,0.344,1.441,1.024c0.115,0.681-0.344,1.326-1.024,1.441C441.571,72.203,440.926,71.745,440.811,71.064z"/>
				<path id="XMLID_196_" style="fill:#DADFC8;" d="M421.535,42.5c-0.161-0.953,0.481-1.856,1.434-2.017
					c0.953-0.161,1.856,0.481,2.017,1.434s-0.481,1.856-1.434,2.017C422.599,44.095,421.696,43.453,421.535,42.5z"/>
				<path id="XMLID_195_" style="fill:#DADFC8;" d="M411.399,78.566c-0.092-0.545,0.275-1.061,0.82-1.153
					c0.544-0.092,1.06,0.275,1.152,0.82c0.092,0.545-0.275,1.061-0.82,1.153C412.007,79.478,411.491,79.111,411.399,78.566z"/>
				<path id="XMLID_194_" style="fill:#DADFC8;" d="M391.59,59.6c-0.092-0.545,0.275-1.061,0.819-1.153
					c0.545-0.092,1.061,0.275,1.153,0.819c0.092,0.545-0.275,1.061-0.819,1.153C392.198,60.512,391.682,60.145,391.59,59.6z"/>
				<path id="XMLID_193_" style="fill:#DADFC8;" d="M458.247,27.933c-0.092-0.545,0.275-1.061,0.82-1.153
					c0.545-0.092,1.061,0.275,1.153,0.82c0.092,0.544-0.275,1.061-0.82,1.152C458.855,28.845,458.339,28.478,458.247,27.933z"/>
				<path id="XMLID_192_" style="fill:#DADFC8;" d="M414.733,61.523c-0.092-0.545,0.275-1.061,0.819-1.153
					c0.545-0.092,1.061,0.275,1.152,0.819c0.092,0.545-0.275,1.061-0.819,1.153C415.341,62.435,414.825,62.068,414.733,61.523z"/>
				<path id="XMLID_191_" style="fill:#DADFC8;" d="M401.712,36.213c-0.092-0.545,0.275-1.061,0.819-1.153
					c0.545-0.092,1.061,0.275,1.152,0.82c0.092,0.544-0.275,1.061-0.819,1.153C402.32,37.125,401.804,36.758,401.712,36.213z"/>
				<path id="XMLID_190_" style="fill:#DADFC8;" d="M455.836,53.441c-0.092-0.545,0.275-1.061,0.819-1.153
					c0.545-0.092,1.061,0.275,1.153,0.819c0.092,0.545-0.275,1.061-0.819,1.153C456.444,54.353,455.928,53.986,455.836,53.441z"/>
			</g>
			<g id="XMLID_180_">
				<path id="XMLID_188_" style="fill:#DADFC8;" d="M494.935,88.292c-0.115-0.681,0.344-1.326,1.024-1.441
					c0.681-0.115,1.326,0.344,1.441,1.024c0.115,0.681-0.344,1.326-1.024,1.441C495.695,89.431,495.05,88.973,494.935,88.292z"/>
				<path id="XMLID_187_" style="fill:#DADFC8;" d="M475.66,59.728c-0.161-0.953,0.481-1.856,1.434-2.017s1.856,0.481,2.017,1.434
					c0.161,0.953-0.481,1.856-1.434,2.017C476.724,61.323,475.821,60.681,475.66,59.728z"/>
				<path id="XMLID_186_" style="fill:#DADFC8;" d="M465.524,95.794c-0.092-0.545,0.275-1.061,0.82-1.153
					c0.545-0.092,1.061,0.275,1.153,0.819c0.092,0.545-0.275,1.061-0.82,1.153C466.132,96.706,465.616,96.339,465.524,95.794z"/>
				<path id="XMLID_185_" style="fill:#DADFC8;" d="M445.714,76.828c-0.092-0.545,0.275-1.061,0.819-1.153
					c0.545-0.092,1.061,0.275,1.153,0.82c0.092,0.544-0.275,1.061-0.82,1.152C446.322,77.74,445.806,77.373,445.714,76.828z"/>
				<path id="XMLID_184_" style="fill:#DADFC8;" d="M512.372,45.161c-0.092-0.545,0.275-1.061,0.82-1.153
					c0.544-0.092,1.061,0.275,1.153,0.819s-0.275,1.061-0.82,1.153C512.98,46.073,512.464,45.706,512.372,45.161z"/>
				<path id="XMLID_183_" style="fill:#DADFC8;" d="M468.857,78.751c-0.092-0.545,0.275-1.061,0.819-1.152
					c0.545-0.092,1.061,0.275,1.153,0.819c0.092,0.545-0.275,1.061-0.819,1.153C469.465,79.663,468.949,79.296,468.857,78.751z"/>
				<path id="XMLID_182_" style="fill:#DADFC8;" d="M455.836,53.441c-0.092-0.545,0.275-1.061,0.819-1.153
					c0.545-0.092,1.061,0.275,1.153,0.819c0.092,0.545-0.275,1.061-0.819,1.153C456.444,54.353,455.928,53.986,455.836,53.441z"/>
				<path id="XMLID_181_" style="fill:#DADFC8;" d="M509.96,70.669c-0.092-0.545,0.275-1.061,0.819-1.152
					c0.545-0.092,1.061,0.275,1.152,0.819c0.092,0.545-0.275,1.061-0.819,1.153C510.568,71.58,510.052,71.214,509.96,70.669z"/>
			</g>
			<g id="XMLID_171_">
				<path id="XMLID_179_" style="fill:#DADFC8;" d="M549.059,105.52c-0.115-0.681,0.344-1.326,1.024-1.441
					c0.681-0.115,1.326,0.344,1.441,1.024c0.115,0.681-0.344,1.326-1.024,1.441C549.819,106.659,549.174,106.201,549.059,105.52z"/>
				<path id="XMLID_178_" style="fill:#DADFC8;" d="M529.784,76.956c-0.161-0.953,0.481-1.856,1.434-2.017
					c0.953-0.161,1.856,0.481,2.017,1.434c0.161,0.953-0.481,1.856-1.434,2.017C530.848,78.551,529.945,77.909,529.784,76.956z"/>
				<path id="XMLID_177_" style="fill:#DADFC8;" d="M519.648,113.022c-0.092-0.545,0.275-1.061,0.82-1.153
					c0.544-0.092,1.06,0.275,1.153,0.82c0.092,0.545-0.275,1.061-0.82,1.152C520.256,113.934,519.74,113.567,519.648,113.022z"/>
				<path id="XMLID_176_" style="fill:#DADFC8;" d="M499.838,94.056c-0.092-0.545,0.275-1.061,0.819-1.152
					c0.545-0.092,1.061,0.275,1.153,0.819c0.092,0.545-0.275,1.061-0.82,1.153C500.446,94.967,499.93,94.601,499.838,94.056z"/>
				<path id="XMLID_175_" style="fill:#DADFC8;" d="M566.496,62.389c-0.092-0.545,0.275-1.061,0.82-1.153
					c0.545-0.092,1.061,0.275,1.153,0.819c0.092,0.545-0.275,1.061-0.82,1.153C567.104,63.301,566.588,62.934,566.496,62.389z"/>
				<path id="XMLID_174_" style="fill:#DADFC8;" d="M522.982,95.979c-0.092-0.545,0.275-1.061,0.82-1.153
					c0.545-0.092,1.061,0.275,1.152,0.82c0.092,0.545-0.275,1.061-0.819,1.153C523.59,96.891,523.074,96.524,522.982,95.979z"/>
				<path id="XMLID_173_" style="fill:#DADFC8;" d="M509.96,70.669c-0.092-0.545,0.275-1.061,0.819-1.152
					c0.545-0.092,1.061,0.275,1.152,0.819c0.092,0.545-0.275,1.061-0.819,1.153C510.568,71.58,510.052,71.214,509.96,70.669z"/>
				<path id="XMLID_172_" style="fill:#DADFC8;" d="M564.085,87.897c-0.092-0.545,0.275-1.061,0.82-1.153
					c0.545-0.092,1.061,0.275,1.153,0.82c0.092,0.545-0.275,1.061-0.819,1.153C564.693,88.809,564.177,88.442,564.085,87.897z"/>
			</g>
			<g id="XMLID_162_">
				<path id="XMLID_170_" style="fill:#DADFC8;" d="M603.184,122.748c-0.115-0.681,0.344-1.326,1.024-1.441
					c0.681-0.115,1.326,0.344,1.441,1.024c0.115,0.681-0.344,1.326-1.024,1.441C603.944,123.887,603.299,123.429,603.184,122.748z"
					/>
				<path id="XMLID_169_" style="fill:#DADFC8;" d="M583.908,94.184c-0.161-0.953,0.481-1.856,1.434-2.017
					c0.953-0.161,1.856,0.481,2.017,1.434c0.161,0.953-0.481,1.856-1.434,2.017C584.972,95.779,584.069,95.137,583.908,94.184z"/>
				<path id="XMLID_168_" style="fill:#DADFC8;" d="M573.772,130.25c-0.092-0.545,0.275-1.061,0.819-1.152
					c0.545-0.092,1.061,0.275,1.153,0.82c0.092,0.545-0.275,1.061-0.82,1.152C574.38,131.162,573.864,130.795,573.772,130.25z"/>
				<path id="XMLID_167_" style="fill:#DADFC8;" d="M553.963,111.284c-0.092-0.544,0.275-1.061,0.819-1.152
					c0.545-0.092,1.061,0.275,1.153,0.819c0.092,0.545-0.275,1.061-0.82,1.153C554.571,112.196,554.055,111.829,553.963,111.284z"/>
				<path id="XMLID_166_" style="fill:#DADFC8;" d="M620.62,79.618c-0.092-0.545,0.275-1.061,0.82-1.153
					c0.544-0.092,1.06,0.275,1.153,0.82c0.092,0.545-0.275,1.061-0.82,1.153C621.228,80.529,620.712,80.162,620.62,79.618z"/>
				<path id="XMLID_165_" style="fill:#DADFC8;" d="M577.106,113.207c-0.092-0.545,0.275-1.061,0.819-1.153
					c0.545-0.092,1.061,0.275,1.153,0.819c0.092,0.545-0.275,1.061-0.819,1.153C577.714,114.119,577.198,113.752,577.106,113.207z"
					/>
				<path id="XMLID_164_" style="fill:#DADFC8;" d="M564.085,87.897c-0.092-0.545,0.275-1.061,0.82-1.153
					c0.545-0.092,1.061,0.275,1.153,0.82c0.092,0.545-0.275,1.061-0.819,1.153C564.693,88.809,564.177,88.442,564.085,87.897z"/>
				<path id="XMLID_163_" style="fill:#DADFC8;" d="M618.209,105.125c-0.092-0.545,0.275-1.061,0.819-1.153
					c0.545-0.092,1.061,0.275,1.153,0.819c0.092,0.545-0.275,1.061-0.82,1.153C618.817,106.037,618.301,105.67,618.209,105.125z"/>
			</g>
			<g id="XMLID_153_">
				<path id="XMLID_161_" style="fill:#DADFC8;" d="M657.308,139.976c-0.115-0.681,0.344-1.326,1.024-1.441
					c0.681-0.115,1.326,0.344,1.441,1.024c0.115,0.681-0.344,1.326-1.024,1.441C658.068,141.115,657.423,140.657,657.308,139.976z"
					/>
				<path id="XMLID_160_" style="fill:#DADFC8;" d="M638.033,111.412c-0.161-0.953,0.481-1.856,1.434-2.017
					c0.953-0.161,1.856,0.481,2.017,1.434c0.161,0.953-0.481,1.856-1.434,2.017C639.097,113.007,638.194,112.365,638.033,111.412z"
					/>
				<path id="XMLID_159_" style="fill:#DADFC8;" d="M627.897,147.478c-0.092-0.544,0.275-1.061,0.82-1.152
					c0.544-0.092,1.06,0.275,1.152,0.82s-0.275,1.061-0.82,1.153C628.505,148.39,627.989,148.023,627.897,147.478z"/>
				<path id="XMLID_158_" style="fill:#DADFC8;" d="M608.087,128.512c-0.092-0.545,0.275-1.061,0.82-1.153
					c0.545-0.092,1.061,0.275,1.153,0.82s-0.275,1.061-0.82,1.153C608.695,129.423,608.179,129.057,608.087,128.512z"/>
				<path id="XMLID_157_" style="fill:#DADFC8;" d="M674.745,96.845c-0.092-0.545,0.275-1.061,0.82-1.153
					c0.545-0.092,1.061,0.275,1.153,0.819c0.092,0.545-0.275,1.061-0.82,1.153C675.353,97.757,674.837,97.39,674.745,96.845z"/>
				<path id="XMLID_156_" style="fill:#DADFC8;" d="M631.23,130.435c-0.092-0.545,0.275-1.061,0.819-1.153
					c0.545-0.092,1.061,0.275,1.153,0.82c0.092,0.544-0.275,1.061-0.82,1.152C631.838,131.347,631.322,130.98,631.23,130.435z"/>
				<path id="XMLID_155_" style="fill:#DADFC8;" d="M618.209,105.125c-0.092-0.545,0.275-1.061,0.819-1.153
					c0.545-0.092,1.061,0.275,1.153,0.819c0.092,0.545-0.275,1.061-0.82,1.153C618.817,106.037,618.301,105.67,618.209,105.125z"/>
				<path id="XMLID_154_" style="fill:#DADFC8;" d="M672.333,122.353c-0.092-0.545,0.275-1.061,0.82-1.153
					c0.545-0.092,1.061,0.275,1.153,0.82c0.092,0.544-0.275,1.061-0.819,1.152C672.941,123.265,672.425,122.898,672.333,122.353z"/>
			</g>
			<g id="XMLID_252_">
				<path id="XMLID_260_" style="fill:#DADFC8;" d="M703.113,63.699c-0.115-0.681,0.344-1.326,1.024-1.441
					c0.681-0.115,1.326,0.344,1.441,1.024c0.115,0.681-0.344,1.326-1.024,1.441C703.873,64.839,703.228,64.38,703.113,63.699z"/>
				<path id="XMLID_259_" style="fill:#DADFC8;" d="M683.838,35.135c-0.161-0.953,0.481-1.856,1.434-2.017
					c0.953-0.161,1.856,0.481,2.017,1.434c0.161,0.953-0.481,1.856-1.434,2.017C684.902,36.73,683.999,36.088,683.838,35.135z"/>
				<path id="XMLID_258_" style="fill:#DADFC8;" d="M673.702,71.201c-0.092-0.545,0.275-1.061,0.819-1.153
					c0.545-0.092,1.061,0.275,1.153,0.82c0.092,0.545-0.275,1.061-0.82,1.152C674.31,72.113,673.794,71.746,673.702,71.201z"/>
				<path id="XMLID_257_" style="fill:#DADFC8;" d="M653.892,52.235c-0.092-0.545,0.275-1.061,0.82-1.153
					c0.544-0.092,1.061,0.275,1.152,0.819c0.092,0.545-0.275,1.061-0.819,1.153C654.5,53.147,653.984,52.78,653.892,52.235z"/>
				<path id="XMLID_256_" style="fill:#DADFC8;" d="M720.55,20.569c-0.092-0.545,0.275-1.06,0.82-1.153
					c0.545-0.092,1.061,0.275,1.153,0.819c0.092,0.545-0.275,1.061-0.82,1.153C721.158,21.48,720.642,21.113,720.55,20.569z"/>
				<path id="XMLID_255_" style="fill:#DADFC8;" d="M677.036,54.158c-0.092-0.545,0.275-1.061,0.82-1.153
					c0.545-0.092,1.061,0.275,1.153,0.819c0.092,0.545-0.275,1.061-0.82,1.153C677.644,55.07,677.128,54.703,677.036,54.158z"/>
				<path id="XMLID_254_" style="fill:#DADFC8;" d="M664.014,28.848c-0.092-0.545,0.275-1.06,0.82-1.153
					c0.545-0.092,1.061,0.275,1.153,0.819c0.092,0.545-0.275,1.061-0.82,1.153C664.622,29.76,664.106,29.393,664.014,28.848z"/>
				<path id="XMLID_253_" style="fill:#DADFC8;" d="M718.139,46.076c-0.092-0.545,0.275-1.061,0.82-1.153
					c0.544-0.092,1.06,0.275,1.152,0.819c0.092,0.545-0.275,1.061-0.819,1.153C718.747,46.988,718.231,46.621,718.139,46.076z"/>
			</g>
			<g id="XMLID_243_">
				<path id="XMLID_251_" style="fill:#DADFC8;" d="M597.095,72.475c-0.115-0.681,0.344-1.326,1.024-1.441
					c0.681-0.115,1.326,0.344,1.441,1.024c0.115,0.681-0.344,1.326-1.024,1.441C597.855,73.615,597.209,73.156,597.095,72.475z"/>
				<path id="XMLID_250_" style="fill:#DADFC8;" d="M577.819,43.911c-0.161-0.953,0.481-1.856,1.434-2.017
					c0.953-0.161,1.856,0.481,2.017,1.434c0.161,0.953-0.481,1.856-1.434,2.017C578.883,45.506,577.98,44.864,577.819,43.911z"/>
				<path id="XMLID_249_" style="fill:#DADFC8;" d="M567.683,79.978c-0.092-0.545,0.275-1.061,0.82-1.152
					c0.545-0.092,1.061,0.275,1.153,0.819c0.092,0.545-0.275,1.061-0.82,1.152C568.291,80.889,567.775,80.522,567.683,79.978z"/>
				<path id="XMLID_248_" style="fill:#DADFC8;" d="M547.873,61.011c-0.092-0.544,0.275-1.061,0.82-1.153
					c0.545-0.092,1.061,0.275,1.153,0.819c0.092,0.545-0.275,1.061-0.82,1.153C548.482,61.923,547.965,61.556,547.873,61.011z"/>
				<path id="XMLID_247_" style="fill:#DADFC8;" d="M614.531,29.345c-0.092-0.545,0.275-1.061,0.82-1.153
					c0.544-0.092,1.061,0.275,1.152,0.819c0.092,0.545-0.275,1.061-0.82,1.153C615.139,30.256,614.623,29.889,614.531,29.345z"/>
				<path id="XMLID_246_" style="fill:#DADFC8;" d="M571.017,62.935c-0.092-0.545,0.275-1.061,0.82-1.153
					c0.545-0.092,1.061,0.275,1.153,0.819c0.092,0.545-0.275,1.061-0.82,1.153C571.625,63.846,571.109,63.479,571.017,62.935z"/>
				<path id="XMLID_245_" style="fill:#DADFC8;" d="M557.995,37.625c-0.092-0.545,0.275-1.061,0.82-1.153
					c0.545-0.092,1.061,0.275,1.153,0.819c0.092,0.545-0.275,1.061-0.82,1.153C558.604,38.536,558.087,38.169,557.995,37.625z"/>
				<path id="XMLID_244_" style="fill:#DADFC8;" d="M612.12,54.853c-0.092-0.545,0.275-1.061,0.82-1.153
					c0.545-0.092,1.061,0.275,1.152,0.819c0.092,0.545-0.275,1.061-0.819,1.153S612.212,55.397,612.12,54.853z"/>
			</g>
			<g id="XMLID_234_">
				<path id="XMLID_242_" style="fill:#DADFC8;" d="M651.219,89.703c-0.115-0.681,0.344-1.326,1.024-1.441
					c0.681-0.115,1.326,0.344,1.441,1.024c0.115,0.681-0.344,1.326-1.024,1.441C651.979,90.843,651.334,90.384,651.219,89.703z"/>
				<path id="XMLID_241_" style="fill:#DADFC8;" d="M631.943,61.139c-0.161-0.953,0.481-1.856,1.434-2.017
					c0.953-0.161,1.856,0.481,2.017,1.434c0.161,0.953-0.481,1.856-1.434,2.017C633.007,62.734,632.104,62.092,631.943,61.139z"/>
				<path id="XMLID_240_" style="fill:#DADFC8;" d="M621.807,97.206c-0.092-0.544,0.275-1.061,0.82-1.152
					c0.544-0.092,1.061,0.275,1.153,0.819c0.092,0.545-0.275,1.061-0.82,1.153C622.415,98.117,621.899,97.75,621.807,97.206z"/>
				<path id="XMLID_239_" style="fill:#DADFC8;" d="M601.998,78.239c-0.092-0.545,0.275-1.061,0.82-1.153
					c0.544-0.092,1.06,0.275,1.153,0.82c0.092,0.545-0.275,1.061-0.82,1.153C602.606,79.151,602.09,78.784,601.998,78.239z"/>
				<path id="XMLID_238_" style="fill:#DADFC8;" d="M668.655,46.573c-0.092-0.545,0.275-1.061,0.82-1.153
					c0.545-0.092,1.061,0.275,1.153,0.819c0.092,0.545-0.275,1.061-0.82,1.153C669.263,47.484,668.747,47.117,668.655,46.573z"/>
				<path id="XMLID_237_" style="fill:#DADFC8;" d="M625.141,80.163c-0.092-0.545,0.275-1.061,0.82-1.153
					c0.545-0.092,1.061,0.275,1.152,0.82c0.092,0.545-0.275,1.061-0.819,1.153C625.749,81.074,625.233,80.707,625.141,80.163z"/>
				<path id="XMLID_236_" style="fill:#DADFC8;" d="M612.12,54.853c-0.092-0.545,0.275-1.061,0.82-1.153
					c0.545-0.092,1.061,0.275,1.152,0.819c0.092,0.545-0.275,1.061-0.819,1.153S612.212,55.397,612.12,54.853z"/>
				<path id="XMLID_235_" style="fill:#DADFC8;" d="M666.244,72.08c-0.092-0.545,0.275-1.061,0.819-1.153
					c0.545-0.092,1.061,0.275,1.153,0.82c0.092,0.545-0.275,1.061-0.82,1.153C666.852,72.992,666.336,72.625,666.244,72.08z"/>
			</g>
			<g id="XMLID_225_">
				<path id="XMLID_233_" style="fill:#DADFC8;" d="M705.343,106.932c-0.115-0.681,0.344-1.326,1.024-1.441
					c0.681-0.115,1.326,0.344,1.441,1.024c0.115,0.681-0.344,1.326-1.024,1.441C706.103,108.071,705.458,107.612,705.343,106.932z"
					/>
				<path id="XMLID_232_" style="fill:#DADFC8;" d="M686.068,78.367c-0.161-0.953,0.481-1.856,1.434-2.017
					c0.953-0.161,1.856,0.481,2.017,1.434c0.161,0.953-0.481,1.856-1.434,2.017C687.132,79.962,686.229,79.32,686.068,78.367z"/>
				<path id="XMLID_231_" style="fill:#DADFC8;" d="M675.932,114.434c-0.092-0.545,0.275-1.061,0.82-1.153
					c0.545-0.092,1.061,0.275,1.153,0.82c0.092,0.545-0.275,1.061-0.82,1.153C676.54,115.345,676.024,114.978,675.932,114.434z"/>
				<path id="XMLID_230_" style="fill:#DADFC8;" d="M656.122,95.467c-0.092-0.545,0.275-1.061,0.82-1.153
					c0.545-0.092,1.061,0.275,1.153,0.819c0.092,0.545-0.275,1.061-0.82,1.153C656.73,96.379,656.214,96.012,656.122,95.467z"/>
				<path id="XMLID_229_" style="fill:#DADFC8;" d="M722.78,63.801c-0.092-0.545,0.275-1.061,0.82-1.153
					c0.544-0.092,1.061,0.275,1.153,0.82c0.092,0.544-0.275,1.061-0.82,1.153C723.388,64.712,722.872,64.345,722.78,63.801z"/>
				<path id="XMLID_228_" style="fill:#DADFC8;" d="M679.266,97.391c-0.092-0.545,0.275-1.061,0.82-1.153
					c0.545-0.092,1.061,0.275,1.153,0.82c0.092,0.545-0.275,1.061-0.82,1.152C679.873,98.302,679.357,97.935,679.266,97.391z"/>
				<path id="XMLID_227_" style="fill:#DADFC8;" d="M666.244,72.08c-0.092-0.545,0.275-1.061,0.819-1.153
					c0.545-0.092,1.061,0.275,1.153,0.82c0.092,0.545-0.275,1.061-0.82,1.153C666.852,72.992,666.336,72.625,666.244,72.08z"/>
				<path id="XMLID_226_" style="fill:#DADFC8;" d="M720.369,89.309c-0.092-0.545,0.275-1.061,0.82-1.153
					c0.545-0.092,1.061,0.275,1.152,0.82c0.092,0.545-0.275,1.061-0.82,1.152C720.977,90.22,720.461,89.853,720.369,89.309z"/>
			</g>
			<g id="XMLID_216_">
				<path id="XMLID_223_" style="fill:#DADFC8;" d="M740.192,95.595c-0.161-0.953,0.481-1.856,1.434-2.017
					c0.953-0.161,1.856,0.481,2.017,1.434c0.161,0.953-0.481,1.856-1.434,2.017C741.256,97.19,740.353,96.548,740.192,95.595z"/>
				<path id="XMLID_222_" style="fill:#DADFC8;" d="M730.056,131.662c-0.092-0.545,0.275-1.061,0.82-1.153
					c0.544-0.092,1.061,0.275,1.152,0.82c0.092,0.545-0.275,1.061-0.819,1.153C730.664,132.573,730.148,132.206,730.056,131.662z"/>
				<path id="XMLID_221_" style="fill:#DADFC8;" d="M710.246,112.696c-0.092-0.545,0.275-1.061,0.82-1.153
					c0.544-0.092,1.06,0.275,1.152,0.82c0.092,0.544-0.275,1.06-0.819,1.152C710.854,113.607,710.339,113.24,710.246,112.696z"/>
				<path id="XMLID_219_" style="fill:#DADFC8;" d="M733.39,114.619c-0.092-0.545,0.275-1.061,0.82-1.152
					c0.545-0.092,1.061,0.275,1.152,0.819c0.092,0.545-0.275,1.061-0.82,1.153C733.998,115.53,733.482,115.163,733.39,114.619z"/>
				<path id="XMLID_218_" style="fill:#DADFC8;" d="M720.369,89.309c-0.092-0.545,0.275-1.061,0.82-1.153
					c0.545-0.092,1.061,0.275,1.152,0.82c0.092,0.545-0.275,1.061-0.82,1.152C720.977,90.22,720.461,89.853,720.369,89.309z"/>
			</g>
		</g>
	</g>
</g>
</svg>
